G04*
G04 #@! TF.GenerationSoftware,Altium Limited,Altium Designer,21.0.8 (223)*
G04*
G04 Layer_Color=255*
%FSLAX25Y25*%
%MOIN*%
G70*
G04*
G04 #@! TF.SameCoordinates,8E13090D-DBD1-43B5-9963-361C11C34DB8*
G04*
G04*
G04 #@! TF.FilePolarity,Positive*
G04*
G01*
G75*
%ADD13R,0.04500X0.02500*%
%ADD14C,0.01968*%
%ADD15C,0.00394*%
%ADD31C,0.06000*%
%ADD32C,0.07874*%
%ADD33O,0.06693X0.09843*%
G04:AMPARAMS|DCode=34|XSize=49.21mil|YSize=68.9mil|CornerRadius=4.92mil|HoleSize=0mil|Usage=FLASHONLY|Rotation=270.000|XOffset=0mil|YOffset=0mil|HoleType=Round|Shape=RoundedRectangle|*
%AMROUNDEDRECTD34*
21,1,0.04921,0.05906,0,0,270.0*
21,1,0.03937,0.06890,0,0,270.0*
1,1,0.00984,-0.02953,-0.01968*
1,1,0.00984,-0.02953,0.01968*
1,1,0.00984,0.02953,0.01968*
1,1,0.00984,0.02953,-0.01968*
%
%ADD34ROUNDEDRECTD34*%
%ADD35C,0.05500*%
%ADD36R,0.07087X0.05906*%
%ADD37C,0.18504*%
%ADD38R,0.06000X0.06000*%
G04:AMPARAMS|DCode=39|XSize=70.87mil|YSize=59.06mil|CornerRadius=0mil|HoleSize=0mil|Usage=FLASHONLY|Rotation=23.000|XOffset=0mil|YOffset=0mil|HoleType=Round|Shape=Rectangle|*
%AMROTATEDRECTD39*
4,1,4,-0.02108,-0.04103,-0.04415,0.01334,0.02108,0.04103,0.04415,-0.01334,-0.02108,-0.04103,0.0*
%
%ADD39ROTATEDRECTD39*%

G04:AMPARAMS|DCode=40|XSize=70.87mil|YSize=59.06mil|CornerRadius=0mil|HoleSize=0mil|Usage=FLASHONLY|Rotation=310.000|XOffset=0mil|YOffset=0mil|HoleType=Round|Shape=Rectangle|*
%AMROTATEDRECTD40*
4,1,4,-0.04540,0.00816,-0.00016,0.04612,0.04540,-0.00816,0.00016,-0.04612,-0.04540,0.00816,0.0*
%
%ADD40ROTATEDRECTD40*%

%ADD41R,0.12598X0.07874*%
G04:AMPARAMS|DCode=42|XSize=70.87mil|YSize=59.06mil|CornerRadius=0mil|HoleSize=0mil|Usage=FLASHONLY|Rotation=337.000|XOffset=0mil|YOffset=0mil|HoleType=Round|Shape=Rectangle|*
%AMROTATEDRECTD42*
4,1,4,-0.04415,-0.01334,-0.02108,0.04103,0.04415,0.01334,0.02108,-0.04103,-0.04415,-0.01334,0.0*
%
%ADD42ROTATEDRECTD42*%

D13*
X120000Y348030D02*
D03*
Y351970D02*
D03*
X110000D02*
D03*
Y348030D02*
D03*
X130000Y351970D02*
D03*
Y348030D02*
D03*
X140000Y351970D02*
D03*
Y348030D02*
D03*
D14*
X622905Y403842D02*
D03*
X566016Y414079D02*
D03*
X306906Y225842D02*
D03*
X250016Y236079D02*
D03*
X232906Y363843D02*
D03*
X176016Y374079D02*
D03*
X380906Y383842D02*
D03*
X324016Y394079D02*
D03*
X306906Y373843D02*
D03*
X250016Y384079D02*
D03*
X232906Y437843D02*
D03*
X176016Y448079D02*
D03*
X306906Y447843D02*
D03*
X250016Y458079D02*
D03*
X380906Y457842D02*
D03*
X324016Y468079D02*
D03*
X454906Y447843D02*
D03*
X398016Y458079D02*
D03*
X106930Y126616D02*
D03*
X135657Y76456D02*
D03*
X158905Y289843D02*
D03*
X102016Y300079D02*
D03*
X232906Y289843D02*
D03*
X176016Y300079D02*
D03*
X306906Y299843D02*
D03*
X250016Y310079D02*
D03*
X216603Y143136D02*
D03*
X160236Y130330D02*
D03*
X306906Y151842D02*
D03*
X250016Y162079D02*
D03*
X232906Y215843D02*
D03*
X176016Y226079D02*
D03*
X380906Y235842D02*
D03*
X324016Y246079D02*
D03*
X528905Y337842D02*
D03*
X472016Y348079D02*
D03*
X454906Y373843D02*
D03*
X398016Y384079D02*
D03*
X454906Y225842D02*
D03*
X398016Y236079D02*
D03*
X528905Y189842D02*
D03*
X472016Y200079D02*
D03*
X392295Y118984D02*
D03*
X343927Y150635D02*
D03*
X380906Y309842D02*
D03*
X324016Y320079D02*
D03*
X454906Y299843D02*
D03*
X398016Y310079D02*
D03*
X528905Y411842D02*
D03*
X472016Y422079D02*
D03*
X566016Y340079D02*
D03*
X622905Y329842D02*
D03*
X528905Y263843D02*
D03*
X472016Y274079D02*
D03*
X566016Y266079D02*
D03*
X622905Y255842D02*
D03*
X566016Y191079D02*
D03*
X622905Y180842D02*
D03*
D15*
X120054Y377000D02*
D03*
X125959D02*
D03*
X126746Y386000D02*
D03*
X120841D02*
D03*
D31*
X157890Y440950D02*
D03*
Y450950D02*
D03*
Y410950D02*
D03*
Y400950D02*
D03*
Y430950D02*
D03*
Y420950D02*
D03*
X152776Y445950D02*
D03*
Y455950D02*
D03*
Y415950D02*
D03*
Y405950D02*
D03*
Y435950D02*
D03*
Y425950D02*
D03*
X157890Y360950D02*
D03*
Y370950D02*
D03*
Y390950D02*
D03*
Y380950D02*
D03*
Y350950D02*
D03*
Y340950D02*
D03*
X152776Y385950D02*
D03*
Y395950D02*
D03*
Y355950D02*
D03*
Y345950D02*
D03*
Y375950D02*
D03*
Y365950D02*
D03*
X97890Y450950D02*
D03*
Y440950D02*
D03*
Y410950D02*
D03*
Y400950D02*
D03*
Y430950D02*
D03*
Y420950D02*
D03*
X92776Y455950D02*
D03*
Y445950D02*
D03*
Y415950D02*
D03*
Y405950D02*
D03*
Y435950D02*
D03*
Y425950D02*
D03*
X97890Y370950D02*
D03*
Y390950D02*
D03*
Y380950D02*
D03*
Y350950D02*
D03*
Y340950D02*
D03*
Y360950D02*
D03*
X92776Y375950D02*
D03*
Y385950D02*
D03*
Y395950D02*
D03*
Y355950D02*
D03*
Y345950D02*
D03*
Y365950D02*
D03*
D32*
X160778Y162999D02*
D03*
X137222Y153000D02*
D03*
X148559Y208842D02*
D03*
Y189157D02*
D03*
X91472Y208842D02*
D03*
Y199000D02*
D03*
Y189157D02*
D03*
D33*
X74000Y181559D02*
D03*
Y169748D02*
D03*
Y154000D02*
D03*
X67110Y148094D02*
D03*
X57465D02*
D03*
X50575Y154000D02*
D03*
Y169748D02*
D03*
Y181559D02*
D03*
D34*
X118000Y407055D02*
D03*
Y418079D02*
D03*
X132000Y407055D02*
D03*
Y418079D02*
D03*
D35*
X120000Y327000D02*
D03*
X130000D02*
D03*
X110000D02*
D03*
X140000D02*
D03*
D36*
X189693Y385000D02*
D03*
X176307D02*
D03*
X332693Y405000D02*
D03*
X319307D02*
D03*
X306693Y395000D02*
D03*
X293307D02*
D03*
X332693Y417000D02*
D03*
X319307D02*
D03*
X306693Y407000D02*
D03*
X293307D02*
D03*
X184693Y397000D02*
D03*
X171307D02*
D03*
X258693Y259000D02*
D03*
X245307D02*
D03*
X258693Y173000D02*
D03*
X245307D02*
D03*
X185000Y249000D02*
D03*
X171614D02*
D03*
X158000D02*
D03*
X144614D02*
D03*
X157693Y237000D02*
D03*
X144307D02*
D03*
X185000D02*
D03*
X171614D02*
D03*
X258693Y247000D02*
D03*
X245307D02*
D03*
X333000Y257000D02*
D03*
X319614D02*
D03*
X480693Y359000D02*
D03*
X467307D02*
D03*
X406693Y395000D02*
D03*
X393307D02*
D03*
X407000Y247000D02*
D03*
X393614D02*
D03*
X481000Y211000D02*
D03*
X467614D02*
D03*
X407000Y259000D02*
D03*
X393614D02*
D03*
X333000Y269000D02*
D03*
X319614D02*
D03*
X406693Y407000D02*
D03*
X393307D02*
D03*
X480693Y371000D02*
D03*
X467307D02*
D03*
X623693Y363000D02*
D03*
X610307D02*
D03*
X623693Y351000D02*
D03*
X610307D02*
D03*
X481000Y223000D02*
D03*
X467614D02*
D03*
X622693Y215000D02*
D03*
X609307D02*
D03*
X622693Y202000D02*
D03*
X609307D02*
D03*
D37*
X237000Y391000D02*
D03*
X313000Y179000D02*
D03*
X117000Y155000D02*
D03*
X535000Y365000D02*
D03*
Y217000D02*
D03*
D38*
X210000Y317000D02*
D03*
X200157D02*
D03*
X190315D02*
D03*
D39*
X208161Y162615D02*
D03*
X195839Y157385D02*
D03*
D40*
X136302Y108873D02*
D03*
X127698Y119127D02*
D03*
D41*
X121000Y176953D02*
D03*
Y221047D02*
D03*
D42*
X356161Y157385D02*
D03*
X343839Y162615D02*
D03*
M02*
