G04*
G04 #@! TF.GenerationSoftware,Altium Limited,Altium Designer,21.0.8 (223)*
G04*
G04 Layer_Color=8421504*
%FSLAX25Y25*%
%MOIN*%
G70*
G04*
G04 #@! TF.SameCoordinates,55F9FECB-9F86-4C86-85E8-F8C18B1AF351*
G04*
G04*
G04 #@! TF.FilePolarity,Positive*
G04*
G01*
G75*
%ADD13R,0.04500X0.02500*%
%ADD14C,0.01968*%
%ADD15C,0.00394*%
D13*
X120000Y348030D02*
D03*
Y351970D02*
D03*
X110000D02*
D03*
Y348030D02*
D03*
X130000Y351970D02*
D03*
Y348030D02*
D03*
X140000Y351970D02*
D03*
Y348030D02*
D03*
D14*
X622905Y403842D02*
D03*
X566016Y414079D02*
D03*
X306906Y225842D02*
D03*
X250016Y236079D02*
D03*
X232906Y363843D02*
D03*
X176016Y374079D02*
D03*
X380906Y383842D02*
D03*
X324016Y394079D02*
D03*
X306906Y373843D02*
D03*
X250016Y384079D02*
D03*
X232906Y437843D02*
D03*
X176016Y448079D02*
D03*
X306906Y447843D02*
D03*
X250016Y458079D02*
D03*
X380906Y457842D02*
D03*
X324016Y468079D02*
D03*
X454906Y447843D02*
D03*
X398016Y458079D02*
D03*
X106930Y126616D02*
D03*
X135657Y76456D02*
D03*
X158905Y289843D02*
D03*
X102016Y300079D02*
D03*
X232906Y289843D02*
D03*
X176016Y300079D02*
D03*
X306906Y299843D02*
D03*
X250016Y310079D02*
D03*
X216603Y143136D02*
D03*
X160236Y130330D02*
D03*
X306906Y151842D02*
D03*
X250016Y162079D02*
D03*
X232906Y215843D02*
D03*
X176016Y226079D02*
D03*
X380906Y235842D02*
D03*
X324016Y246079D02*
D03*
X528905Y337842D02*
D03*
X472016Y348079D02*
D03*
X454906Y373843D02*
D03*
X398016Y384079D02*
D03*
X454906Y225842D02*
D03*
X398016Y236079D02*
D03*
X528905Y189842D02*
D03*
X472016Y200079D02*
D03*
X392295Y118984D02*
D03*
X343927Y150635D02*
D03*
X380906Y309842D02*
D03*
X324016Y320079D02*
D03*
X454906Y299843D02*
D03*
X398016Y310079D02*
D03*
X528905Y411842D02*
D03*
X472016Y422079D02*
D03*
X566016Y340079D02*
D03*
X622905Y329842D02*
D03*
X528905Y263843D02*
D03*
X472016Y274079D02*
D03*
X566016Y266079D02*
D03*
X622905Y255842D02*
D03*
X566016Y191079D02*
D03*
X622905Y180842D02*
D03*
D15*
X120054Y377000D02*
D03*
X125959D02*
D03*
X126746Y386000D02*
D03*
X120841D02*
D03*
M02*
