G04*
G04 #@! TF.GenerationSoftware,Altium Limited,Altium Designer,21.0.8 (223)*
G04*
G04 Layer_Color=2752767*
%FSLAX25Y25*%
%MOIN*%
G70*
G04*
G04 #@! TF.SameCoordinates,55F9FECB-9F86-4C86-85E8-F8C18B1AF351*
G04*
G04*
G04 #@! TF.FilePolarity,Positive*
G04*
G01*
G75*
%ADD48C,0.00200*%
%ADD49C,0.00267*%
%ADD50C,0.00133*%
D48*
X136422Y152200D02*
Y153800D01*
X138022D01*
Y152200D01*
X136422D01*
X159978Y162199D02*
Y163800D01*
X161578D01*
Y162199D01*
X159978D01*
X148559Y188357D02*
X147759Y189957D01*
X149359D01*
X148559Y188357D01*
Y208043D02*
X147759Y209643D01*
X149359D01*
X148559Y208043D01*
X91472Y188357D02*
X90672Y189957D01*
X92272D01*
X91472Y188357D01*
Y198200D02*
X90672Y199800D01*
X92272D01*
X91472Y198200D01*
Y208043D02*
X90672Y209643D01*
X92272D01*
X91472Y208043D01*
X343839Y161815D02*
X344239Y162215D01*
X344639D01*
X344239Y162615D01*
X344639Y163015D01*
X344239D01*
X343839Y163415D01*
X343439Y163015D01*
X343039D01*
X343439Y162615D01*
X343039Y162215D01*
X343439D01*
X343839Y161815D01*
X356161Y156585D02*
X356561Y156985D01*
X356961D01*
X356561Y157385D01*
X356961Y157785D01*
X356561D01*
X356161Y158185D01*
X355761Y157785D01*
X355361D01*
X355761Y157385D01*
X355361Y156985D01*
X355761D01*
X356161Y156585D01*
X245307Y172200D02*
X245707Y172600D01*
X246107D01*
X245707Y173000D01*
X246107Y173400D01*
X245707D01*
X245307Y173800D01*
X244907Y173400D01*
X244507D01*
X244907Y173000D01*
X244507Y172600D01*
X244907D01*
X245307Y172200D01*
X258693D02*
X259093Y172600D01*
X259493D01*
X259093Y173000D01*
X259493Y173400D01*
X259093D01*
X258693Y173800D01*
X258293Y173400D01*
X257893D01*
X258293Y173000D01*
X257893Y172600D01*
X258293D01*
X258693Y172200D01*
X195839Y156585D02*
X196239Y156985D01*
X196639D01*
X196239Y157385D01*
X196639Y157785D01*
X196239D01*
X195839Y158185D01*
X195439Y157785D01*
X195039D01*
X195439Y157385D01*
X195039Y156985D01*
X195439D01*
X195839Y156585D01*
X208161Y161815D02*
X208561Y162215D01*
X208961D01*
X208561Y162615D01*
X208961Y163015D01*
X208561D01*
X208161Y163415D01*
X207761Y163015D01*
X207361D01*
X207761Y162615D01*
X207361Y162215D01*
X207761D01*
X208161Y161815D01*
X127698Y118327D02*
X128098Y118727D01*
X128498D01*
X128098Y119127D01*
X128498Y119527D01*
X128098D01*
X127698Y119927D01*
X127298Y119527D01*
X126898D01*
X127298Y119127D01*
X126898Y118727D01*
X127298D01*
X127698Y118327D01*
X136302Y108073D02*
X136702Y108473D01*
X137102D01*
X136702Y108873D01*
X137102Y109273D01*
X136702D01*
X136302Y109673D01*
X135902Y109273D01*
X135502D01*
X135902Y108873D01*
X135502Y108473D01*
X135902D01*
X136302Y108073D01*
X144307Y236200D02*
X144707Y236600D01*
X145107D01*
X144707Y237000D01*
X145107Y237400D01*
X144707D01*
X144307Y237800D01*
X143907Y237400D01*
X143507D01*
X143907Y237000D01*
X143507Y236600D01*
X143907D01*
X144307Y236200D01*
X157693D02*
X158093Y236600D01*
X158493D01*
X158093Y237000D01*
X158493Y237400D01*
X158093D01*
X157693Y237800D01*
X157293Y237400D01*
X156893D01*
X157293Y237000D01*
X156893Y236600D01*
X157293D01*
X157693Y236200D01*
X144614Y248200D02*
X145014Y248600D01*
X145414D01*
X145014Y249000D01*
X145414Y249400D01*
X145014D01*
X144614Y249800D01*
X144214Y249400D01*
X143814D01*
X144214Y249000D01*
X143814Y248600D01*
X144214D01*
X144614Y248200D01*
X158000D02*
X158400Y248600D01*
X158800D01*
X158400Y249000D01*
X158800Y249400D01*
X158400D01*
X158000Y249800D01*
X157600Y249400D01*
X157200D01*
X157600Y249000D01*
X157200Y248600D01*
X157600D01*
X158000Y248200D01*
X609307Y201200D02*
X609707Y201600D01*
X610107D01*
X609707Y202000D01*
X610107Y202400D01*
X609707D01*
X609307Y202800D01*
X608907Y202400D01*
X608507D01*
X608907Y202000D01*
X608507Y201600D01*
X608907D01*
X609307Y201200D01*
X622693D02*
X623093Y201600D01*
X623493D01*
X623093Y202000D01*
X623493Y202400D01*
X623093D01*
X622693Y202800D01*
X622293Y202400D01*
X621893D01*
X622293Y202000D01*
X621893Y201600D01*
X622293D01*
X622693Y201200D01*
X467614Y210200D02*
X468014Y210600D01*
X468414D01*
X468014Y211000D01*
X468414Y211400D01*
X468014D01*
X467614Y211800D01*
X467214Y211400D01*
X466814D01*
X467214Y211000D01*
X466814Y210600D01*
X467214D01*
X467614Y210200D01*
X481000D02*
X481400Y210600D01*
X481800D01*
X481400Y211000D01*
X481800Y211400D01*
X481400D01*
X481000Y211800D01*
X480600Y211400D01*
X480200D01*
X480600Y211000D01*
X480200Y210600D01*
X480600D01*
X481000Y210200D01*
X393614Y246200D02*
X394014Y246600D01*
X394414D01*
X394014Y247000D01*
X394414Y247400D01*
X394014D01*
X393614Y247800D01*
X393214Y247400D01*
X392814D01*
X393214Y247000D01*
X392814Y246600D01*
X393214D01*
X393614Y246200D01*
X407000D02*
X407400Y246600D01*
X407800D01*
X407400Y247000D01*
X407800Y247400D01*
X407400D01*
X407000Y247800D01*
X406600Y247400D01*
X406200D01*
X406600Y247000D01*
X406200Y246600D01*
X406600D01*
X407000Y246200D01*
X319614Y256200D02*
X320014Y256600D01*
X320414D01*
X320014Y257000D01*
X320414Y257400D01*
X320014D01*
X319614Y257800D01*
X319214Y257400D01*
X318814D01*
X319214Y257000D01*
X318814Y256600D01*
X319214D01*
X319614Y256200D01*
X333000D02*
X333400Y256600D01*
X333800D01*
X333400Y257000D01*
X333800Y257400D01*
X333400D01*
X333000Y257800D01*
X332600Y257400D01*
X332200D01*
X332600Y257000D01*
X332200Y256600D01*
X332600D01*
X333000Y256200D01*
X245307Y246200D02*
X245707Y246600D01*
X246107D01*
X245707Y247000D01*
X246107Y247400D01*
X245707D01*
X245307Y247800D01*
X244907Y247400D01*
X244507D01*
X244907Y247000D01*
X244507Y246600D01*
X244907D01*
X245307Y246200D01*
X258693D02*
X259093Y246600D01*
X259493D01*
X259093Y247000D01*
X259493Y247400D01*
X259093D01*
X258693Y247800D01*
X258293Y247400D01*
X257893D01*
X258293Y247000D01*
X257893Y246600D01*
X258293D01*
X258693Y246200D01*
X171614Y236200D02*
X172014Y236600D01*
X172414D01*
X172014Y237000D01*
X172414Y237400D01*
X172014D01*
X171614Y237800D01*
X171214Y237400D01*
X170814D01*
X171214Y237000D01*
X170814Y236600D01*
X171214D01*
X171614Y236200D01*
X185000D02*
X185400Y236600D01*
X185800D01*
X185400Y237000D01*
X185800Y237400D01*
X185400D01*
X185000Y237800D01*
X184600Y237400D01*
X184200D01*
X184600Y237000D01*
X184200Y236600D01*
X184600D01*
X185000Y236200D01*
X609307Y214200D02*
X609707Y214600D01*
X610107D01*
X609707Y215000D01*
X610107Y215400D01*
X609707D01*
X609307Y215800D01*
X608907Y215400D01*
X608507D01*
X608907Y215000D01*
X608507Y214600D01*
X608907D01*
X609307Y214200D01*
X622693D02*
X623093Y214600D01*
X623493D01*
X623093Y215000D01*
X623493Y215400D01*
X623093D01*
X622693Y215800D01*
X622293Y215400D01*
X621893D01*
X622293Y215000D01*
X621893Y214600D01*
X622293D01*
X622693Y214200D01*
X467614Y222200D02*
X468014Y222600D01*
X468414D01*
X468014Y223000D01*
X468414Y223400D01*
X468014D01*
X467614Y223800D01*
X467214Y223400D01*
X466814D01*
X467214Y223000D01*
X466814Y222600D01*
X467214D01*
X467614Y222200D01*
X481000D02*
X481400Y222600D01*
X481800D01*
X481400Y223000D01*
X481800Y223400D01*
X481400D01*
X481000Y223800D01*
X480600Y223400D01*
X480200D01*
X480600Y223000D01*
X480200Y222600D01*
X480600D01*
X481000Y222200D01*
X393614Y258200D02*
X394014Y258600D01*
X394414D01*
X394014Y259000D01*
X394414Y259400D01*
X394014D01*
X393614Y259800D01*
X393214Y259400D01*
X392814D01*
X393214Y259000D01*
X392814Y258600D01*
X393214D01*
X393614Y258200D01*
X407000D02*
X407400Y258600D01*
X407800D01*
X407400Y259000D01*
X407800Y259400D01*
X407400D01*
X407000Y259800D01*
X406600Y259400D01*
X406200D01*
X406600Y259000D01*
X406200Y258600D01*
X406600D01*
X407000Y258200D01*
X319614Y268200D02*
X320014Y268600D01*
X320414D01*
X320014Y269000D01*
X320414Y269400D01*
X320014D01*
X319614Y269800D01*
X319214Y269400D01*
X318814D01*
X319214Y269000D01*
X318814Y268600D01*
X319214D01*
X319614Y268200D01*
X333000D02*
X333400Y268600D01*
X333800D01*
X333400Y269000D01*
X333800Y269400D01*
X333400D01*
X333000Y269800D01*
X332600Y269400D01*
X332200D01*
X332600Y269000D01*
X332200Y268600D01*
X332600D01*
X333000Y268200D01*
X245307Y258200D02*
X245707Y258600D01*
X246107D01*
X245707Y259000D01*
X246107Y259400D01*
X245707D01*
X245307Y259800D01*
X244907Y259400D01*
X244507D01*
X244907Y259000D01*
X244507Y258600D01*
X244907D01*
X245307Y258200D01*
X258693D02*
X259093Y258600D01*
X259493D01*
X259093Y259000D01*
X259493Y259400D01*
X259093D01*
X258693Y259800D01*
X258293Y259400D01*
X257893D01*
X258293Y259000D01*
X257893Y258600D01*
X258293D01*
X258693Y258200D01*
X171614Y248200D02*
X172014Y248600D01*
X172414D01*
X172014Y249000D01*
X172414Y249400D01*
X172014D01*
X171614Y249800D01*
X171214Y249400D01*
X170814D01*
X171214Y249000D01*
X170814Y248600D01*
X171214D01*
X171614Y248200D01*
X185000D02*
X185400Y248600D01*
X185800D01*
X185400Y249000D01*
X185800Y249400D01*
X185400D01*
X185000Y249800D01*
X184600Y249400D01*
X184200D01*
X184600Y249000D01*
X184200Y248600D01*
X184600D01*
X185000Y248200D01*
X610307Y350200D02*
X610707Y350600D01*
X611107D01*
X610707Y351000D01*
X611107Y351400D01*
X610707D01*
X610307Y351800D01*
X609907Y351400D01*
X609507D01*
X609907Y351000D01*
X609507Y350600D01*
X609907D01*
X610307Y350200D01*
X623693D02*
X624093Y350600D01*
X624493D01*
X624093Y351000D01*
X624493Y351400D01*
X624093D01*
X623693Y351800D01*
X623293Y351400D01*
X622893D01*
X623293Y351000D01*
X622893Y350600D01*
X623293D01*
X623693Y350200D01*
X467307Y358200D02*
X467707Y358600D01*
X468107D01*
X467707Y359000D01*
X468107Y359400D01*
X467707D01*
X467307Y359800D01*
X466907Y359400D01*
X466507D01*
X466907Y359000D01*
X466507Y358600D01*
X466907D01*
X467307Y358200D01*
X480693D02*
X481093Y358600D01*
X481493D01*
X481093Y359000D01*
X481493Y359400D01*
X481093D01*
X480693Y359800D01*
X480293Y359400D01*
X479893D01*
X480293Y359000D01*
X479893Y358600D01*
X480293D01*
X480693Y358200D01*
X393307Y394200D02*
X393707Y394600D01*
X394107D01*
X393707Y395000D01*
X394107Y395400D01*
X393707D01*
X393307Y395800D01*
X392907Y395400D01*
X392507D01*
X392907Y395000D01*
X392507Y394600D01*
X392907D01*
X393307Y394200D01*
X406693D02*
X407093Y394600D01*
X407493D01*
X407093Y395000D01*
X407493Y395400D01*
X407093D01*
X406693Y395800D01*
X406293Y395400D01*
X405893D01*
X406293Y395000D01*
X405893Y394600D01*
X406293D01*
X406693Y394200D01*
X319307Y404200D02*
X319707Y404600D01*
X320107D01*
X319707Y405000D01*
X320107Y405400D01*
X319707D01*
X319307Y405800D01*
X318907Y405400D01*
X318507D01*
X318907Y405000D01*
X318507Y404600D01*
X318907D01*
X319307Y404200D01*
X332693D02*
X333093Y404600D01*
X333493D01*
X333093Y405000D01*
X333493Y405400D01*
X333093D01*
X332693Y405800D01*
X332293Y405400D01*
X331893D01*
X332293Y405000D01*
X331893Y404600D01*
X332293D01*
X332693Y404200D01*
X293307Y394200D02*
X293707Y394600D01*
X294107D01*
X293707Y395000D01*
X294107Y395400D01*
X293707D01*
X293307Y395800D01*
X292907Y395400D01*
X292507D01*
X292907Y395000D01*
X292507Y394600D01*
X292907D01*
X293307Y394200D01*
X306693D02*
X307093Y394600D01*
X307493D01*
X307093Y395000D01*
X307493Y395400D01*
X307093D01*
X306693Y395800D01*
X306293Y395400D01*
X305893D01*
X306293Y395000D01*
X305893Y394600D01*
X306293D01*
X306693Y394200D01*
X176307Y384200D02*
X176707Y384600D01*
X177107D01*
X176707Y385000D01*
X177107Y385400D01*
X176707D01*
X176307Y385800D01*
X175907Y385400D01*
X175507D01*
X175907Y385000D01*
X175507Y384600D01*
X175907D01*
X176307Y384200D01*
X189693D02*
X190093Y384600D01*
X190493D01*
X190093Y385000D01*
X190493Y385400D01*
X190093D01*
X189693Y385800D01*
X189293Y385400D01*
X188893D01*
X189293Y385000D01*
X188893Y384600D01*
X189293D01*
X189693Y384200D01*
X610307Y362200D02*
X610707Y362600D01*
X611107D01*
X610707Y363000D01*
X611107Y363400D01*
X610707D01*
X610307Y363800D01*
X609907Y363400D01*
X609507D01*
X609907Y363000D01*
X609507Y362600D01*
X609907D01*
X610307Y362200D01*
X623693D02*
X624093Y362600D01*
X624493D01*
X624093Y363000D01*
X624493Y363400D01*
X624093D01*
X623693Y363800D01*
X623293Y363400D01*
X622893D01*
X623293Y363000D01*
X622893Y362600D01*
X623293D01*
X623693Y362200D01*
X467307Y370200D02*
X467707Y370600D01*
X468107D01*
X467707Y371000D01*
X468107Y371400D01*
X467707D01*
X467307Y371800D01*
X466907Y371400D01*
X466507D01*
X466907Y371000D01*
X466507Y370600D01*
X466907D01*
X467307Y370200D01*
X480693D02*
X481093Y370600D01*
X481493D01*
X481093Y371000D01*
X481493Y371400D01*
X481093D01*
X480693Y371800D01*
X480293Y371400D01*
X479893D01*
X480293Y371000D01*
X479893Y370600D01*
X480293D01*
X480693Y370200D01*
X393307Y406200D02*
X393707Y406600D01*
X394107D01*
X393707Y407000D01*
X394107Y407400D01*
X393707D01*
X393307Y407800D01*
X392907Y407400D01*
X392507D01*
X392907Y407000D01*
X392507Y406600D01*
X392907D01*
X393307Y406200D01*
X406693D02*
X407093Y406600D01*
X407493D01*
X407093Y407000D01*
X407493Y407400D01*
X407093D01*
X406693Y407800D01*
X406293Y407400D01*
X405893D01*
X406293Y407000D01*
X405893Y406600D01*
X406293D01*
X406693Y406200D01*
X319307Y416200D02*
X319707Y416600D01*
X320107D01*
X319707Y417000D01*
X320107Y417400D01*
X319707D01*
X319307Y417800D01*
X318907Y417400D01*
X318507D01*
X318907Y417000D01*
X318507Y416600D01*
X318907D01*
X319307Y416200D01*
X332693D02*
X333093Y416600D01*
X333493D01*
X333093Y417000D01*
X333493Y417400D01*
X333093D01*
X332693Y417800D01*
X332293Y417400D01*
X331893D01*
X332293Y417000D01*
X331893Y416600D01*
X332293D01*
X332693Y416200D01*
X293307Y406200D02*
X293707Y406600D01*
X294107D01*
X293707Y407000D01*
X294107Y407400D01*
X293707D01*
X293307Y407800D01*
X292907Y407400D01*
X292507D01*
X292907Y407000D01*
X292507Y406600D01*
X292907D01*
X293307Y406200D01*
X306693D02*
X307093Y406600D01*
X307493D01*
X307093Y407000D01*
X307493Y407400D01*
X307093D01*
X306693Y407800D01*
X306293Y407400D01*
X305893D01*
X306293Y407000D01*
X305893Y406600D01*
X306293D01*
X306693Y406200D01*
X171307Y396200D02*
X171707Y396600D01*
X172107D01*
X171707Y397000D01*
X172107Y397400D01*
X171707D01*
X171307Y397800D01*
X170907Y397400D01*
X170507D01*
X170907Y397000D01*
X170507Y396600D01*
X170907D01*
X171307Y396200D01*
X184693D02*
X185093Y396600D01*
X185493D01*
X185093Y397000D01*
X185493Y397400D01*
X185093D01*
X184693Y397800D01*
X184293Y397400D01*
X183893D01*
X184293Y397000D01*
X183893Y396600D01*
X184293D01*
X184693Y396200D01*
X157090Y440150D02*
X157490Y440950D01*
X157090Y441750D01*
X157890Y441350D01*
X158690Y441750D01*
X158290Y440950D01*
X158690Y440150D01*
X157890Y440550D01*
X157090Y440150D01*
Y450150D02*
X157490Y450950D01*
X157090Y451750D01*
X157890Y451350D01*
X158690Y451750D01*
X158290Y450950D01*
X158690Y450150D01*
X157890Y450550D01*
X157090Y450150D01*
Y410150D02*
X157490Y410950D01*
X157090Y411750D01*
X157890Y411350D01*
X158690Y411750D01*
X158290Y410950D01*
X158690Y410150D01*
X157890Y410550D01*
X157090Y410150D01*
Y400150D02*
X157490Y400950D01*
X157090Y401750D01*
X157890Y401350D01*
X158690Y401750D01*
X158290Y400950D01*
X158690Y400150D01*
X157890Y400550D01*
X157090Y400150D01*
Y430150D02*
X157490Y430950D01*
X157090Y431750D01*
X157890Y431350D01*
X158690Y431750D01*
X158290Y430950D01*
X158690Y430150D01*
X157890Y430550D01*
X157090Y430150D01*
Y420150D02*
X157490Y420950D01*
X157090Y421750D01*
X157890Y421350D01*
X158690Y421750D01*
X158290Y420950D01*
X158690Y420150D01*
X157890Y420550D01*
X157090Y420150D01*
X151976Y445150D02*
X152376Y445950D01*
X151976Y446750D01*
X152776Y446350D01*
X153576Y446750D01*
X153176Y445950D01*
X153576Y445150D01*
X152776Y445550D01*
X151976Y445150D01*
Y455150D02*
X152376Y455950D01*
X151976Y456750D01*
X152776Y456350D01*
X153576Y456750D01*
X153176Y455950D01*
X153576Y455150D01*
X152776Y455550D01*
X151976Y455150D01*
Y415150D02*
X152376Y415950D01*
X151976Y416750D01*
X152776Y416350D01*
X153576Y416750D01*
X153176Y415950D01*
X153576Y415150D01*
X152776Y415550D01*
X151976Y415150D01*
Y405150D02*
X152376Y405950D01*
X151976Y406750D01*
X152776Y406350D01*
X153576Y406750D01*
X153176Y405950D01*
X153576Y405150D01*
X152776Y405550D01*
X151976Y405150D01*
Y435150D02*
X152376Y435950D01*
X151976Y436750D01*
X152776Y436350D01*
X153576Y436750D01*
X153176Y435950D01*
X153576Y435150D01*
X152776Y435550D01*
X151976Y435150D01*
Y425150D02*
X152376Y425950D01*
X151976Y426750D01*
X152776Y426350D01*
X153576Y426750D01*
X153176Y425950D01*
X153576Y425150D01*
X152776Y425550D01*
X151976Y425150D01*
X157090Y360150D02*
X157490Y360950D01*
X157090Y361750D01*
X157890Y361350D01*
X158690Y361750D01*
X158290Y360950D01*
X158690Y360150D01*
X157890Y360550D01*
X157090Y360150D01*
Y370150D02*
X157490Y370950D01*
X157090Y371750D01*
X157890Y371350D01*
X158690Y371750D01*
X158290Y370950D01*
X158690Y370150D01*
X157890Y370550D01*
X157090Y370150D01*
Y390150D02*
X157490Y390950D01*
X157090Y391750D01*
X157890Y391350D01*
X158690Y391750D01*
X158290Y390950D01*
X158690Y390150D01*
X157890Y390550D01*
X157090Y390150D01*
Y380150D02*
X157490Y380950D01*
X157090Y381750D01*
X157890Y381350D01*
X158690Y381750D01*
X158290Y380950D01*
X158690Y380150D01*
X157890Y380550D01*
X157090Y380150D01*
Y350150D02*
X157490Y350950D01*
X157090Y351750D01*
X157890Y351350D01*
X158690Y351750D01*
X158290Y350950D01*
X158690Y350150D01*
X157890Y350550D01*
X157090Y350150D01*
Y340150D02*
X157490Y340950D01*
X157090Y341750D01*
X157890Y341350D01*
X158690Y341750D01*
X158290Y340950D01*
X158690Y340150D01*
X157890Y340550D01*
X157090Y340150D01*
X151976Y385150D02*
X152376Y385950D01*
X151976Y386750D01*
X152776Y386350D01*
X153576Y386750D01*
X153176Y385950D01*
X153576Y385150D01*
X152776Y385550D01*
X151976Y385150D01*
Y395150D02*
X152376Y395950D01*
X151976Y396750D01*
X152776Y396350D01*
X153576Y396750D01*
X153176Y395950D01*
X153576Y395150D01*
X152776Y395550D01*
X151976Y395150D01*
Y355150D02*
X152376Y355950D01*
X151976Y356750D01*
X152776Y356350D01*
X153576Y356750D01*
X153176Y355950D01*
X153576Y355150D01*
X152776Y355550D01*
X151976Y355150D01*
Y345150D02*
X152376Y345950D01*
X151976Y346750D01*
X152776Y346350D01*
X153576Y346750D01*
X153176Y345950D01*
X153576Y345150D01*
X152776Y345550D01*
X151976Y345150D01*
Y375150D02*
X152376Y375950D01*
X151976Y376750D01*
X152776Y376350D01*
X153576Y376750D01*
X153176Y375950D01*
X153576Y375150D01*
X152776Y375550D01*
X151976Y375150D01*
Y365150D02*
X152376Y365950D01*
X151976Y366750D01*
X152776Y366350D01*
X153576Y366750D01*
X153176Y365950D01*
X153576Y365150D01*
X152776Y365550D01*
X151976Y365150D01*
X97090Y450150D02*
X97490Y450950D01*
X97090Y451750D01*
X97890Y451350D01*
X98690Y451750D01*
X98290Y450950D01*
X98690Y450150D01*
X97890Y450550D01*
X97090Y450150D01*
Y440150D02*
X97490Y440950D01*
X97090Y441750D01*
X97890Y441350D01*
X98690Y441750D01*
X98290Y440950D01*
X98690Y440150D01*
X97890Y440550D01*
X97090Y440150D01*
Y410150D02*
X97490Y410950D01*
X97090Y411750D01*
X97890Y411350D01*
X98690Y411750D01*
X98290Y410950D01*
X98690Y410150D01*
X97890Y410550D01*
X97090Y410150D01*
Y400150D02*
X97490Y400950D01*
X97090Y401750D01*
X97890Y401350D01*
X98690Y401750D01*
X98290Y400950D01*
X98690Y400150D01*
X97890Y400550D01*
X97090Y400150D01*
Y430150D02*
X97490Y430950D01*
X97090Y431750D01*
X97890Y431350D01*
X98690Y431750D01*
X98290Y430950D01*
X98690Y430150D01*
X97890Y430550D01*
X97090Y430150D01*
Y420150D02*
X97490Y420950D01*
X97090Y421750D01*
X97890Y421350D01*
X98690Y421750D01*
X98290Y420950D01*
X98690Y420150D01*
X97890Y420550D01*
X97090Y420150D01*
X91976Y455150D02*
X92376Y455950D01*
X91976Y456750D01*
X92776Y456350D01*
X93576Y456750D01*
X93176Y455950D01*
X93576Y455150D01*
X92776Y455550D01*
X91976Y455150D01*
Y445150D02*
X92376Y445950D01*
X91976Y446750D01*
X92776Y446350D01*
X93576Y446750D01*
X93176Y445950D01*
X93576Y445150D01*
X92776Y445550D01*
X91976Y445150D01*
Y415150D02*
X92376Y415950D01*
X91976Y416750D01*
X92776Y416350D01*
X93576Y416750D01*
X93176Y415950D01*
X93576Y415150D01*
X92776Y415550D01*
X91976Y415150D01*
Y405150D02*
X92376Y405950D01*
X91976Y406750D01*
X92776Y406350D01*
X93576Y406750D01*
X93176Y405950D01*
X93576Y405150D01*
X92776Y405550D01*
X91976Y405150D01*
Y435150D02*
X92376Y435950D01*
X91976Y436750D01*
X92776Y436350D01*
X93576Y436750D01*
X93176Y435950D01*
X93576Y435150D01*
X92776Y435550D01*
X91976Y435150D01*
Y425150D02*
X92376Y425950D01*
X91976Y426750D01*
X92776Y426350D01*
X93576Y426750D01*
X93176Y425950D01*
X93576Y425150D01*
X92776Y425550D01*
X91976Y425150D01*
X97090Y370150D02*
X97490Y370950D01*
X97090Y371750D01*
X97890Y371350D01*
X98690Y371750D01*
X98290Y370950D01*
X98690Y370150D01*
X97890Y370550D01*
X97090Y370150D01*
Y390150D02*
X97490Y390950D01*
X97090Y391750D01*
X97890Y391350D01*
X98690Y391750D01*
X98290Y390950D01*
X98690Y390150D01*
X97890Y390550D01*
X97090Y390150D01*
Y380150D02*
X97490Y380950D01*
X97090Y381750D01*
X97890Y381350D01*
X98690Y381750D01*
X98290Y380950D01*
X98690Y380150D01*
X97890Y380550D01*
X97090Y380150D01*
Y350150D02*
X97490Y350950D01*
X97090Y351750D01*
X97890Y351350D01*
X98690Y351750D01*
X98290Y350950D01*
X98690Y350150D01*
X97890Y350550D01*
X97090Y350150D01*
Y340150D02*
X97490Y340950D01*
X97090Y341750D01*
X97890Y341350D01*
X98690Y341750D01*
X98290Y340950D01*
X98690Y340150D01*
X97890Y340550D01*
X97090Y340150D01*
Y360150D02*
X97490Y360950D01*
X97090Y361750D01*
X97890Y361350D01*
X98690Y361750D01*
X98290Y360950D01*
X98690Y360150D01*
X97890Y360550D01*
X97090Y360150D01*
X91976Y375150D02*
X92376Y375950D01*
X91976Y376750D01*
X92776Y376350D01*
X93576Y376750D01*
X93176Y375950D01*
X93576Y375150D01*
X92776Y375550D01*
X91976Y375150D01*
Y385150D02*
X92376Y385950D01*
X91976Y386750D01*
X92776Y386350D01*
X93576Y386750D01*
X93176Y385950D01*
X93576Y385150D01*
X92776Y385550D01*
X91976Y385150D01*
Y395150D02*
X92376Y395950D01*
X91976Y396750D01*
X92776Y396350D01*
X93576Y396750D01*
X93176Y395950D01*
X93576Y395150D01*
X92776Y395550D01*
X91976Y395150D01*
Y355150D02*
X92376Y355950D01*
X91976Y356750D01*
X92776Y356350D01*
X93576Y356750D01*
X93176Y355950D01*
X93576Y355150D01*
X92776Y355550D01*
X91976Y355150D01*
Y345150D02*
X92376Y345950D01*
X91976Y346750D01*
X92776Y346350D01*
X93576Y346750D01*
X93176Y345950D01*
X93576Y345150D01*
X92776Y345550D01*
X91976Y345150D01*
Y365150D02*
X92376Y365950D01*
X91976Y366750D01*
X92776Y366350D01*
X93576Y366750D01*
X93176Y365950D01*
X93576Y365150D01*
X92776Y365550D01*
X91976Y365150D01*
X591600Y393600D02*
Y393200D01*
X592400D01*
Y393600D01*
X592800D01*
Y394400D01*
X592400D01*
Y394800D01*
X591600D01*
Y394400D01*
X591200D01*
Y393600D01*
X591600D01*
X612853Y393200D02*
X613253D01*
X613654Y393600D01*
X614053Y393200D01*
X614454D01*
Y393600D01*
X614053Y394000D01*
X614454Y394400D01*
Y394800D01*
X614053D01*
X613654Y394400D01*
X613253Y394800D01*
X612853D01*
Y394400D01*
X613253Y394000D01*
X612853Y393600D01*
Y393200D01*
X569547D02*
X569946D01*
X570346Y393600D01*
X570747Y393200D01*
X571146D01*
Y393600D01*
X570747Y394000D01*
X571146Y394400D01*
Y394800D01*
X570747D01*
X570346Y394400D01*
X569946Y394800D01*
X569547D01*
Y394400D01*
X569946Y394000D01*
X569547Y393600D01*
Y393200D01*
X606200Y404000D02*
X607000Y404800D01*
X607800Y404000D01*
X607000Y403200D01*
X606200Y404000D01*
X576200D02*
X577000Y404800D01*
X577800Y404000D01*
X577000Y403200D01*
X576200Y404000D01*
X581200Y414000D02*
X582000Y414800D01*
X582800Y414000D01*
X582000Y413200D01*
X581200Y414000D01*
X601200D02*
X602000Y414800D01*
X602800Y414000D01*
X602000Y413200D01*
X601200Y414000D01*
X285200Y236000D02*
X286000Y236800D01*
X286800Y236000D01*
X286000Y235200D01*
X285200Y236000D01*
X265200D02*
X266000Y236800D01*
X266800Y236000D01*
X266000Y235200D01*
X265200Y236000D01*
X296853Y215200D02*
X297253D01*
X297654Y215600D01*
X298054Y215200D01*
X298453D01*
Y215600D01*
X298054Y216000D01*
X298453Y216400D01*
Y216800D01*
X298054D01*
X297654Y216400D01*
X297253Y216800D01*
X296853D01*
Y216400D01*
X297253Y216000D01*
X296853Y215600D01*
Y215200D01*
X290200Y226000D02*
X291000Y226800D01*
X291800Y226000D01*
X291000Y225200D01*
X290200Y226000D01*
X260200D02*
X261000Y226800D01*
X261800Y226000D01*
X261000Y225200D01*
X260200Y226000D01*
X275600Y215600D02*
Y215200D01*
X276400D01*
Y215600D01*
X276800D01*
Y216400D01*
X276400D01*
Y216800D01*
X275600D01*
Y216400D01*
X275200D01*
Y215600D01*
X275600D01*
X253547Y215200D02*
X253946D01*
X254346Y215600D01*
X254747Y215200D01*
X255147D01*
Y215600D01*
X254747Y216000D01*
X255147Y216400D01*
Y216800D01*
X254747D01*
X254346Y216400D01*
X253946Y216800D01*
X253547D01*
Y216400D01*
X253946Y216000D01*
X253547Y215600D01*
Y215200D01*
X64932Y160287D02*
Y161887D01*
X66532D01*
Y160287D01*
X64932D01*
X65332Y160687D02*
Y161487D01*
X66132D01*
Y160687D01*
X65332D01*
X58043Y160287D02*
Y161887D01*
X59642D01*
Y160287D01*
X58043D01*
X58442Y160687D02*
Y161487D01*
X59242D01*
Y160687D01*
X58442D01*
X64932Y187846D02*
Y189446D01*
X66532D01*
Y187846D01*
X64932D01*
X65332Y188246D02*
Y189046D01*
X66132D01*
Y188246D01*
X65332D01*
X58043Y187846D02*
Y189446D01*
X59642D01*
Y187846D01*
X58043D01*
X58442Y188246D02*
Y189046D01*
X59242D01*
Y188246D01*
X58442D01*
X118000Y406255D02*
X118400Y406655D01*
X118800D01*
X118400Y407055D01*
X118800Y407455D01*
X118400D01*
X118000Y407855D01*
X117600Y407455D01*
X117200D01*
X117600Y407055D01*
X117200Y406655D01*
X117600D01*
X118000Y406255D01*
Y417279D02*
X118400Y417679D01*
X118800D01*
X118400Y418079D01*
X118800Y418479D01*
X118400D01*
X118000Y418879D01*
X117600Y418479D01*
X117200D01*
X117600Y418079D01*
X117200Y417679D01*
X117600D01*
X118000Y417279D01*
X132000Y406255D02*
X132400Y406655D01*
X132800D01*
X132400Y407055D01*
X132800Y407455D01*
X132400D01*
X132000Y407855D01*
X131600Y407455D01*
X131200D01*
X131600Y407055D01*
X131200Y406655D01*
X131600D01*
X132000Y406255D01*
Y417279D02*
X132400Y417679D01*
X132800D01*
X132400Y418079D01*
X132800Y418479D01*
X132400D01*
X132000Y418879D01*
X131600Y418479D01*
X131200D01*
X131600Y418079D01*
X131200Y417679D01*
X131600D01*
X132000Y417279D01*
X119200Y326200D02*
X119600Y327000D01*
X119200Y327800D01*
X120000Y327400D01*
X120800Y327800D01*
X120400Y327000D01*
X120800Y326200D01*
X120000Y326600D01*
X119200Y326200D01*
X129200D02*
X129600Y327000D01*
X129200Y327800D01*
X130000Y327400D01*
X130800Y327800D01*
X130400Y327000D01*
X130800Y326200D01*
X130000Y326600D01*
X129200Y326200D01*
X109200D02*
X109600Y327000D01*
X109200Y327800D01*
X110000Y327400D01*
X110800Y327800D01*
X110400Y327000D01*
X110800Y326200D01*
X110000Y326600D01*
X109200Y326200D01*
X139200D02*
X139600Y327000D01*
X139200Y327800D01*
X140000Y327400D01*
X140800Y327800D01*
X140400Y327000D01*
X140800Y326200D01*
X140000Y326600D01*
X139200Y326200D01*
X201600Y353600D02*
Y353200D01*
X202400D01*
Y353600D01*
X202800D01*
Y354400D01*
X202400D01*
Y354800D01*
X201600D01*
Y354400D01*
X201200D01*
Y353600D01*
X201600D01*
X222853Y353200D02*
X223253D01*
X223654Y353600D01*
X224054Y353200D01*
X224453D01*
Y353600D01*
X224054Y354000D01*
X224453Y354400D01*
Y354800D01*
X224054D01*
X223654Y354400D01*
X223253Y354800D01*
X222853D01*
Y354400D01*
X223253Y354000D01*
X222853Y353600D01*
Y353200D01*
X179546D02*
X179946D01*
X180347Y353600D01*
X180746Y353200D01*
X181147D01*
Y353600D01*
X180746Y354000D01*
X181147Y354400D01*
Y354800D01*
X180746D01*
X180347Y354400D01*
X179946Y354800D01*
X179546D01*
Y354400D01*
X179946Y354000D01*
X179546Y353600D01*
Y353200D01*
X216200Y364000D02*
X217000Y364800D01*
X217800Y364000D01*
X217000Y363200D01*
X216200Y364000D01*
X186200D02*
X187000Y364800D01*
X187800Y364000D01*
X187000Y363200D01*
X186200Y364000D01*
X191200Y374000D02*
X192000Y374800D01*
X192800Y374000D01*
X192000Y373200D01*
X191200Y374000D01*
X211200D02*
X212000Y374800D01*
X212800Y374000D01*
X212000Y373200D01*
X211200Y374000D01*
X349600Y373600D02*
Y373200D01*
X350400D01*
Y373600D01*
X350800D01*
Y374400D01*
X350400D01*
Y374800D01*
X349600D01*
Y374400D01*
X349200D01*
Y373600D01*
X349600D01*
X370853Y373200D02*
X371253D01*
X371654Y373600D01*
X372054Y373200D01*
X372453D01*
Y373600D01*
X372054Y374000D01*
X372453Y374400D01*
Y374800D01*
X372054D01*
X371654Y374400D01*
X371253Y374800D01*
X370853D01*
Y374400D01*
X371253Y374000D01*
X370853Y373600D01*
Y373200D01*
X327547D02*
X327946D01*
X328346Y373600D01*
X328747Y373200D01*
X329147D01*
Y373600D01*
X328747Y374000D01*
X329147Y374400D01*
Y374800D01*
X328747D01*
X328346Y374400D01*
X327946Y374800D01*
X327547D01*
Y374400D01*
X327946Y374000D01*
X327547Y373600D01*
Y373200D01*
X364200Y384000D02*
X365000Y384800D01*
X365800Y384000D01*
X365000Y383200D01*
X364200Y384000D01*
X334200D02*
X335000Y384800D01*
X335800Y384000D01*
X335000Y383200D01*
X334200Y384000D01*
X339200Y394000D02*
X340000Y394800D01*
X340800Y394000D01*
X340000Y393200D01*
X339200Y394000D01*
X359200D02*
X360000Y394800D01*
X360800Y394000D01*
X360000Y393200D01*
X359200Y394000D01*
X275600Y363600D02*
Y363200D01*
X276400D01*
Y363600D01*
X276800D01*
Y364400D01*
X276400D01*
Y364800D01*
X275600D01*
Y364400D01*
X275200D01*
Y363600D01*
X275600D01*
X296853Y363200D02*
X297253D01*
X297654Y363600D01*
X298054Y363200D01*
X298453D01*
Y363600D01*
X298054Y364000D01*
X298453Y364400D01*
Y364800D01*
X298054D01*
X297654Y364400D01*
X297253Y364800D01*
X296853D01*
Y364400D01*
X297253Y364000D01*
X296853Y363600D01*
Y363200D01*
X253547D02*
X253946D01*
X254346Y363600D01*
X254747Y363200D01*
X255147D01*
Y363600D01*
X254747Y364000D01*
X255147Y364400D01*
Y364800D01*
X254747D01*
X254346Y364400D01*
X253946Y364800D01*
X253547D01*
Y364400D01*
X253946Y364000D01*
X253547Y363600D01*
Y363200D01*
X290200Y374000D02*
X291000Y374800D01*
X291800Y374000D01*
X291000Y373200D01*
X290200Y374000D01*
X260200D02*
X261000Y374800D01*
X261800Y374000D01*
X261000Y373200D01*
X260200Y374000D01*
X265200Y384000D02*
X266000Y384800D01*
X266800Y384000D01*
X266000Y383200D01*
X265200Y384000D01*
X285200D02*
X286000Y384800D01*
X286800Y384000D01*
X286000Y383200D01*
X285200Y384000D01*
X237000Y390200D02*
X236200Y391800D01*
X237800D01*
X237000Y390200D01*
Y390600D02*
X236600Y391400D01*
X237400D01*
X237000Y390600D01*
X201600Y427600D02*
Y427200D01*
X202400D01*
Y427600D01*
X202800D01*
Y428400D01*
X202400D01*
Y428800D01*
X201600D01*
Y428400D01*
X201200D01*
Y427600D01*
X201600D01*
X222853Y427200D02*
X223253D01*
X223654Y427600D01*
X224054Y427200D01*
X224453D01*
Y427600D01*
X224054Y428000D01*
X224453Y428400D01*
Y428800D01*
X224054D01*
X223654Y428400D01*
X223253Y428800D01*
X222853D01*
Y428400D01*
X223253Y428000D01*
X222853Y427600D01*
Y427200D01*
X179546D02*
X179946D01*
X180347Y427600D01*
X180746Y427200D01*
X181147D01*
Y427600D01*
X180746Y428000D01*
X181147Y428400D01*
Y428800D01*
X180746D01*
X180347Y428400D01*
X179946Y428800D01*
X179546D01*
Y428400D01*
X179946Y428000D01*
X179546Y427600D01*
Y427200D01*
X216200Y438000D02*
X217000Y438800D01*
X217800Y438000D01*
X217000Y437200D01*
X216200Y438000D01*
X186200D02*
X187000Y438800D01*
X187800Y438000D01*
X187000Y437200D01*
X186200Y438000D01*
X191200Y448000D02*
X192000Y448800D01*
X192800Y448000D01*
X192000Y447200D01*
X191200Y448000D01*
X211200D02*
X212000Y448800D01*
X212800Y448000D01*
X212000Y447200D01*
X211200Y448000D01*
X275600Y437600D02*
Y437200D01*
X276400D01*
Y437600D01*
X276800D01*
Y438400D01*
X276400D01*
Y438800D01*
X275600D01*
Y438400D01*
X275200D01*
Y437600D01*
X275600D01*
X296853Y437200D02*
X297253D01*
X297654Y437600D01*
X298054Y437200D01*
X298453D01*
Y437600D01*
X298054Y438000D01*
X298453Y438400D01*
Y438800D01*
X298054D01*
X297654Y438400D01*
X297253Y438800D01*
X296853D01*
Y438400D01*
X297253Y438000D01*
X296853Y437600D01*
Y437200D01*
X253547D02*
X253946D01*
X254346Y437600D01*
X254747Y437200D01*
X255147D01*
Y437600D01*
X254747Y438000D01*
X255147Y438400D01*
Y438800D01*
X254747D01*
X254346Y438400D01*
X253946Y438800D01*
X253547D01*
Y438400D01*
X253946Y438000D01*
X253547Y437600D01*
Y437200D01*
X290200Y448000D02*
X291000Y448800D01*
X291800Y448000D01*
X291000Y447200D01*
X290200Y448000D01*
X260200D02*
X261000Y448800D01*
X261800Y448000D01*
X261000Y447200D01*
X260200Y448000D01*
X265200Y458000D02*
X266000Y458800D01*
X266800Y458000D01*
X266000Y457200D01*
X265200Y458000D01*
X285200D02*
X286000Y458800D01*
X286800Y458000D01*
X286000Y457200D01*
X285200Y458000D01*
X349600Y447600D02*
Y447200D01*
X350400D01*
Y447600D01*
X350800D01*
Y448400D01*
X350400D01*
Y448800D01*
X349600D01*
Y448400D01*
X349200D01*
Y447600D01*
X349600D01*
X370853Y447200D02*
X371253D01*
X371654Y447600D01*
X372054Y447200D01*
X372453D01*
Y447600D01*
X372054Y448000D01*
X372453Y448400D01*
Y448800D01*
X372054D01*
X371654Y448400D01*
X371253Y448800D01*
X370853D01*
Y448400D01*
X371253Y448000D01*
X370853Y447600D01*
Y447200D01*
X327547D02*
X327946D01*
X328346Y447600D01*
X328747Y447200D01*
X329147D01*
Y447600D01*
X328747Y448000D01*
X329147Y448400D01*
Y448800D01*
X328747D01*
X328346Y448400D01*
X327946Y448800D01*
X327547D01*
Y448400D01*
X327946Y448000D01*
X327547Y447600D01*
Y447200D01*
X364200Y458000D02*
X365000Y458800D01*
X365800Y458000D01*
X365000Y457200D01*
X364200Y458000D01*
X334200D02*
X335000Y458800D01*
X335800Y458000D01*
X335000Y457200D01*
X334200Y458000D01*
X339200Y468000D02*
X340000Y468800D01*
X340800Y468000D01*
X340000Y467200D01*
X339200Y468000D01*
X359200D02*
X360000Y468800D01*
X360800Y468000D01*
X360000Y467200D01*
X359200Y468000D01*
X423600Y437600D02*
Y437200D01*
X424400D01*
Y437600D01*
X424800D01*
Y438400D01*
X424400D01*
Y438800D01*
X423600D01*
Y438400D01*
X423200D01*
Y437600D01*
X423600D01*
X444853Y437200D02*
X445254D01*
X445653Y437600D01*
X446054Y437200D01*
X446454D01*
Y437600D01*
X446054Y438000D01*
X446454Y438400D01*
Y438800D01*
X446054D01*
X445653Y438400D01*
X445254Y438800D01*
X444853D01*
Y438400D01*
X445254Y438000D01*
X444853Y437600D01*
Y437200D01*
X401546D02*
X401946D01*
X402347Y437600D01*
X402746Y437200D01*
X403147D01*
Y437600D01*
X402746Y438000D01*
X403147Y438400D01*
Y438800D01*
X402746D01*
X402347Y438400D01*
X401946Y438800D01*
X401546D01*
Y438400D01*
X401946Y438000D01*
X401546Y437600D01*
Y437200D01*
X438200Y448000D02*
X439000Y448800D01*
X439800Y448000D01*
X439000Y447200D01*
X438200Y448000D01*
X408200D02*
X409000Y448800D01*
X409800Y448000D01*
X409000Y447200D01*
X408200Y448000D01*
X413200Y458000D02*
X414000Y458800D01*
X414800Y458000D01*
X414000Y457200D01*
X413200Y458000D01*
X433200D02*
X434000Y458800D01*
X434800Y458000D01*
X434000Y457200D01*
X433200Y458000D01*
X210000Y316200D02*
X209200Y317800D01*
X210800D01*
X210000Y316200D01*
X200157D02*
X199357Y317800D01*
X200957D01*
X200157Y316200D01*
X190315D02*
X189515Y317800D01*
X191115D01*
X190315Y316200D01*
X129200Y99000D02*
X130000Y99800D01*
X130800Y99000D01*
X130000Y98200D01*
X129200Y99000D01*
X116344Y114321D02*
X117144Y115121D01*
X117944Y114321D01*
X117144Y113521D01*
X116344Y114321D01*
X105470Y111723D02*
X106270Y112523D01*
X107070Y111723D01*
X106270Y110923D01*
X105470Y111723D01*
X124753Y88742D02*
X125554Y89542D01*
X126354Y88742D01*
X125554Y87942D01*
X124753Y88742D01*
X93533Y109592D02*
X93933D01*
X94333Y109992D01*
X94733Y109592D01*
X95133D01*
Y109992D01*
X94733Y110392D01*
X95133Y110792D01*
Y111192D01*
X94733D01*
X94333Y110792D01*
X93933Y111192D01*
X93533D01*
Y110792D01*
X93933Y110392D01*
X93533Y109992D01*
Y109592D01*
X121370Y76417D02*
X121770D01*
X122170Y76817D01*
X122570Y76417D01*
X122970D01*
Y76817D01*
X122570Y77217D01*
X122970Y77617D01*
Y78017D01*
X122570D01*
X122170Y77617D01*
X121770Y78017D01*
X121370D01*
Y77617D01*
X121770Y77217D01*
X121370Y76817D01*
Y76417D01*
X107851Y93405D02*
Y93005D01*
X108651D01*
Y93405D01*
X109051D01*
Y94205D01*
X108651D01*
Y94605D01*
X107851D01*
Y94205D01*
X107451D01*
Y93405D01*
X107851D01*
X127600Y279600D02*
Y279200D01*
X128400D01*
Y279600D01*
X128800D01*
Y280400D01*
X128400D01*
Y280800D01*
X127600D01*
Y280400D01*
X127200D01*
Y279600D01*
X127600D01*
X148854Y279200D02*
X149253D01*
X149653Y279600D01*
X150054Y279200D01*
X150453D01*
Y279600D01*
X150054Y280000D01*
X150453Y280400D01*
Y280800D01*
X150054D01*
X149653Y280400D01*
X149253Y280800D01*
X148854D01*
Y280400D01*
X149253Y280000D01*
X148854Y279600D01*
Y279200D01*
X105546D02*
X105947D01*
X106346Y279600D01*
X106746Y279200D01*
X107147D01*
Y279600D01*
X106746Y280000D01*
X107147Y280400D01*
Y280800D01*
X106746D01*
X106346Y280400D01*
X105947Y280800D01*
X105546D01*
Y280400D01*
X105947Y280000D01*
X105546Y279600D01*
Y279200D01*
X142200Y290000D02*
X143000Y290800D01*
X143800Y290000D01*
X143000Y289200D01*
X142200Y290000D01*
X112200D02*
X113000Y290800D01*
X113800Y290000D01*
X113000Y289200D01*
X112200Y290000D01*
X117200Y300000D02*
X118000Y300800D01*
X118800Y300000D01*
X118000Y299200D01*
X117200Y300000D01*
X137200D02*
X138000Y300800D01*
X138800Y300000D01*
X138000Y299200D01*
X137200Y300000D01*
X201600Y279600D02*
Y279200D01*
X202400D01*
Y279600D01*
X202800D01*
Y280400D01*
X202400D01*
Y280800D01*
X201600D01*
Y280400D01*
X201200D01*
Y279600D01*
X201600D01*
X222853Y279200D02*
X223253D01*
X223654Y279600D01*
X224054Y279200D01*
X224453D01*
Y279600D01*
X224054Y280000D01*
X224453Y280400D01*
Y280800D01*
X224054D01*
X223654Y280400D01*
X223253Y280800D01*
X222853D01*
Y280400D01*
X223253Y280000D01*
X222853Y279600D01*
Y279200D01*
X179546D02*
X179946D01*
X180347Y279600D01*
X180746Y279200D01*
X181147D01*
Y279600D01*
X180746Y280000D01*
X181147Y280400D01*
Y280800D01*
X180746D01*
X180347Y280400D01*
X179946Y280800D01*
X179546D01*
Y280400D01*
X179946Y280000D01*
X179546Y279600D01*
Y279200D01*
X216200Y290000D02*
X217000Y290800D01*
X217800Y290000D01*
X217000Y289200D01*
X216200Y290000D01*
X186200D02*
X187000Y290800D01*
X187800Y290000D01*
X187000Y289200D01*
X186200Y290000D01*
X191200Y300000D02*
X192000Y300800D01*
X192800Y300000D01*
X192000Y299200D01*
X191200Y300000D01*
X211200D02*
X212000Y300800D01*
X212800Y300000D01*
X212000Y299200D01*
X211200Y300000D01*
X275600Y289600D02*
Y289200D01*
X276400D01*
Y289600D01*
X276800D01*
Y290400D01*
X276400D01*
Y290800D01*
X275600D01*
Y290400D01*
X275200D01*
Y289600D01*
X275600D01*
X296853Y289200D02*
X297253D01*
X297654Y289600D01*
X298054Y289200D01*
X298453D01*
Y289600D01*
X298054Y290000D01*
X298453Y290400D01*
Y290800D01*
X298054D01*
X297654Y290400D01*
X297253Y290800D01*
X296853D01*
Y290400D01*
X297253Y290000D01*
X296853Y289600D01*
Y289200D01*
X253547D02*
X253946D01*
X254346Y289600D01*
X254747Y289200D01*
X255147D01*
Y289600D01*
X254747Y290000D01*
X255147Y290400D01*
Y290800D01*
X254747D01*
X254346Y290400D01*
X253946Y290800D01*
X253547D01*
Y290400D01*
X253946Y290000D01*
X253547Y289600D01*
Y289200D01*
X290200Y300000D02*
X291000Y300800D01*
X291800Y300000D01*
X291000Y299200D01*
X290200Y300000D01*
X260200D02*
X261000Y300800D01*
X261800Y300000D01*
X261000Y299200D01*
X260200Y300000D01*
X265200Y310000D02*
X266000Y310800D01*
X266800Y310000D01*
X266000Y309200D01*
X265200Y310000D01*
X285200D02*
X286000Y310800D01*
X286800Y310000D01*
X286000Y309200D01*
X285200Y310000D01*
X313000Y178200D02*
X312200Y179800D01*
X313800D01*
X313000Y178200D01*
Y178600D02*
X312600Y179400D01*
X313400D01*
X313000Y178600D01*
X191600Y121600D02*
Y121200D01*
X192400D01*
Y121600D01*
X192800D01*
Y122400D01*
X192400D01*
Y122800D01*
X191600D01*
Y122400D01*
X191200D01*
Y121600D01*
X191600D01*
X211132Y129661D02*
X211532D01*
X211932Y130061D01*
X212332Y129661D01*
X212732D01*
Y130061D01*
X212332Y130461D01*
X212732Y130861D01*
Y131261D01*
X212332D01*
X211932Y130861D01*
X211532Y131261D01*
X211132D01*
Y130861D01*
X211532Y130461D01*
X211132Y130061D01*
Y129661D01*
X171268Y112739D02*
X171668D01*
X172068Y113139D01*
X172468Y112739D01*
X172868D01*
Y113139D01*
X172468Y113539D01*
X172868Y113939D01*
Y114339D01*
X172468D01*
X172068Y113939D01*
X171668Y114339D01*
X171268D01*
Y113939D01*
X171668Y113539D01*
X171268Y113139D01*
Y112739D01*
X201100Y137066D02*
X201900Y137866D01*
X202700Y137066D01*
X201900Y136266D01*
X201100Y137066D01*
X173485Y125344D02*
X174285Y126144D01*
X175085Y125344D01*
X174285Y124544D01*
X173485Y125344D01*
X174180Y136503D02*
X174980Y137303D01*
X175780Y136503D01*
X174980Y135703D01*
X174180Y136503D01*
X192590Y144317D02*
X193390Y145117D01*
X194190Y144317D01*
X193390Y143517D01*
X192590Y144317D01*
X117000Y154200D02*
X116200Y155800D01*
X117800D01*
X117000Y154200D01*
Y154600D02*
X116600Y155400D01*
X117400D01*
X117000Y154600D01*
X275600Y141600D02*
Y141200D01*
X276400D01*
Y141600D01*
X276800D01*
Y142400D01*
X276400D01*
Y142800D01*
X275600D01*
Y142400D01*
X275200D01*
Y141600D01*
X275600D01*
X296853Y141200D02*
X297253D01*
X297654Y141600D01*
X298054Y141200D01*
X298453D01*
Y141600D01*
X298054Y142000D01*
X298453Y142400D01*
Y142800D01*
X298054D01*
X297654Y142400D01*
X297253Y142800D01*
X296853D01*
Y142400D01*
X297253Y142000D01*
X296853Y141600D01*
Y141200D01*
X253547D02*
X253946D01*
X254346Y141600D01*
X254747Y141200D01*
X255147D01*
Y141600D01*
X254747Y142000D01*
X255147Y142400D01*
Y142800D01*
X254747D01*
X254346Y142400D01*
X253946Y142800D01*
X253547D01*
Y142400D01*
X253946Y142000D01*
X253547Y141600D01*
Y141200D01*
X290200Y152000D02*
X291000Y152800D01*
X291800Y152000D01*
X291000Y151200D01*
X290200Y152000D01*
X260200D02*
X261000Y152800D01*
X261800Y152000D01*
X261000Y151200D01*
X260200Y152000D01*
X265200Y162000D02*
X266000Y162800D01*
X266800Y162000D01*
X266000Y161200D01*
X265200Y162000D01*
X285200D02*
X286000Y162800D01*
X286800Y162000D01*
X286000Y161200D01*
X285200Y162000D01*
X201600Y205600D02*
Y205200D01*
X202400D01*
Y205600D01*
X202800D01*
Y206400D01*
X202400D01*
Y206800D01*
X201600D01*
Y206400D01*
X201200D01*
Y205600D01*
X201600D01*
X222853Y205200D02*
X223253D01*
X223654Y205600D01*
X224054Y205200D01*
X224453D01*
Y205600D01*
X224054Y206000D01*
X224453Y206400D01*
Y206800D01*
X224054D01*
X223654Y206400D01*
X223253Y206800D01*
X222853D01*
Y206400D01*
X223253Y206000D01*
X222853Y205600D01*
Y205200D01*
X179546D02*
X179946D01*
X180347Y205600D01*
X180746Y205200D01*
X181147D01*
Y205600D01*
X180746Y206000D01*
X181147Y206400D01*
Y206800D01*
X180746D01*
X180347Y206400D01*
X179946Y206800D01*
X179546D01*
Y206400D01*
X179946Y206000D01*
X179546Y205600D01*
Y205200D01*
X216200Y216000D02*
X217000Y216800D01*
X217800Y216000D01*
X217000Y215200D01*
X216200Y216000D01*
X186200D02*
X187000Y216800D01*
X187800Y216000D01*
X187000Y215200D01*
X186200Y216000D01*
X191200Y226000D02*
X192000Y226800D01*
X192800Y226000D01*
X192000Y225200D01*
X191200Y226000D01*
X211200D02*
X212000Y226800D01*
X212800Y226000D01*
X212000Y225200D01*
X211200Y226000D01*
X349600Y225600D02*
Y225200D01*
X350400D01*
Y225600D01*
X350800D01*
Y226400D01*
X350400D01*
Y226800D01*
X349600D01*
Y226400D01*
X349200D01*
Y225600D01*
X349600D01*
X370853Y225200D02*
X371253D01*
X371654Y225600D01*
X372054Y225200D01*
X372453D01*
Y225600D01*
X372054Y226000D01*
X372453Y226400D01*
Y226800D01*
X372054D01*
X371654Y226400D01*
X371253Y226800D01*
X370853D01*
Y226400D01*
X371253Y226000D01*
X370853Y225600D01*
Y225200D01*
X327547D02*
X327946D01*
X328346Y225600D01*
X328747Y225200D01*
X329147D01*
Y225600D01*
X328747Y226000D01*
X329147Y226400D01*
Y226800D01*
X328747D01*
X328346Y226400D01*
X327946Y226800D01*
X327547D01*
Y226400D01*
X327946Y226000D01*
X327547Y225600D01*
Y225200D01*
X364200Y236000D02*
X365000Y236800D01*
X365800Y236000D01*
X365000Y235200D01*
X364200Y236000D01*
X334200D02*
X335000Y236800D01*
X335800Y236000D01*
X335000Y235200D01*
X334200Y236000D01*
X339200Y246000D02*
X340000Y246800D01*
X340800Y246000D01*
X340000Y245200D01*
X339200Y246000D01*
X359200D02*
X360000Y246800D01*
X360800Y246000D01*
X360000Y245200D01*
X359200Y246000D01*
X497600Y327600D02*
Y327200D01*
X498400D01*
Y327600D01*
X498800D01*
Y328400D01*
X498400D01*
Y328800D01*
X497600D01*
Y328400D01*
X497200D01*
Y327600D01*
X497600D01*
X518854Y327200D02*
X519253D01*
X519654Y327600D01*
X520053Y327200D01*
X520454D01*
Y327600D01*
X520053Y328000D01*
X520454Y328400D01*
Y328800D01*
X520053D01*
X519654Y328400D01*
X519253Y328800D01*
X518854D01*
Y328400D01*
X519253Y328000D01*
X518854Y327600D01*
Y327200D01*
X475547D02*
X475947D01*
X476346Y327600D01*
X476747Y327200D01*
X477146D01*
Y327600D01*
X476747Y328000D01*
X477146Y328400D01*
Y328800D01*
X476747D01*
X476346Y328400D01*
X475947Y328800D01*
X475547D01*
Y328400D01*
X475947Y328000D01*
X475547Y327600D01*
Y327200D01*
X512200Y338000D02*
X513000Y338800D01*
X513800Y338000D01*
X513000Y337200D01*
X512200Y338000D01*
X482200D02*
X483000Y338800D01*
X483800Y338000D01*
X483000Y337200D01*
X482200Y338000D01*
X487200Y348000D02*
X488000Y348800D01*
X488800Y348000D01*
X488000Y347200D01*
X487200Y348000D01*
X507200D02*
X508000Y348800D01*
X508800Y348000D01*
X508000Y347200D01*
X507200Y348000D01*
X423600Y363600D02*
Y363200D01*
X424400D01*
Y363600D01*
X424800D01*
Y364400D01*
X424400D01*
Y364800D01*
X423600D01*
Y364400D01*
X423200D01*
Y363600D01*
X423600D01*
X444853Y363200D02*
X445254D01*
X445653Y363600D01*
X446054Y363200D01*
X446454D01*
Y363600D01*
X446054Y364000D01*
X446454Y364400D01*
Y364800D01*
X446054D01*
X445653Y364400D01*
X445254Y364800D01*
X444853D01*
Y364400D01*
X445254Y364000D01*
X444853Y363600D01*
Y363200D01*
X401546D02*
X401946D01*
X402347Y363600D01*
X402746Y363200D01*
X403147D01*
Y363600D01*
X402746Y364000D01*
X403147Y364400D01*
Y364800D01*
X402746D01*
X402347Y364400D01*
X401946Y364800D01*
X401546D01*
Y364400D01*
X401946Y364000D01*
X401546Y363600D01*
Y363200D01*
X438200Y374000D02*
X439000Y374800D01*
X439800Y374000D01*
X439000Y373200D01*
X438200Y374000D01*
X408200D02*
X409000Y374800D01*
X409800Y374000D01*
X409000Y373200D01*
X408200Y374000D01*
X413200Y384000D02*
X414000Y384800D01*
X414800Y384000D01*
X414000Y383200D01*
X413200Y384000D01*
X433200D02*
X434000Y384800D01*
X434800Y384000D01*
X434000Y383200D01*
X433200Y384000D01*
X423600Y215600D02*
Y215200D01*
X424400D01*
Y215600D01*
X424800D01*
Y216400D01*
X424400D01*
Y216800D01*
X423600D01*
Y216400D01*
X423200D01*
Y215600D01*
X423600D01*
X444853Y215200D02*
X445254D01*
X445653Y215600D01*
X446054Y215200D01*
X446454D01*
Y215600D01*
X446054Y216000D01*
X446454Y216400D01*
Y216800D01*
X446054D01*
X445653Y216400D01*
X445254Y216800D01*
X444853D01*
Y216400D01*
X445254Y216000D01*
X444853Y215600D01*
Y215200D01*
X401546D02*
X401946D01*
X402347Y215600D01*
X402746Y215200D01*
X403147D01*
Y215600D01*
X402746Y216000D01*
X403147Y216400D01*
Y216800D01*
X402746D01*
X402347Y216400D01*
X401946Y216800D01*
X401546D01*
Y216400D01*
X401946Y216000D01*
X401546Y215600D01*
Y215200D01*
X438200Y226000D02*
X439000Y226800D01*
X439800Y226000D01*
X439000Y225200D01*
X438200Y226000D01*
X408200D02*
X409000Y226800D01*
X409800Y226000D01*
X409000Y225200D01*
X408200Y226000D01*
X413200Y236000D02*
X414000Y236800D01*
X414800Y236000D01*
X414000Y235200D01*
X413200Y236000D01*
X433200D02*
X434000Y236800D01*
X434800Y236000D01*
X434000Y235200D01*
X433200Y236000D01*
X497600Y179600D02*
Y179200D01*
X498400D01*
Y179600D01*
X498800D01*
Y180400D01*
X498400D01*
Y180800D01*
X497600D01*
Y180400D01*
X497200D01*
Y179600D01*
X497600D01*
X518854Y179200D02*
X519253D01*
X519654Y179600D01*
X520053Y179200D01*
X520454D01*
Y179600D01*
X520053Y180000D01*
X520454Y180400D01*
Y180800D01*
X520053D01*
X519654Y180400D01*
X519253Y180800D01*
X518854D01*
Y180400D01*
X519253Y180000D01*
X518854Y179600D01*
Y179200D01*
X475547D02*
X475947D01*
X476346Y179600D01*
X476747Y179200D01*
X477146D01*
Y179600D01*
X476747Y180000D01*
X477146Y180400D01*
Y180800D01*
X476747D01*
X476346Y180400D01*
X475947Y180800D01*
X475547D01*
Y180400D01*
X475947Y180000D01*
X475547Y179600D01*
Y179200D01*
X512200Y190000D02*
X513000Y190800D01*
X513800Y190000D01*
X513000Y189200D01*
X512200Y190000D01*
X482200D02*
X483000Y190800D01*
X483800Y190000D01*
X483000Y189200D01*
X482200Y190000D01*
X487200Y200000D02*
X488000Y200800D01*
X488800Y200000D01*
X488000Y199200D01*
X487200Y200000D01*
X507200D02*
X508000Y200800D01*
X508800Y200000D01*
X508000Y199200D01*
X507200Y200000D01*
X359600Y121600D02*
Y121200D01*
X360400D01*
Y121600D01*
X360800D01*
Y122400D01*
X360400D01*
Y122800D01*
X359600D01*
Y122400D01*
X359200D01*
Y121600D01*
X359600D01*
X379132Y112739D02*
X379532D01*
X379932Y113139D01*
X380332Y112739D01*
X380732D01*
Y113139D01*
X380332Y113539D01*
X380732Y113939D01*
Y114339D01*
X380332D01*
X379932Y113939D01*
X379532Y114339D01*
X379132D01*
Y113939D01*
X379532Y113539D01*
X379132Y113139D01*
Y112739D01*
X339268Y129661D02*
X339668D01*
X340068Y130061D01*
X340468Y129661D01*
X340868D01*
Y130061D01*
X340468Y130461D01*
X340868Y130861D01*
Y131261D01*
X340468D01*
X340068Y130861D01*
X339668Y131261D01*
X339268D01*
Y130861D01*
X339668Y130461D01*
X339268Y130061D01*
Y129661D01*
X376915Y125344D02*
X377715Y126144D01*
X378515Y125344D01*
X377715Y124544D01*
X376915Y125344D01*
X349300Y137066D02*
X350100Y137866D01*
X350900Y137066D01*
X350100Y136266D01*
X349300Y137066D01*
X357810Y144317D02*
X358610Y145117D01*
X359410Y144317D01*
X358610Y143517D01*
X357810Y144317D01*
X376220Y136503D02*
X377020Y137303D01*
X377820Y136503D01*
X377020Y135703D01*
X376220Y136503D01*
X349600Y299600D02*
Y299200D01*
X350400D01*
Y299600D01*
X350800D01*
Y300400D01*
X350400D01*
Y300800D01*
X349600D01*
Y300400D01*
X349200D01*
Y299600D01*
X349600D01*
X370853Y299200D02*
X371253D01*
X371654Y299600D01*
X372054Y299200D01*
X372453D01*
Y299600D01*
X372054Y300000D01*
X372453Y300400D01*
Y300800D01*
X372054D01*
X371654Y300400D01*
X371253Y300800D01*
X370853D01*
Y300400D01*
X371253Y300000D01*
X370853Y299600D01*
Y299200D01*
X327547D02*
X327946D01*
X328346Y299600D01*
X328747Y299200D01*
X329147D01*
Y299600D01*
X328747Y300000D01*
X329147Y300400D01*
Y300800D01*
X328747D01*
X328346Y300400D01*
X327946Y300800D01*
X327547D01*
Y300400D01*
X327946Y300000D01*
X327547Y299600D01*
Y299200D01*
X364200Y310000D02*
X365000Y310800D01*
X365800Y310000D01*
X365000Y309200D01*
X364200Y310000D01*
X334200D02*
X335000Y310800D01*
X335800Y310000D01*
X335000Y309200D01*
X334200Y310000D01*
X339200Y320000D02*
X340000Y320800D01*
X340800Y320000D01*
X340000Y319200D01*
X339200Y320000D01*
X359200D02*
X360000Y320800D01*
X360800Y320000D01*
X360000Y319200D01*
X359200Y320000D01*
X423600Y289600D02*
Y289200D01*
X424400D01*
Y289600D01*
X424800D01*
Y290400D01*
X424400D01*
Y290800D01*
X423600D01*
Y290400D01*
X423200D01*
Y289600D01*
X423600D01*
X444853Y289200D02*
X445254D01*
X445653Y289600D01*
X446054Y289200D01*
X446454D01*
Y289600D01*
X446054Y290000D01*
X446454Y290400D01*
Y290800D01*
X446054D01*
X445653Y290400D01*
X445254Y290800D01*
X444853D01*
Y290400D01*
X445254Y290000D01*
X444853Y289600D01*
Y289200D01*
X401546D02*
X401946D01*
X402347Y289600D01*
X402746Y289200D01*
X403147D01*
Y289600D01*
X402746Y290000D01*
X403147Y290400D01*
Y290800D01*
X402746D01*
X402347Y290400D01*
X401946Y290800D01*
X401546D01*
Y290400D01*
X401946Y290000D01*
X401546Y289600D01*
Y289200D01*
X438200Y300000D02*
X439000Y300800D01*
X439800Y300000D01*
X439000Y299200D01*
X438200Y300000D01*
X408200D02*
X409000Y300800D01*
X409800Y300000D01*
X409000Y299200D01*
X408200Y300000D01*
X413200Y310000D02*
X414000Y310800D01*
X414800Y310000D01*
X414000Y309200D01*
X413200Y310000D01*
X433200D02*
X434000Y310800D01*
X434800Y310000D01*
X434000Y309200D01*
X433200Y310000D01*
X497600Y401600D02*
Y401200D01*
X498400D01*
Y401600D01*
X498800D01*
Y402400D01*
X498400D01*
Y402800D01*
X497600D01*
Y402400D01*
X497200D01*
Y401600D01*
X497600D01*
X518854Y401200D02*
X519253D01*
X519654Y401600D01*
X520053Y401200D01*
X520454D01*
Y401600D01*
X520053Y402000D01*
X520454Y402400D01*
Y402800D01*
X520053D01*
X519654Y402400D01*
X519253Y402800D01*
X518854D01*
Y402400D01*
X519253Y402000D01*
X518854Y401600D01*
Y401200D01*
X475547D02*
X475947D01*
X476346Y401600D01*
X476747Y401200D01*
X477146D01*
Y401600D01*
X476747Y402000D01*
X477146Y402400D01*
Y402800D01*
X476747D01*
X476346Y402400D01*
X475947Y402800D01*
X475547D01*
Y402400D01*
X475947Y402000D01*
X475547Y401600D01*
Y401200D01*
X512200Y412000D02*
X513000Y412800D01*
X513800Y412000D01*
X513000Y411200D01*
X512200Y412000D01*
X482200D02*
X483000Y412800D01*
X483800Y412000D01*
X483000Y411200D01*
X482200Y412000D01*
X487200Y422000D02*
X488000Y422800D01*
X488800Y422000D01*
X488000Y421200D01*
X487200Y422000D01*
X507200D02*
X508000Y422800D01*
X508800Y422000D01*
X508000Y421200D01*
X507200Y422000D01*
X535000Y364200D02*
X534200Y365800D01*
X535800D01*
X535000Y364200D01*
Y364600D02*
X534600Y365400D01*
X535400D01*
X535000Y364600D01*
X601200Y340000D02*
X602000Y340800D01*
X602800Y340000D01*
X602000Y339200D01*
X601200Y340000D01*
X581200D02*
X582000Y340800D01*
X582800Y340000D01*
X582000Y339200D01*
X581200Y340000D01*
X576200Y330000D02*
X577000Y330800D01*
X577800Y330000D01*
X577000Y329200D01*
X576200Y330000D01*
X606200D02*
X607000Y330800D01*
X607800Y330000D01*
X607000Y329200D01*
X606200Y330000D01*
X569547Y319200D02*
X569946D01*
X570346Y319600D01*
X570747Y319200D01*
X571146D01*
Y319600D01*
X570747Y320000D01*
X571146Y320400D01*
Y320800D01*
X570747D01*
X570346Y320400D01*
X569946Y320800D01*
X569547D01*
Y320400D01*
X569946Y320000D01*
X569547Y319600D01*
Y319200D01*
X612853D02*
X613253D01*
X613654Y319600D01*
X614053Y319200D01*
X614454D01*
Y319600D01*
X614053Y320000D01*
X614454Y320400D01*
Y320800D01*
X614053D01*
X613654Y320400D01*
X613253Y320800D01*
X612853D01*
Y320400D01*
X613253Y320000D01*
X612853Y319600D01*
Y319200D01*
X591600Y319600D02*
Y319200D01*
X592400D01*
Y319600D01*
X592800D01*
Y320400D01*
X592400D01*
Y320800D01*
X591600D01*
Y320400D01*
X591200D01*
Y319600D01*
X591600D01*
X497600Y253600D02*
Y253200D01*
X498400D01*
Y253600D01*
X498800D01*
Y254400D01*
X498400D01*
Y254800D01*
X497600D01*
Y254400D01*
X497200D01*
Y253600D01*
X497600D01*
X518854Y253200D02*
X519253D01*
X519654Y253600D01*
X520053Y253200D01*
X520454D01*
Y253600D01*
X520053Y254000D01*
X520454Y254400D01*
Y254800D01*
X520053D01*
X519654Y254400D01*
X519253Y254800D01*
X518854D01*
Y254400D01*
X519253Y254000D01*
X518854Y253600D01*
Y253200D01*
X475547D02*
X475947D01*
X476346Y253600D01*
X476747Y253200D01*
X477146D01*
Y253600D01*
X476747Y254000D01*
X477146Y254400D01*
Y254800D01*
X476747D01*
X476346Y254400D01*
X475947Y254800D01*
X475547D01*
Y254400D01*
X475947Y254000D01*
X475547Y253600D01*
Y253200D01*
X512200Y264000D02*
X513000Y264800D01*
X513800Y264000D01*
X513000Y263200D01*
X512200Y264000D01*
X482200D02*
X483000Y264800D01*
X483800Y264000D01*
X483000Y263200D01*
X482200Y264000D01*
X487200Y274000D02*
X488000Y274800D01*
X488800Y274000D01*
X488000Y273200D01*
X487200Y274000D01*
X507200D02*
X508000Y274800D01*
X508800Y274000D01*
X508000Y273200D01*
X507200Y274000D01*
X601200Y266000D02*
X602000Y266800D01*
X602800Y266000D01*
X602000Y265200D01*
X601200Y266000D01*
X581200D02*
X582000Y266800D01*
X582800Y266000D01*
X582000Y265200D01*
X581200Y266000D01*
X576200Y256000D02*
X577000Y256800D01*
X577800Y256000D01*
X577000Y255200D01*
X576200Y256000D01*
X606200D02*
X607000Y256800D01*
X607800Y256000D01*
X607000Y255200D01*
X606200Y256000D01*
X569547Y245200D02*
X569946D01*
X570346Y245600D01*
X570747Y245200D01*
X571146D01*
Y245600D01*
X570747Y246000D01*
X571146Y246400D01*
Y246800D01*
X570747D01*
X570346Y246400D01*
X569946Y246800D01*
X569547D01*
Y246400D01*
X569946Y246000D01*
X569547Y245600D01*
Y245200D01*
X612853D02*
X613253D01*
X613654Y245600D01*
X614053Y245200D01*
X614454D01*
Y245600D01*
X614053Y246000D01*
X614454Y246400D01*
Y246800D01*
X614053D01*
X613654Y246400D01*
X613253Y246800D01*
X612853D01*
Y246400D01*
X613253Y246000D01*
X612853Y245600D01*
Y245200D01*
X591600Y245600D02*
Y245200D01*
X592400D01*
Y245600D01*
X592800D01*
Y246400D01*
X592400D01*
Y246800D01*
X591600D01*
Y246400D01*
X591200D01*
Y245600D01*
X591600D01*
X535000Y216200D02*
X534200Y217800D01*
X535800D01*
X535000Y216200D01*
Y216600D02*
X534600Y217400D01*
X535400D01*
X535000Y216600D01*
X601200Y191000D02*
X602000Y191800D01*
X602800Y191000D01*
X602000Y190200D01*
X601200Y191000D01*
X581200D02*
X582000Y191800D01*
X582800Y191000D01*
X582000Y190200D01*
X581200Y191000D01*
X576200Y181000D02*
X577000Y181800D01*
X577800Y181000D01*
X577000Y180200D01*
X576200Y181000D01*
X606200D02*
X607000Y181800D01*
X607800Y181000D01*
X607000Y180200D01*
X606200Y181000D01*
X569547Y170200D02*
X569946D01*
X570346Y170600D01*
X570747Y170200D01*
X571146D01*
Y170600D01*
X570747Y171000D01*
X571146Y171400D01*
Y171800D01*
X570747D01*
X570346Y171400D01*
X569946Y171800D01*
X569547D01*
Y171400D01*
X569946Y171000D01*
X569547Y170600D01*
Y170200D01*
X612853D02*
X613253D01*
X613654Y170600D01*
X614053Y170200D01*
X614454D01*
Y170600D01*
X614053Y171000D01*
X614454Y171400D01*
Y171800D01*
X614053D01*
X613654Y171400D01*
X613253Y171800D01*
X612853D01*
Y171400D01*
X613253Y171000D01*
X612853Y170600D01*
Y170200D01*
X591600Y170600D02*
Y170200D01*
X592400D01*
Y170600D01*
X592800D01*
Y171400D01*
X592400D01*
Y171800D01*
X591600D01*
Y171400D01*
X591200D01*
Y170600D01*
X591600D01*
X107300Y337000D02*
X107700Y337400D01*
X108100D01*
X107700Y337800D01*
X108100Y338200D01*
X107700D01*
X107300Y338600D01*
X106900Y338200D01*
X106500D01*
X106900Y337800D01*
X106500Y337400D01*
X106900D01*
X107300Y337000D01*
Y337400D02*
X107500Y337600D01*
X107700D01*
X107500Y337800D01*
X107700Y338000D01*
X107500D01*
X107300Y338200D01*
X107100Y338000D01*
X106900D01*
X107100Y337800D01*
X106900Y337600D01*
X107100D01*
X107300Y337400D01*
X135000Y347400D02*
X135400Y347800D01*
X135800D01*
X135400Y348200D01*
X135800Y348600D01*
X135400D01*
X135000Y349000D01*
X134600Y348600D01*
X134200D01*
X134600Y348200D01*
X134200Y347800D01*
X134600D01*
X135000Y347400D01*
Y347800D02*
X135200Y348000D01*
X135400D01*
X135200Y348200D01*
X135400Y348400D01*
X135200D01*
X135000Y348600D01*
X134800Y348400D01*
X134600D01*
X134800Y348200D01*
X134600Y348000D01*
X134800D01*
X135000Y347800D01*
X140000Y347230D02*
X140400Y347630D01*
X140800D01*
X140400Y348030D01*
X140800Y348430D01*
X140400D01*
X140000Y348830D01*
X139600Y348430D01*
X139200D01*
X139600Y348030D01*
X139200Y347630D01*
X139600D01*
X140000Y347230D01*
Y347630D02*
X140200Y347830D01*
X140400D01*
X140200Y348030D01*
X140400Y348230D01*
X140200D01*
X140000Y348430D01*
X139800Y348230D01*
X139600D01*
X139800Y348030D01*
X139600Y347830D01*
X139800D01*
X140000Y347630D01*
X130000Y347230D02*
X130400Y347630D01*
X130800D01*
X130400Y348030D01*
X130800Y348430D01*
X130400D01*
X130000Y348830D01*
X129600Y348430D01*
X129200D01*
X129600Y348030D01*
X129200Y347630D01*
X129600D01*
X130000Y347230D01*
Y347630D02*
X130200Y347830D01*
X130400D01*
X130200Y348030D01*
X130400Y348230D01*
X130200D01*
X130000Y348430D01*
X129800Y348230D01*
X129600D01*
X129800Y348030D01*
X129600Y347830D01*
X129800D01*
X130000Y347630D01*
X120000Y347230D02*
X120400Y347630D01*
X120800D01*
X120400Y348030D01*
X120800Y348430D01*
X120400D01*
X120000Y348830D01*
X119600Y348430D01*
X119200D01*
X119600Y348030D01*
X119200Y347630D01*
X119600D01*
X120000Y347230D01*
Y347630D02*
X120200Y347830D01*
X120400D01*
X120200Y348030D01*
X120400Y348230D01*
X120200D01*
X120000Y348430D01*
X119800Y348230D01*
X119600D01*
X119800Y348030D01*
X119600Y347830D01*
X119800D01*
X120000Y347630D01*
X110000Y347230D02*
X110400Y347630D01*
X110800D01*
X110400Y348030D01*
X110800Y348430D01*
X110400D01*
X110000Y348830D01*
X109600Y348430D01*
X109200D01*
X109600Y348030D01*
X109200Y347630D01*
X109600D01*
X110000Y347230D01*
Y347630D02*
X110200Y347830D01*
X110400D01*
X110200Y348030D01*
X110400Y348230D01*
X110200D01*
X110000Y348430D01*
X109800Y348230D01*
X109600D01*
X109800Y348030D01*
X109600Y347830D01*
X109800D01*
X110000Y347630D01*
X89300Y336000D02*
X89700Y336400D01*
X90100D01*
X89700Y336800D01*
X90100Y337200D01*
X89700D01*
X89300Y337600D01*
X88900Y337200D01*
X88500D01*
X88900Y336800D01*
X88500Y336400D01*
X88900D01*
X89300Y336000D01*
Y336400D02*
X89500Y336600D01*
X89700D01*
X89500Y336800D01*
X89700Y337000D01*
X89500D01*
X89300Y337200D01*
X89100Y337000D01*
X88900D01*
X89100Y336800D01*
X88900Y336600D01*
X89100D01*
X89300Y336400D01*
X148600Y335000D02*
X149000Y335400D01*
X149400D01*
X149000Y335800D01*
X149400Y336200D01*
X149000D01*
X148600Y336600D01*
X148200Y336200D01*
X147800D01*
X148200Y335800D01*
X147800Y335400D01*
X148200D01*
X148600Y335000D01*
Y335400D02*
X148800Y335600D01*
X149000D01*
X148800Y335800D01*
X149000Y336000D01*
X148800D01*
X148600Y336200D01*
X148400Y336000D01*
X148200D01*
X148400Y335800D01*
X148200Y335600D01*
X148400D01*
X148600Y335400D01*
X100355Y331674D02*
X100755Y332073D01*
X101155D01*
X100755Y332473D01*
X101155Y332874D01*
X100755D01*
X100355Y333274D01*
X99955Y332874D01*
X99555D01*
X99955Y332473D01*
X99555Y332073D01*
X99955D01*
X100355Y331674D01*
Y332073D02*
X100555Y332274D01*
X100755D01*
X100555Y332473D01*
X100755Y332674D01*
X100555D01*
X100355Y332874D01*
X100155Y332674D01*
X99955D01*
X100155Y332473D01*
X99955Y332274D01*
X100155D01*
X100355Y332073D01*
X94000Y327700D02*
X94400Y328100D01*
X94800D01*
X94400Y328500D01*
X94800Y328900D01*
X94400D01*
X94000Y329300D01*
X93600Y328900D01*
X93200D01*
X93600Y328500D01*
X93200Y328100D01*
X93600D01*
X94000Y327700D01*
Y328100D02*
X94200Y328300D01*
X94400D01*
X94200Y328500D01*
X94400Y328700D01*
X94200D01*
X94000Y328900D01*
X93800Y328700D01*
X93600D01*
X93800Y328500D01*
X93600Y328300D01*
X93800D01*
X94000Y328100D01*
X225149Y418050D02*
X225550Y418450D01*
X225950D01*
X225550Y418850D01*
X225950Y419250D01*
X225550D01*
X225149Y419650D01*
X224749Y419250D01*
X224349D01*
X224749Y418850D01*
X224349Y418450D01*
X224749D01*
X225149Y418050D01*
Y418450D02*
X225349Y418650D01*
X225550D01*
X225349Y418850D01*
X225550Y419050D01*
X225349D01*
X225149Y419250D01*
X224950Y419050D01*
X224749D01*
X224950Y418850D01*
X224749Y418650D01*
X224950D01*
X225149Y418450D01*
X226000Y415200D02*
X226400Y415600D01*
X226800D01*
X226400Y416000D01*
X226800Y416400D01*
X226400D01*
X226000Y416800D01*
X225600Y416400D01*
X225200D01*
X225600Y416000D01*
X225200Y415600D01*
X225600D01*
X226000Y415200D01*
Y415600D02*
X226200Y415800D01*
X226400D01*
X226200Y416000D01*
X226400Y416200D01*
X226200D01*
X226000Y416400D01*
X225800Y416200D01*
X225600D01*
X225800Y416000D01*
X225600Y415800D01*
X225800D01*
X226000Y415600D01*
X244720Y379480D02*
X245120Y379880D01*
X245520D01*
X245120Y380280D01*
X245520Y380680D01*
X245120D01*
X244720Y381080D01*
X244320Y380680D01*
X243920D01*
X244320Y380280D01*
X243920Y379880D01*
X244320D01*
X244720Y379480D01*
Y379880D02*
X244920Y380080D01*
X245120D01*
X244920Y380280D01*
X245120Y380480D01*
X244920D01*
X244720Y380680D01*
X244520Y380480D01*
X244320D01*
X244520Y380280D01*
X244320Y380080D01*
X244520D01*
X244720Y379880D01*
X234883Y370083D02*
X235283Y370483D01*
X235683D01*
X235283Y370883D01*
X235683Y371283D01*
X235283D01*
X234883Y371683D01*
X234483Y371283D01*
X234083D01*
X234483Y370883D01*
X234083Y370483D01*
X234483D01*
X234883Y370083D01*
Y370483D02*
X235083Y370683D01*
X235283D01*
X235083Y370883D01*
X235283Y371083D01*
X235083D01*
X234883Y371283D01*
X234683Y371083D01*
X234483D01*
X234683Y370883D01*
X234483Y370683D01*
X234683D01*
X234883Y370483D01*
X237713Y338364D02*
X238113Y338764D01*
X238513D01*
X238113Y339164D01*
X238513Y339564D01*
X238113D01*
X237713Y339964D01*
X237313Y339564D01*
X236913D01*
X237313Y339164D01*
X236913Y338764D01*
X237313D01*
X237713Y338364D01*
Y338764D02*
X237913Y338964D01*
X238113D01*
X237913Y339164D01*
X238113Y339364D01*
X237913D01*
X237713Y339564D01*
X237513Y339364D01*
X237313D01*
X237513Y339164D01*
X237313Y338964D01*
X237513D01*
X237713Y338764D01*
X116287Y334200D02*
X116687Y334600D01*
X117087D01*
X116687Y335000D01*
X117087Y335400D01*
X116687D01*
X116287Y335800D01*
X115887Y335400D01*
X115487D01*
X115887Y335000D01*
X115487Y334600D01*
X115887D01*
X116287Y334200D01*
Y334600D02*
X116487Y334800D01*
X116687D01*
X116487Y335000D01*
X116687Y335200D01*
X116487D01*
X116287Y335400D01*
X116087Y335200D01*
X115887D01*
X116087Y335000D01*
X115887Y334800D01*
X116087D01*
X116287Y334600D01*
X239203Y174997D02*
X239603Y175397D01*
X240003D01*
X239603Y175797D01*
X240003Y176197D01*
X239603D01*
X239203Y176597D01*
X238803Y176197D01*
X238403D01*
X238803Y175797D01*
X238403Y175397D01*
X238803D01*
X239203Y174997D01*
Y175397D02*
X239403Y175597D01*
X239603D01*
X239403Y175797D01*
X239603Y175997D01*
X239403D01*
X239203Y176197D01*
X239003Y175997D01*
X238803D01*
X239003Y175797D01*
X238803Y175597D01*
X239003D01*
X239203Y175397D01*
X319000Y201487D02*
X319400Y201887D01*
X319800D01*
X319400Y202287D01*
X319800Y202687D01*
X319400D01*
X319000Y203087D01*
X318600Y202687D01*
X318200D01*
X318600Y202287D01*
X318200Y201887D01*
X318600D01*
X319000Y201487D01*
Y201887D02*
X319200Y202087D01*
X319400D01*
X319200Y202287D01*
X319400Y202487D01*
X319200D01*
X319000Y202687D01*
X318800Y202487D01*
X318600D01*
X318800Y202287D01*
X318600Y202087D01*
X318800D01*
X319000Y201887D01*
X170898Y313200D02*
X171298Y313600D01*
X171698D01*
X171298Y314000D01*
X171698Y314400D01*
X171298D01*
X170898Y314800D01*
X170498Y314400D01*
X170098D01*
X170498Y314000D01*
X170098Y313600D01*
X170498D01*
X170898Y313200D01*
Y313600D02*
X171098Y313800D01*
X171298D01*
X171098Y314000D01*
X171298Y314200D01*
X171098D01*
X170898Y314400D01*
X170698Y314200D01*
X170498D01*
X170698Y314000D01*
X170498Y313800D01*
X170698D01*
X170898Y313600D01*
X107713Y377437D02*
X108113Y377837D01*
X108513D01*
X108113Y378237D01*
X108513Y378637D01*
X108113D01*
X107713Y379037D01*
X107313Y378637D01*
X106913D01*
X107313Y378237D01*
X106913Y377837D01*
X107313D01*
X107713Y377437D01*
Y377837D02*
X107913Y378037D01*
X108113D01*
X107913Y378237D01*
X108113Y378437D01*
X107913D01*
X107713Y378637D01*
X107513Y378437D01*
X107313D01*
X107513Y378237D01*
X107313Y378037D01*
X107513D01*
X107713Y377837D01*
X103000Y367437D02*
X103400Y367837D01*
X103800D01*
X103400Y368237D01*
X103800Y368637D01*
X103400D01*
X103000Y369037D01*
X102600Y368637D01*
X102200D01*
X102600Y368237D01*
X102200Y367837D01*
X102600D01*
X103000Y367437D01*
Y367837D02*
X103200Y368037D01*
X103400D01*
X103200Y368237D01*
X103400Y368437D01*
X103200D01*
X103000Y368637D01*
X102800Y368437D01*
X102600D01*
X102800Y368237D01*
X102600Y368037D01*
X102800D01*
X103000Y367837D01*
X110000Y354207D02*
X110400Y354607D01*
X110800D01*
X110400Y355007D01*
X110800Y355407D01*
X110400D01*
X110000Y355807D01*
X109600Y355407D01*
X109200D01*
X109600Y355007D01*
X109200Y354607D01*
X109600D01*
X110000Y354207D01*
Y354607D02*
X110200Y354807D01*
X110400D01*
X110200Y355007D01*
X110400Y355207D01*
X110200D01*
X110000Y355407D01*
X109800Y355207D01*
X109600D01*
X109800Y355007D01*
X109600Y354807D01*
X109800D01*
X110000Y354607D01*
X130000Y376200D02*
X130400Y376600D01*
X130800D01*
X130400Y377000D01*
X130800Y377400D01*
X130400D01*
X130000Y377800D01*
X129600Y377400D01*
X129200D01*
X129600Y377000D01*
X129200Y376600D01*
X129600D01*
X130000Y376200D01*
Y376600D02*
X130200Y376800D01*
X130400D01*
X130200Y377000D01*
X130400Y377200D01*
X130200D01*
X130000Y377400D01*
X129800Y377200D01*
X129600D01*
X129800Y377000D01*
X129600Y376800D01*
X129800D01*
X130000Y376600D01*
X110000Y399720D02*
X110400Y400120D01*
X110800D01*
X110400Y400520D01*
X110800Y400920D01*
X110400D01*
X110000Y401320D01*
X109600Y400920D01*
X109200D01*
X109600Y400520D01*
X109200Y400120D01*
X109600D01*
X110000Y399720D01*
Y400120D02*
X110200Y400320D01*
X110400D01*
X110200Y400520D01*
X110400Y400720D01*
X110200D01*
X110000Y400920D01*
X109800Y400720D01*
X109600D01*
X109800Y400520D01*
X109600Y400320D01*
X109800D01*
X110000Y400120D01*
X113000Y376200D02*
X113400Y376600D01*
X113800D01*
X113400Y377000D01*
X113800Y377400D01*
X113400D01*
X113000Y377800D01*
X112600Y377400D01*
X112200D01*
X112600Y377000D01*
X112200Y376600D01*
X112600D01*
X113000Y376200D01*
Y376600D02*
X113200Y376800D01*
X113400D01*
X113200Y377000D01*
X113400Y377200D01*
X113200D01*
X113000Y377400D01*
X112800Y377200D01*
X112600D01*
X112800Y377000D01*
X112600Y376800D01*
X112800D01*
X113000Y376600D01*
X96061Y296971D02*
X96460Y297371D01*
X96860D01*
X96460Y297771D01*
X96860Y298171D01*
X96460D01*
X96061Y298571D01*
X95661Y298171D01*
X95261D01*
X95661Y297771D01*
X95261Y297371D01*
X95661D01*
X96061Y296971D01*
Y297371D02*
X96260Y297571D01*
X96460D01*
X96260Y297771D01*
X96460Y297971D01*
X96260D01*
X96061Y298171D01*
X95860Y297971D01*
X95661D01*
X95860Y297771D01*
X95661Y297571D01*
X95860D01*
X96061Y297371D01*
X96000Y318200D02*
X96400Y318600D01*
X96800D01*
X96400Y319000D01*
X96800Y319400D01*
X96400D01*
X96000Y319800D01*
X95600Y319400D01*
X95200D01*
X95600Y319000D01*
X95200Y318600D01*
X95600D01*
X96000Y318200D01*
Y318600D02*
X96200Y318800D01*
X96400D01*
X96200Y319000D01*
X96400Y319200D01*
X96200D01*
X96000Y319400D01*
X95800Y319200D01*
X95600D01*
X95800Y319000D01*
X95600Y318800D01*
X95800D01*
X96000Y318600D01*
X234713Y223200D02*
X235113Y223600D01*
X235513D01*
X235113Y224000D01*
X235513Y224400D01*
X235113D01*
X234713Y224800D01*
X234313Y224400D01*
X233913D01*
X234313Y224000D01*
X233913Y223600D01*
X234313D01*
X234713Y223200D01*
Y223600D02*
X234913Y223800D01*
X235113D01*
X234913Y224000D01*
X235113Y224200D01*
X234913D01*
X234713Y224400D01*
X234513Y224200D01*
X234313D01*
X234513Y224000D01*
X234313Y223800D01*
X234513D01*
X234713Y223600D01*
X83000Y153200D02*
X83400Y153600D01*
X83800D01*
X83400Y154000D01*
X83800Y154400D01*
X83400D01*
X83000Y154800D01*
X82600Y154400D01*
X82200D01*
X82600Y154000D01*
X82200Y153600D01*
X82600D01*
X83000Y153200D01*
Y153600D02*
X83200Y153800D01*
X83400D01*
X83200Y154000D01*
X83400Y154200D01*
X83200D01*
X83000Y154400D01*
X82800Y154200D01*
X82600D01*
X82800Y154000D01*
X82600Y153800D01*
X82800D01*
X83000Y153600D01*
X82287Y181200D02*
X82687Y181600D01*
X83087D01*
X82687Y182000D01*
X83087Y182400D01*
X82687D01*
X82287Y182800D01*
X81887Y182400D01*
X81487D01*
X81887Y182000D01*
X81487Y181600D01*
X81887D01*
X82287Y181200D01*
Y181600D02*
X82487Y181800D01*
X82687D01*
X82487Y182000D01*
X82687Y182200D01*
X82487D01*
X82287Y182400D01*
X82087Y182200D01*
X81887D01*
X82087Y182000D01*
X81887Y181800D01*
X82087D01*
X82287Y181600D01*
X125000Y318200D02*
X125400Y318600D01*
X125800D01*
X125400Y319000D01*
X125800Y319400D01*
X125400D01*
X125000Y319800D01*
X124600Y319400D01*
X124200D01*
X124600Y319000D01*
X124200Y318600D01*
X124600D01*
X125000Y318200D01*
Y318600D02*
X125200Y318800D01*
X125400D01*
X125200Y319000D01*
X125400Y319200D01*
X125200D01*
X125000Y319400D01*
X124800Y319200D01*
X124600D01*
X124800Y319000D01*
X124600Y318800D01*
X124800D01*
X125000Y318600D01*
X130000Y367437D02*
X130400Y367837D01*
X130800D01*
X130400Y368237D01*
X130800Y368637D01*
X130400D01*
X130000Y369037D01*
X129600Y368637D01*
X129200D01*
X129600Y368237D01*
X129200Y367837D01*
X129600D01*
X130000Y367437D01*
Y367837D02*
X130200Y368037D01*
X130400D01*
X130200Y368237D01*
X130400Y368437D01*
X130200D01*
X130000Y368637D01*
X129800Y368437D01*
X129600D01*
X129800Y368237D01*
X129600Y368037D01*
X129800D01*
X130000Y367837D01*
X135000Y351200D02*
X135400Y351600D01*
X135800D01*
X135400Y352000D01*
X135800Y352400D01*
X135400D01*
X135000Y352800D01*
X134600Y352400D01*
X134200D01*
X134600Y352000D01*
X134200Y351600D01*
X134600D01*
X135000Y351200D01*
Y351600D02*
X135200Y351800D01*
X135400D01*
X135200Y352000D01*
X135400Y352200D01*
X135200D01*
X135000Y352400D01*
X134800Y352200D01*
X134600D01*
X134800Y352000D01*
X134600Y351800D01*
X134800D01*
X135000Y351600D01*
X116000Y385200D02*
X116400Y385600D01*
X116800D01*
X116400Y386000D01*
X116800Y386400D01*
X116400D01*
X116000Y386800D01*
X115600Y386400D01*
X115200D01*
X115600Y386000D01*
X115200Y385600D01*
X115600D01*
X116000Y385200D01*
Y385600D02*
X116200Y385800D01*
X116400D01*
X116200Y386000D01*
X116400Y386200D01*
X116200D01*
X116000Y386400D01*
X115800Y386200D01*
X115600D01*
X115800Y386000D01*
X115600Y385800D01*
X115800D01*
X116000Y385600D01*
X131000Y385200D02*
X131400Y385600D01*
X131800D01*
X131400Y386000D01*
X131800Y386400D01*
X131400D01*
X131000Y386800D01*
X130600Y386400D01*
X130200D01*
X130600Y386000D01*
X130200Y385600D01*
X130600D01*
X131000Y385200D01*
Y385600D02*
X131200Y385800D01*
X131400D01*
X131200Y386000D01*
X131400Y386200D01*
X131200D01*
X131000Y386400D01*
X130800Y386200D01*
X130600D01*
X130800Y386000D01*
X130600Y385800D01*
X130800D01*
X131000Y385600D01*
Y402007D02*
X131400Y402407D01*
X131800D01*
X131400Y402807D01*
X131800Y403207D01*
X131400D01*
X131000Y403607D01*
X130600Y403207D01*
X130200D01*
X130600Y402807D01*
X130200Y402407D01*
X130600D01*
X131000Y402007D01*
Y402407D02*
X131200Y402607D01*
X131400D01*
X131200Y402807D01*
X131400Y403007D01*
X131200D01*
X131000Y403207D01*
X130800Y403007D01*
X130600D01*
X130800Y402807D01*
X130600Y402607D01*
X130800D01*
X131000Y402407D01*
X112816Y410362D02*
X113216Y410762D01*
X113616D01*
X113216Y411162D01*
X113616Y411562D01*
X113216D01*
X112816Y411962D01*
X112416Y411562D01*
X112016D01*
X112416Y411162D01*
X112016Y410762D01*
X112416D01*
X112816Y410362D01*
Y410762D02*
X113016Y410962D01*
X113216D01*
X113016Y411162D01*
X113216Y411362D01*
X113016D01*
X112816Y411562D01*
X112616Y411362D01*
X112416D01*
X112616Y411162D01*
X112416Y410962D01*
X112616D01*
X112816Y410762D01*
X125000Y417279D02*
X125400Y417679D01*
X125800D01*
X125400Y418079D01*
X125800Y418479D01*
X125400D01*
X125000Y418879D01*
X124600Y418479D01*
X124200D01*
X124600Y418079D01*
X124200Y417679D01*
X124600D01*
X125000Y417279D01*
Y417679D02*
X125200Y417879D01*
X125400D01*
X125200Y418079D01*
X125400Y418279D01*
X125200D01*
X125000Y418479D01*
X124800Y418279D01*
X124600D01*
X124800Y418079D01*
X124600Y417879D01*
X124800D01*
X125000Y417679D01*
X144000Y450200D02*
X144400Y450600D01*
X144800D01*
X144400Y451000D01*
X144800Y451400D01*
X144400D01*
X144000Y451800D01*
X143600Y451400D01*
X143200D01*
X143600Y451000D01*
X143200Y450600D01*
X143600D01*
X144000Y450200D01*
Y450600D02*
X144200Y450800D01*
X144400D01*
X144200Y451000D01*
X144400Y451200D01*
X144200D01*
X144000Y451400D01*
X143800Y451200D01*
X143600D01*
X143800Y451000D01*
X143600Y450800D01*
X143800D01*
X144000Y450600D01*
X146287Y362437D02*
X146687Y362837D01*
X147087D01*
X146687Y363237D01*
X147087Y363637D01*
X146687D01*
X146287Y364037D01*
X145887Y363637D01*
X145487D01*
X145887Y363237D01*
X145487Y362837D01*
X145887D01*
X146287Y362437D01*
Y362837D02*
X146487Y363037D01*
X146687D01*
X146487Y363237D01*
X146687Y363437D01*
X146487D01*
X146287Y363637D01*
X146087Y363437D01*
X145887D01*
X146087Y363237D01*
X145887Y363037D01*
X146087D01*
X146287Y362837D01*
Y402437D02*
X146687Y402837D01*
X147087D01*
X146687Y403237D01*
X147087Y403637D01*
X146687D01*
X146287Y404037D01*
X145887Y403637D01*
X145487D01*
X145887Y403237D01*
X145487Y402837D01*
X145887D01*
X146287Y402437D01*
Y402837D02*
X146487Y403037D01*
X146687D01*
X146487Y403237D01*
X146687Y403437D01*
X146487D01*
X146287Y403637D01*
X146087Y403437D01*
X145887D01*
X146087Y403237D01*
X145887Y403037D01*
X146087D01*
X146287Y402837D01*
X146828Y342437D02*
X147228Y342837D01*
X147628D01*
X147228Y343237D01*
X147628Y343637D01*
X147228D01*
X146828Y344037D01*
X146428Y343637D01*
X146028D01*
X146428Y343237D01*
X146028Y342837D01*
X146428D01*
X146828Y342437D01*
Y342837D02*
X147028Y343037D01*
X147228D01*
X147028Y343237D01*
X147228Y343437D01*
X147028D01*
X146828Y343637D01*
X146628Y343437D01*
X146428D01*
X146628Y343237D01*
X146428Y343037D01*
X146628D01*
X146828Y342837D01*
X147000Y323200D02*
X147400Y323600D01*
X147800D01*
X147400Y324000D01*
X147800Y324400D01*
X147400D01*
X147000Y324800D01*
X146600Y324400D01*
X146200D01*
X146600Y324000D01*
X146200Y323600D01*
X146600D01*
X147000Y323200D01*
Y323600D02*
X147200Y323800D01*
X147400D01*
X147200Y324000D01*
X147400Y324200D01*
X147200D01*
X147000Y324400D01*
X146800Y324200D01*
X146600D01*
X146800Y324000D01*
X146600Y323800D01*
X146800D01*
X147000Y323600D01*
X170898Y339200D02*
X171298Y339600D01*
X171698D01*
X171298Y340000D01*
X171698Y340400D01*
X171298D01*
X170898Y340800D01*
X170498Y340400D01*
X170098D01*
X170498Y340000D01*
X170098Y339600D01*
X170498D01*
X170898Y339200D01*
Y339600D02*
X171098Y339800D01*
X171298D01*
X171098Y340000D01*
X171298Y340200D01*
X171098D01*
X170898Y340400D01*
X170698Y340200D01*
X170498D01*
X170698Y340000D01*
X170498Y339800D01*
X170698D01*
X170898Y339600D01*
X169000Y445200D02*
X169400Y445600D01*
X169800D01*
X169400Y446000D01*
X169800Y446400D01*
X169400D01*
X169000Y446800D01*
X168600Y446400D01*
X168200D01*
X168600Y446000D01*
X168200Y445600D01*
X168600D01*
X169000Y445200D01*
Y445600D02*
X169200Y445800D01*
X169400D01*
X169200Y446000D01*
X169400Y446200D01*
X169200D01*
X169000Y446400D01*
X168800Y446200D01*
X168600D01*
X168800Y446000D01*
X168600Y445800D01*
X168800D01*
X169000Y445600D01*
X166284Y387484D02*
X166684Y387884D01*
X167084D01*
X166684Y388284D01*
X167084Y388684D01*
X166684D01*
X166284Y389084D01*
X165884Y388684D01*
X165484D01*
X165884Y388284D01*
X165484Y387884D01*
X165884D01*
X166284Y387484D01*
Y387884D02*
X166484Y388084D01*
X166684D01*
X166484Y388284D01*
X166684Y388484D01*
X166484D01*
X166284Y388684D01*
X166084Y388484D01*
X165884D01*
X166084Y388284D01*
X165884Y388084D01*
X166084D01*
X166284Y387884D01*
X167000Y378200D02*
X167400Y378600D01*
X167800D01*
X167400Y379000D01*
X167800Y379400D01*
X167400D01*
X167000Y379800D01*
X166600Y379400D01*
X166200D01*
X166600Y379000D01*
X166200Y378600D01*
X166600D01*
X167000Y378200D01*
Y378600D02*
X167200Y378800D01*
X167400D01*
X167200Y379000D01*
X167400Y379200D01*
X167200D01*
X167000Y379400D01*
X166800Y379200D01*
X166600D01*
X166800Y379000D01*
X166600Y378800D01*
X166800D01*
X167000Y378600D01*
X170613Y298200D02*
X171013Y298600D01*
X171413D01*
X171013Y299000D01*
X171413Y299400D01*
X171013D01*
X170613Y299800D01*
X170213Y299400D01*
X169813D01*
X170213Y299000D01*
X169813Y298600D01*
X170213D01*
X170613Y298200D01*
Y298600D02*
X170813Y298800D01*
X171013D01*
X170813Y299000D01*
X171013Y299200D01*
X170813D01*
X170613Y299400D01*
X170413Y299200D01*
X170213D01*
X170413Y299000D01*
X170213Y298800D01*
X170413D01*
X170613Y298600D01*
X161000Y297200D02*
X161400Y297600D01*
X161800D01*
X161400Y298000D01*
X161800Y298400D01*
X161400D01*
X161000Y298800D01*
X160600Y298400D01*
X160200D01*
X160600Y298000D01*
X160200Y297600D01*
X160600D01*
X161000Y297200D01*
Y297600D02*
X161200Y297800D01*
X161400D01*
X161200Y298000D01*
X161400Y298200D01*
X161200D01*
X161000Y298400D01*
X160800Y298200D01*
X160600D01*
X160800Y298000D01*
X160600Y297800D01*
X160800D01*
X161000Y297600D01*
X168325Y263834D02*
X168725Y264234D01*
X169125D01*
X168725Y264634D01*
X169125Y265034D01*
X168725D01*
X168325Y265434D01*
X167925Y265034D01*
X167525D01*
X167925Y264634D01*
X167525Y264234D01*
X167925D01*
X168325Y263834D01*
Y264234D02*
X168525Y264434D01*
X168725D01*
X168525Y264634D01*
X168725Y264834D01*
X168525D01*
X168325Y265034D01*
X168125Y264834D01*
X167925D01*
X168125Y264634D01*
X167925Y264434D01*
X168125D01*
X168325Y264234D01*
X163287Y261114D02*
X163687Y261514D01*
X164087D01*
X163687Y261914D01*
X164087Y262314D01*
X163687D01*
X163287Y262714D01*
X162887Y262314D01*
X162487D01*
X162887Y261914D01*
X162487Y261514D01*
X162887D01*
X163287Y261114D01*
Y261514D02*
X163487Y261714D01*
X163687D01*
X163487Y261914D01*
X163687Y262114D01*
X163487D01*
X163287Y262314D01*
X163087Y262114D01*
X162887D01*
X163087Y261914D01*
X162887Y261714D01*
X163087D01*
X163287Y261514D01*
X164000Y236200D02*
X164400Y236600D01*
X164800D01*
X164400Y237000D01*
X164800Y237400D01*
X164400D01*
X164000Y237800D01*
X163600Y237400D01*
X163200D01*
X163600Y237000D01*
X163200Y236600D01*
X163600D01*
X164000Y236200D01*
Y236600D02*
X164200Y236800D01*
X164400D01*
X164200Y237000D01*
X164400Y237200D01*
X164200D01*
X164000Y237400D01*
X163800Y237200D01*
X163600D01*
X163800Y237000D01*
X163600Y236800D01*
X163800D01*
X164000Y236600D01*
X140000Y354207D02*
X140400Y354607D01*
X140800D01*
X140400Y355007D01*
X140800Y355407D01*
X140400D01*
X140000Y355807D01*
X139600Y355407D01*
X139200D01*
X139600Y355007D01*
X139200Y354607D01*
X139600D01*
X140000Y354207D01*
Y354607D02*
X140200Y354807D01*
X140400D01*
X140200Y355007D01*
X140400Y355207D01*
X140200D01*
X140000Y355407D01*
X139800Y355207D01*
X139600D01*
X139800Y355007D01*
X139600Y354807D01*
X139800D01*
X140000Y354607D01*
X148369Y352851D02*
X148769Y353251D01*
X149169D01*
X148769Y353651D01*
X149169Y354051D01*
X148769D01*
X148369Y354451D01*
X147969Y354051D01*
X147569D01*
X147969Y353651D01*
X147569Y353251D01*
X147969D01*
X148369Y352851D01*
Y353251D02*
X148569Y353451D01*
X148769D01*
X148569Y353651D01*
X148769Y353851D01*
X148569D01*
X148369Y354051D01*
X148169Y353851D01*
X147969D01*
X148169Y353651D01*
X147969Y353451D01*
X148169D01*
X148369Y353251D01*
X125000Y350913D02*
X125400Y351313D01*
X125800D01*
X125400Y351713D01*
X125800Y352113D01*
X125400D01*
X125000Y352513D01*
X124600Y352113D01*
X124200D01*
X124600Y351713D01*
X124200Y351313D01*
X124600D01*
X125000Y350913D01*
Y351313D02*
X125200Y351513D01*
X125400D01*
X125200Y351713D01*
X125400Y351913D01*
X125200D01*
X125000Y352113D01*
X124800Y351913D01*
X124600D01*
X124800Y351713D01*
X124600Y351513D01*
X124800D01*
X125000Y351313D01*
X104000Y410362D02*
X104400Y410762D01*
X104800D01*
X104400Y411162D01*
X104800Y411562D01*
X104400D01*
X104000Y411962D01*
X103600Y411562D01*
X103200D01*
X103600Y411162D01*
X103200Y410762D01*
X103600D01*
X104000Y410362D01*
Y410762D02*
X104200Y410962D01*
X104400D01*
X104200Y411162D01*
X104400Y411362D01*
X104200D01*
X104000Y411562D01*
X103800Y411362D01*
X103600D01*
X103800Y411162D01*
X103600Y410962D01*
X103800D01*
X104000Y410762D01*
X148024Y387921D02*
X148424Y388321D01*
X148824D01*
X148424Y388721D01*
X148824Y389121D01*
X148424D01*
X148024Y389521D01*
X147624Y389121D01*
X147224D01*
X147624Y388721D01*
X147224Y388321D01*
X147624D01*
X148024Y387921D01*
Y388321D02*
X148224Y388521D01*
X148424D01*
X148224Y388721D01*
X148424Y388921D01*
X148224D01*
X148024Y389121D01*
X147824Y388921D01*
X147624D01*
X147824Y388721D01*
X147624Y388521D01*
X147824D01*
X148024Y388321D01*
X147296Y372904D02*
X147696Y373304D01*
X148096D01*
X147696Y373704D01*
X148096Y374104D01*
X147696D01*
X147296Y374504D01*
X146896Y374104D01*
X146496D01*
X146896Y373704D01*
X146496Y373304D01*
X146896D01*
X147296Y372904D01*
Y373304D02*
X147496Y373504D01*
X147696D01*
X147496Y373704D01*
X147696Y373904D01*
X147496D01*
X147296Y374104D01*
X147096Y373904D01*
X146896D01*
X147096Y373704D01*
X146896Y373504D01*
X147096D01*
X147296Y373304D01*
X170000Y371200D02*
X170400Y371600D01*
X170800D01*
X170400Y372000D01*
X170800Y372400D01*
X170400D01*
X170000Y372800D01*
X169600Y372400D01*
X169200D01*
X169600Y372000D01*
X169200Y371600D01*
X169600D01*
X170000Y371200D01*
Y371600D02*
X170200Y371800D01*
X170400D01*
X170200Y372000D01*
X170400Y372200D01*
X170200D01*
X170000Y372400D01*
X169800Y372200D01*
X169600D01*
X169800Y372000D01*
X169600Y371800D01*
X169800D01*
X170000Y371600D01*
X169000Y158872D02*
X169400Y159272D01*
X169800D01*
X169400Y159672D01*
X169800Y160072D01*
X169400D01*
X169000Y160472D01*
X168600Y160072D01*
X168200D01*
X168600Y159672D01*
X168200Y159272D01*
X168600D01*
X169000Y158872D01*
Y159272D02*
X169200Y159472D01*
X169400D01*
X169200Y159672D01*
X169400Y159872D01*
X169200D01*
X169000Y160072D01*
X168800Y159872D01*
X168600D01*
X168800Y159672D01*
X168600Y159472D01*
X168800D01*
X169000Y159272D01*
X244898Y343200D02*
X245298Y343600D01*
X245698D01*
X245298Y344000D01*
X245698Y344400D01*
X245298D01*
X244898Y344800D01*
X244498Y344400D01*
X244098D01*
X244498Y344000D01*
X244098Y343600D01*
X244498D01*
X244898Y343200D01*
Y343600D02*
X245098Y343800D01*
X245298D01*
X245098Y344000D01*
X245298Y344200D01*
X245098D01*
X244898Y344400D01*
X244698Y344200D01*
X244498D01*
X244698Y344000D01*
X244498Y343800D01*
X244698D01*
X244898Y343600D01*
X318898Y346200D02*
X319298Y346600D01*
X319698D01*
X319298Y347000D01*
X319698Y347400D01*
X319298D01*
X318898Y347800D01*
X318498Y347400D01*
X318098D01*
X318498Y347000D01*
X318098Y346600D01*
X318498D01*
X318898Y346200D01*
Y346600D02*
X319098Y346800D01*
X319298D01*
X319098Y347000D01*
X319298Y347200D01*
X319098D01*
X318898Y347400D01*
X318698Y347200D01*
X318498D01*
X318698Y347000D01*
X318498Y346800D01*
X318698D01*
X318898Y346600D01*
X392898Y349200D02*
X393298Y349600D01*
X393698D01*
X393298Y350000D01*
X393698Y350400D01*
X393298D01*
X392898Y350800D01*
X392498Y350400D01*
X392098D01*
X392498Y350000D01*
X392098Y349600D01*
X392498D01*
X392898Y349200D01*
Y349600D02*
X393098Y349800D01*
X393298D01*
X393098Y350000D01*
X393298Y350200D01*
X393098D01*
X392898Y350400D01*
X392698Y350200D01*
X392498D01*
X392698Y350000D01*
X392498Y349800D01*
X392698D01*
X392898Y349600D01*
X466799Y326102D02*
X467199Y326502D01*
X467599D01*
X467199Y326902D01*
X467599Y327302D01*
X467199D01*
X466799Y327702D01*
X466399Y327302D01*
X465999D01*
X466399Y326902D01*
X465999Y326502D01*
X466399D01*
X466799Y326102D01*
Y326502D02*
X466999Y326702D01*
X467199D01*
X466999Y326902D01*
X467199Y327102D01*
X466999D01*
X466799Y327302D01*
X466599Y327102D01*
X466399D01*
X466599Y326902D01*
X466399Y326702D01*
X466599D01*
X466799Y326502D01*
X560898Y303200D02*
X561298Y303600D01*
X561698D01*
X561298Y304000D01*
X561698Y304400D01*
X561298D01*
X560898Y304800D01*
X560498Y304400D01*
X560098D01*
X560498Y304000D01*
X560098Y303600D01*
X560498D01*
X560898Y303200D01*
Y303600D02*
X561098Y303800D01*
X561298D01*
X561098Y304000D01*
X561298Y304200D01*
X561098D01*
X560898Y304400D01*
X560698Y304200D01*
X560498D01*
X560698Y304000D01*
X560498Y303800D01*
X560698D01*
X560898Y303600D01*
X336000Y164200D02*
X336400Y164600D01*
X336800D01*
X336400Y165000D01*
X336800Y165400D01*
X336400D01*
X336000Y165800D01*
X335600Y165400D01*
X335200D01*
X335600Y165000D01*
X335200Y164600D01*
X335600D01*
X336000Y164200D01*
Y164600D02*
X336200Y164800D01*
X336400D01*
X336200Y165000D01*
X336400Y165200D01*
X336200D01*
X336000Y165400D01*
X335800Y165200D01*
X335600D01*
X335800Y165000D01*
X335600Y164800D01*
X335800D01*
X336000Y164600D01*
X456000Y234200D02*
X456400Y234600D01*
X456800D01*
X456400Y235000D01*
X456800Y235400D01*
X456400D01*
X456000Y235800D01*
X455600Y235400D01*
X455200D01*
X455600Y235000D01*
X455200Y234600D01*
X455600D01*
X456000Y234200D01*
Y234600D02*
X456200Y234800D01*
X456400D01*
X456200Y235000D01*
X456400Y235200D01*
X456200D01*
X456000Y235400D01*
X455800Y235200D01*
X455600D01*
X455800Y235000D01*
X455600Y234800D01*
X455800D01*
X456000Y234600D01*
X466000Y197200D02*
X466400Y197600D01*
X466800D01*
X466400Y198000D01*
X466800Y198400D01*
X466400D01*
X466000Y198800D01*
X465600Y198400D01*
X465200D01*
X465600Y198000D01*
X465200Y197600D01*
X465600D01*
X466000Y197200D01*
Y197600D02*
X466200Y197800D01*
X466400D01*
X466200Y198000D01*
X466400Y198200D01*
X466200D01*
X466000Y198400D01*
X465800Y198200D01*
X465600D01*
X465800Y198000D01*
X465600Y197800D01*
X465800D01*
X466000Y197600D01*
X530000Y197200D02*
X530400Y197600D01*
X530800D01*
X530400Y198000D01*
X530800Y198400D01*
X530400D01*
X530000Y198800D01*
X529600Y198400D01*
X529200D01*
X529600Y198000D01*
X529200Y197600D01*
X529600D01*
X530000Y197200D01*
Y197600D02*
X530200Y197800D01*
X530400D01*
X530200Y198000D01*
X530400Y198200D01*
X530200D01*
X530000Y198400D01*
X529800Y198200D01*
X529600D01*
X529800Y198000D01*
X529600Y197800D01*
X529800D01*
X530000Y197600D01*
X383000Y391200D02*
X383400Y391600D01*
X383800D01*
X383400Y392000D01*
X383800Y392400D01*
X383400D01*
X383000Y392800D01*
X382600Y392400D01*
X382200D01*
X382600Y392000D01*
X382200Y391600D01*
X382600D01*
X383000Y391200D01*
Y391600D02*
X383200Y391800D01*
X383400D01*
X383200Y392000D01*
X383400Y392200D01*
X383200D01*
X383000Y392400D01*
X382800Y392200D01*
X382600D01*
X382800Y392000D01*
X382600Y391800D01*
X382800D01*
X383000Y391600D01*
X318000Y392200D02*
X318400Y392600D01*
X318800D01*
X318400Y393000D01*
X318800Y393400D01*
X318400D01*
X318000Y393800D01*
X317600Y393400D01*
X317200D01*
X317600Y393000D01*
X317200Y392600D01*
X317600D01*
X318000Y392200D01*
Y392600D02*
X318200Y392800D01*
X318400D01*
X318200Y393000D01*
X318400Y393200D01*
X318200D01*
X318000Y393400D01*
X317800Y393200D01*
X317600D01*
X317800Y393000D01*
X317600Y392800D01*
X317800D01*
X318000Y392600D01*
X454536Y379736D02*
X454936Y380136D01*
X455336D01*
X454936Y380536D01*
X455336Y380936D01*
X454936D01*
X454536Y381336D01*
X454136Y380936D01*
X453736D01*
X454136Y380536D01*
X453736Y380136D01*
X454136D01*
X454536Y379736D01*
Y380136D02*
X454736Y380336D01*
X454936D01*
X454736Y380536D01*
X454936Y380736D01*
X454736D01*
X454536Y380936D01*
X454336Y380736D01*
X454136D01*
X454336Y380536D01*
X454136Y380336D01*
X454336D01*
X454536Y380136D01*
X529642Y345060D02*
X530042Y345460D01*
X530442D01*
X530042Y345860D01*
X530442Y346260D01*
X530042D01*
X529642Y346660D01*
X529242Y346260D01*
X528842D01*
X529242Y345860D01*
X528842Y345460D01*
X529242D01*
X529642Y345060D01*
Y345460D02*
X529842Y345660D01*
X530042D01*
X529842Y345860D01*
X530042Y346060D01*
X529842D01*
X529642Y346260D01*
X529442Y346060D01*
X529242D01*
X529442Y345860D01*
X529242Y345660D01*
X529442D01*
X529642Y345460D01*
X466000Y346200D02*
X466400Y346600D01*
X466800D01*
X466400Y347000D01*
X466800Y347400D01*
X466400D01*
X466000Y347800D01*
X465600Y347400D01*
X465200D01*
X465600Y347000D01*
X465200Y346600D01*
X465600D01*
X466000Y346200D01*
Y346600D02*
X466200Y346800D01*
X466400D01*
X466200Y347000D01*
X466400Y347200D01*
X466200D01*
X466000Y347400D01*
X465800Y347200D01*
X465600D01*
X465800Y347000D01*
X465600Y346800D01*
X465800D01*
X466000Y346600D01*
X560000Y337200D02*
X560400Y337600D01*
X560800D01*
X560400Y338000D01*
X560800Y338400D01*
X560400D01*
X560000Y338800D01*
X559600Y338400D01*
X559200D01*
X559600Y338000D01*
X559200Y337600D01*
X559600D01*
X560000Y337200D01*
Y337600D02*
X560200Y337800D01*
X560400D01*
X560200Y338000D01*
X560400Y338200D01*
X560200D01*
X560000Y338400D01*
X559800Y338200D01*
X559600D01*
X559800Y338000D01*
X559600Y337800D01*
X559800D01*
X560000Y337600D01*
X143000Y79200D02*
X143400Y79600D01*
X143800D01*
X143400Y80000D01*
X143800Y80400D01*
X143400D01*
X143000Y80800D01*
X142600Y80400D01*
X142200D01*
X142600Y80000D01*
X142200Y79600D01*
X142600D01*
X143000Y79200D01*
Y79600D02*
X143200Y79800D01*
X143400D01*
X143200Y80000D01*
X143400Y80200D01*
X143200D01*
X143000Y80400D01*
X142800Y80200D01*
X142600D01*
X142800Y80000D01*
X142600Y79800D01*
X142800D01*
X143000Y79600D01*
X102000Y130200D02*
X102400Y130600D01*
X102800D01*
X102400Y131000D01*
X102800Y131400D01*
X102400D01*
X102000Y131800D01*
X101600Y131400D01*
X101200D01*
X101600Y131000D01*
X101200Y130600D01*
X101600D01*
X102000Y130200D01*
Y130600D02*
X102200Y130800D01*
X102400D01*
X102200Y131000D01*
X102400Y131200D01*
X102200D01*
X102000Y131400D01*
X101800Y131200D01*
X101600D01*
X101800Y131000D01*
X101600Y130800D01*
X101800D01*
X102000Y130600D01*
X214000Y150200D02*
X214400Y150600D01*
X214800D01*
X214400Y151000D01*
X214800Y151400D01*
X214400D01*
X214000Y151800D01*
X213600Y151400D01*
X213200D01*
X213600Y151000D01*
X213200Y150600D01*
X213600D01*
X214000Y150200D01*
Y150600D02*
X214200Y150800D01*
X214400D01*
X214200Y151000D01*
X214400Y151200D01*
X214200D01*
X214000Y151400D01*
X213800Y151200D01*
X213600D01*
X213800Y151000D01*
X213600Y150800D01*
X213800D01*
X214000Y150600D01*
X155000Y124200D02*
X155400Y124600D01*
X155800D01*
X155400Y125000D01*
X155800Y125400D01*
X155400D01*
X155000Y125800D01*
X154600Y125400D01*
X154200D01*
X154600Y125000D01*
X154200Y124600D01*
X154600D01*
X155000Y124200D01*
Y124600D02*
X155200Y124800D01*
X155400D01*
X155200Y125000D01*
X155400Y125200D01*
X155200D01*
X155000Y125400D01*
X154800Y125200D01*
X154600D01*
X154800Y125000D01*
X154600Y124800D01*
X154800D01*
X155000Y124600D01*
X308000Y158200D02*
X308400Y158600D01*
X308800D01*
X308400Y159000D01*
X308800Y159400D01*
X308400D01*
X308000Y159800D01*
X307600Y159400D01*
X307200D01*
X307600Y159000D01*
X307200Y158600D01*
X307600D01*
X308000Y158200D01*
Y158600D02*
X308200Y158800D01*
X308400D01*
X308200Y159000D01*
X308400Y159200D01*
X308200D01*
X308000Y159400D01*
X307800Y159200D01*
X307600D01*
X307800Y159000D01*
X307600Y158800D01*
X307800D01*
X308000Y158600D01*
X243000Y159200D02*
X243400Y159600D01*
X243800D01*
X243400Y160000D01*
X243800Y160400D01*
X243400D01*
X243000Y160800D01*
X242600Y160400D01*
X242200D01*
X242600Y160000D01*
X242200Y159600D01*
X242600D01*
X243000Y159200D01*
Y159600D02*
X243200Y159800D01*
X243400D01*
X243200Y160000D01*
X243400Y160200D01*
X243200D01*
X243000Y160400D01*
X242800Y160200D01*
X242600D01*
X242800Y160000D01*
X242600Y159800D01*
X242800D01*
X243000Y159600D01*
X397000Y125200D02*
X397400Y125600D01*
X397800D01*
X397400Y126000D01*
X397800Y126400D01*
X397400D01*
X397000Y126800D01*
X396600Y126400D01*
X396200D01*
X396600Y126000D01*
X396200Y125600D01*
X396600D01*
X397000Y125200D01*
Y125600D02*
X397200Y125800D01*
X397400D01*
X397200Y126000D01*
X397400Y126200D01*
X397200D01*
X397000Y126400D01*
X396800Y126200D01*
X396600D01*
X396800Y126000D01*
X396600Y125800D01*
X396800D01*
X397000Y125600D01*
X338000Y151200D02*
X338400Y151600D01*
X338800D01*
X338400Y152000D01*
X338800Y152400D01*
X338400D01*
X338000Y152800D01*
X337600Y152400D01*
X337200D01*
X337600Y152000D01*
X337200Y151600D01*
X337600D01*
X338000Y151200D01*
Y151600D02*
X338200Y151800D01*
X338400D01*
X338200Y152000D01*
X338400Y152200D01*
X338200D01*
X338000Y152400D01*
X337800Y152200D01*
X337600D01*
X337800Y152000D01*
X337600Y151800D01*
X337800D01*
X338000Y151600D01*
X235000Y444200D02*
X235400Y444600D01*
X235800D01*
X235400Y445000D01*
X235800Y445400D01*
X235400D01*
X235000Y445800D01*
X234600Y445400D01*
X234200D01*
X234600Y445000D01*
X234200Y444600D01*
X234600D01*
X235000Y444200D01*
Y444600D02*
X235200Y444800D01*
X235400D01*
X235200Y445000D01*
X235400Y445200D01*
X235200D01*
X235000Y445400D01*
X234800Y445200D01*
X234600D01*
X234800Y445000D01*
X234600Y444800D01*
X234800D01*
X235000Y444600D01*
X234000Y298200D02*
X234400Y298600D01*
X234800D01*
X234400Y299000D01*
X234800Y299400D01*
X234400D01*
X234000Y299800D01*
X233600Y299400D01*
X233200D01*
X233600Y299000D01*
X233200Y298600D01*
X233600D01*
X234000Y298200D01*
Y298600D02*
X234200Y298800D01*
X234400D01*
X234200Y299000D01*
X234400Y299200D01*
X234200D01*
X234000Y299400D01*
X233800Y299200D01*
X233600D01*
X233800Y299000D01*
X233600Y298800D01*
X233800D01*
X234000Y298600D01*
X169000Y224200D02*
X169400Y224600D01*
X169800D01*
X169400Y225000D01*
X169800Y225400D01*
X169400D01*
X169000Y225800D01*
X168600Y225400D01*
X168200D01*
X168600Y225000D01*
X168200Y224600D01*
X168600D01*
X169000Y224200D01*
Y224600D02*
X169200Y224800D01*
X169400D01*
X169200Y225000D01*
X169400Y225200D01*
X169200D01*
X169000Y225400D01*
X168800Y225200D01*
X168600D01*
X168800Y225000D01*
X168600Y224800D01*
X168800D01*
X169000Y224600D01*
X308000Y454200D02*
X308400Y454600D01*
X308800D01*
X308400Y455000D01*
X308800Y455400D01*
X308400D01*
X308000Y455800D01*
X307600Y455400D01*
X307200D01*
X307600Y455000D01*
X307200Y454600D01*
X307600D01*
X308000Y454200D01*
Y454600D02*
X308200Y454800D01*
X308400D01*
X308200Y455000D01*
X308400Y455200D01*
X308200D01*
X308000Y455400D01*
X307800Y455200D01*
X307600D01*
X307800Y455000D01*
X307600Y454800D01*
X307800D01*
X308000Y454600D01*
X244000Y456200D02*
X244400Y456600D01*
X244800D01*
X244400Y457000D01*
X244800Y457400D01*
X244400D01*
X244000Y457800D01*
X243600Y457400D01*
X243200D01*
X243600Y457000D01*
X243200Y456600D01*
X243600D01*
X244000Y456200D01*
Y456600D02*
X244200Y456800D01*
X244400D01*
X244200Y457000D01*
X244400Y457200D01*
X244200D01*
X244000Y457400D01*
X243800Y457200D01*
X243600D01*
X243800Y457000D01*
X243600Y456800D01*
X243800D01*
X244000Y456600D01*
X309000Y382200D02*
X309400Y382600D01*
X309800D01*
X309400Y383000D01*
X309800Y383400D01*
X309400D01*
X309000Y383800D01*
X308600Y383400D01*
X308200D01*
X308600Y383000D01*
X308200Y382600D01*
X308600D01*
X309000Y382200D01*
Y382600D02*
X309200Y382800D01*
X309400D01*
X309200Y383000D01*
X309400Y383200D01*
X309200D01*
X309000Y383400D01*
X308800Y383200D01*
X308600D01*
X308800Y383000D01*
X308600Y382800D01*
X308800D01*
X309000Y382600D01*
X307000Y306200D02*
X307400Y306600D01*
X307800D01*
X307400Y307000D01*
X307800Y307400D01*
X307400D01*
X307000Y307800D01*
X306600Y307400D01*
X306200D01*
X306600Y307000D01*
X306200Y306600D01*
X306600D01*
X307000Y306200D01*
Y306600D02*
X307200Y306800D01*
X307400D01*
X307200Y307000D01*
X307400Y307200D01*
X307200D01*
X307000Y307400D01*
X306800Y307200D01*
X306600D01*
X306800Y307000D01*
X306600Y306800D01*
X306800D01*
X307000Y306600D01*
X243000Y308200D02*
X243400Y308600D01*
X243800D01*
X243400Y309000D01*
X243800Y309400D01*
X243400D01*
X243000Y309800D01*
X242600Y309400D01*
X242200D01*
X242600Y309000D01*
X242200Y308600D01*
X242600D01*
X243000Y308200D01*
Y308600D02*
X243200Y308800D01*
X243400D01*
X243200Y309000D01*
X243400Y309200D01*
X243200D01*
X243000Y309400D01*
X242800Y309200D01*
X242600D01*
X242800Y309000D01*
X242600Y308800D01*
X242800D01*
X243000Y308600D01*
X308304Y232189D02*
X308704Y232589D01*
X309104D01*
X308704Y232989D01*
X309104Y233389D01*
X308704D01*
X308304Y233789D01*
X307904Y233389D01*
X307504D01*
X307904Y232989D01*
X307504Y232589D01*
X307904D01*
X308304Y232189D01*
Y232589D02*
X308504Y232789D01*
X308704D01*
X308504Y232989D01*
X308704Y233189D01*
X308504D01*
X308304Y233389D01*
X308104Y233189D01*
X307904D01*
X308104Y232989D01*
X307904Y232789D01*
X308104D01*
X308304Y232589D01*
X243546Y233423D02*
X243946Y233823D01*
X244346D01*
X243946Y234223D01*
X244346Y234623D01*
X243946D01*
X243546Y235023D01*
X243146Y234623D01*
X242746D01*
X243146Y234223D01*
X242746Y233823D01*
X243146D01*
X243546Y233423D01*
Y233823D02*
X243746Y234023D01*
X243946D01*
X243746Y234223D01*
X243946Y234423D01*
X243746D01*
X243546Y234623D01*
X243346Y234423D01*
X243146D01*
X243346Y234223D01*
X243146Y234023D01*
X243346D01*
X243546Y233823D01*
X383000Y465200D02*
X383400Y465600D01*
X383800D01*
X383400Y466000D01*
X383800Y466400D01*
X383400D01*
X383000Y466800D01*
X382600Y466400D01*
X382200D01*
X382600Y466000D01*
X382200Y465600D01*
X382600D01*
X383000Y465200D01*
Y465600D02*
X383200Y465800D01*
X383400D01*
X383200Y466000D01*
X383400Y466200D01*
X383200D01*
X383000Y466400D01*
X382800Y466200D01*
X382600D01*
X382800Y466000D01*
X382600Y465800D01*
X382800D01*
X383000Y465600D01*
X317000Y465200D02*
X317400Y465600D01*
X317800D01*
X317400Y466000D01*
X317800Y466400D01*
X317400D01*
X317000Y466800D01*
X316600Y466400D01*
X316200D01*
X316600Y466000D01*
X316200Y465600D01*
X316600D01*
X317000Y465200D01*
Y465600D02*
X317200Y465800D01*
X317400D01*
X317200Y466000D01*
X317400Y466200D01*
X317200D01*
X317000Y466400D01*
X316800Y466200D01*
X316600D01*
X316800Y466000D01*
X316600Y465800D01*
X316800D01*
X317000Y465600D01*
X383043Y316868D02*
X383443Y317268D01*
X383843D01*
X383443Y317668D01*
X383843Y318068D01*
X383443D01*
X383043Y318468D01*
X382643Y318068D01*
X382243D01*
X382643Y317668D01*
X382243Y317268D01*
X382643D01*
X383043Y316868D01*
Y317268D02*
X383243Y317468D01*
X383443D01*
X383243Y317668D01*
X383443Y317868D01*
X383243D01*
X383043Y318068D01*
X382843Y317868D01*
X382643D01*
X382843Y317668D01*
X382643Y317468D01*
X382843D01*
X383043Y317268D01*
X317465Y317483D02*
X317865Y317883D01*
X318266D01*
X317865Y318283D01*
X318266Y318683D01*
X317865D01*
X317465Y319083D01*
X317066Y318683D01*
X316666D01*
X317066Y318283D01*
X316666Y317883D01*
X317066D01*
X317465Y317483D01*
Y317883D02*
X317666Y318083D01*
X317865D01*
X317666Y318283D01*
X317865Y318483D01*
X317666D01*
X317465Y318683D01*
X317266Y318483D01*
X317066D01*
X317266Y318283D01*
X317066Y318083D01*
X317266D01*
X317465Y317883D01*
X382838Y243094D02*
X383238Y243494D01*
X383638D01*
X383238Y243894D01*
X383638Y244294D01*
X383238D01*
X382838Y244694D01*
X382438Y244294D01*
X382038D01*
X382438Y243894D01*
X382038Y243494D01*
X382438D01*
X382838Y243094D01*
Y243494D02*
X383038Y243694D01*
X383238D01*
X383038Y243894D01*
X383238Y244094D01*
X383038D01*
X382838Y244294D01*
X382638Y244094D01*
X382438D01*
X382638Y243894D01*
X382438Y243694D01*
X382638D01*
X382838Y243494D01*
X318000Y244200D02*
X318400Y244600D01*
X318800D01*
X318400Y245000D01*
X318800Y245400D01*
X318400D01*
X318000Y245800D01*
X317600Y245400D01*
X317200D01*
X317600Y245000D01*
X317200Y244600D01*
X317600D01*
X318000Y244200D01*
Y244600D02*
X318200Y244800D01*
X318400D01*
X318200Y245000D01*
X318400Y245200D01*
X318200D01*
X318000Y245400D01*
X317800Y245200D01*
X317600D01*
X317800Y245000D01*
X317600Y244800D01*
X317800D01*
X318000Y244600D01*
X456000Y455200D02*
X456400Y455600D01*
X456800D01*
X456400Y456000D01*
X456800Y456400D01*
X456400D01*
X456000Y456800D01*
X455600Y456400D01*
X455200D01*
X455600Y456000D01*
X455200Y455600D01*
X455600D01*
X456000Y455200D01*
Y455600D02*
X456200Y455800D01*
X456400D01*
X456200Y456000D01*
X456400Y456200D01*
X456200D01*
X456000Y456400D01*
X455800Y456200D01*
X455600D01*
X455800Y456000D01*
X455600Y455800D01*
X455800D01*
X456000Y455600D01*
X392000Y455200D02*
X392400Y455600D01*
X392800D01*
X392400Y456000D01*
X392800Y456400D01*
X392400D01*
X392000Y456800D01*
X391600Y456400D01*
X391200D01*
X391600Y456000D01*
X391200Y455600D01*
X391600D01*
X392000Y455200D01*
Y455600D02*
X392200Y455800D01*
X392400D01*
X392200Y456000D01*
X392400Y456200D01*
X392200D01*
X392000Y456400D01*
X391800Y456200D01*
X391600D01*
X391800Y456000D01*
X391600Y455800D01*
X391800D01*
X392000Y455600D01*
Y382200D02*
X392400Y382600D01*
X392800D01*
X392400Y383000D01*
X392800Y383400D01*
X392400D01*
X392000Y383800D01*
X391600Y383400D01*
X391200D01*
X391600Y383000D01*
X391200Y382600D01*
X391600D01*
X392000Y382200D01*
Y382600D02*
X392200Y382800D01*
X392400D01*
X392200Y383000D01*
X392400Y383200D01*
X392200D01*
X392000Y383400D01*
X391800Y383200D01*
X391600D01*
X391800Y383000D01*
X391600Y382800D01*
X391800D01*
X392000Y382600D01*
X456000Y307200D02*
X456400Y307600D01*
X456800D01*
X456400Y308000D01*
X456800Y308400D01*
X456400D01*
X456000Y308800D01*
X455600Y308400D01*
X455200D01*
X455600Y308000D01*
X455200Y307600D01*
X455600D01*
X456000Y307200D01*
Y307600D02*
X456200Y307800D01*
X456400D01*
X456200Y308000D01*
X456400Y308200D01*
X456200D01*
X456000Y308400D01*
X455800Y308200D01*
X455600D01*
X455800Y308000D01*
X455600Y307800D01*
X455800D01*
X456000Y307600D01*
X392000Y308200D02*
X392400Y308600D01*
X392800D01*
X392400Y309000D01*
X392800Y309400D01*
X392400D01*
X392000Y309800D01*
X391600Y309400D01*
X391200D01*
X391600Y309000D01*
X391200Y308600D01*
X391600D01*
X392000Y308200D01*
Y308600D02*
X392200Y308800D01*
X392400D01*
X392200Y309000D01*
X392400Y309200D01*
X392200D01*
X392000Y309400D01*
X391800Y309200D01*
X391600D01*
X391800Y309000D01*
X391600Y308800D01*
X391800D01*
X392000Y308600D01*
Y234200D02*
X392400Y234600D01*
X392800D01*
X392400Y235000D01*
X392800Y235400D01*
X392400D01*
X392000Y235800D01*
X391600Y235400D01*
X391200D01*
X391600Y235000D01*
X391200Y234600D01*
X391600D01*
X392000Y234200D01*
Y234600D02*
X392200Y234800D01*
X392400D01*
X392200Y235000D01*
X392400Y235200D01*
X392200D01*
X392000Y235400D01*
X391800Y235200D01*
X391600D01*
X391800Y235000D01*
X391600Y234800D01*
X391800D01*
X392000Y234600D01*
X466000Y272200D02*
X466400Y272600D01*
X466800D01*
X466400Y273000D01*
X466800Y273400D01*
X466400D01*
X466000Y273800D01*
X465600Y273400D01*
X465200D01*
X465600Y273000D01*
X465200Y272600D01*
X465600D01*
X466000Y272200D01*
Y272600D02*
X466200Y272800D01*
X466400D01*
X466200Y273000D01*
X466400Y273200D01*
X466200D01*
X466000Y273400D01*
X465800Y273200D01*
X465600D01*
X465800Y273000D01*
X465600Y272800D01*
X465800D01*
X466000Y272600D01*
Y420200D02*
X466400Y420600D01*
X466800D01*
X466400Y421000D01*
X466800Y421400D01*
X466400D01*
X466000Y421800D01*
X465600Y421400D01*
X465200D01*
X465600Y421000D01*
X465200Y420600D01*
X465600D01*
X466000Y420200D01*
Y420600D02*
X466200Y420800D01*
X466400D01*
X466200Y421000D01*
X466400Y421200D01*
X466200D01*
X466000Y421400D01*
X465800Y421200D01*
X465600D01*
X465800Y421000D01*
X465600Y420800D01*
X465800D01*
X466000Y420600D01*
X530000Y419200D02*
X530400Y419600D01*
X530800D01*
X530400Y420000D01*
X530800Y420400D01*
X530400D01*
X530000Y420800D01*
X529600Y420400D01*
X529200D01*
X529600Y420000D01*
X529200Y419600D01*
X529600D01*
X530000Y419200D01*
Y419600D02*
X530200Y419800D01*
X530400D01*
X530200Y420000D01*
X530400Y420200D01*
X530200D01*
X530000Y420400D01*
X529800Y420200D01*
X529600D01*
X529800Y420000D01*
X529600Y419800D01*
X529800D01*
X530000Y419600D01*
X530035Y270432D02*
X530435Y270832D01*
X530835D01*
X530435Y271232D01*
X530835Y271632D01*
X530435D01*
X530035Y272032D01*
X529635Y271632D01*
X529235D01*
X529635Y271232D01*
X529235Y270832D01*
X529635D01*
X530035Y270432D01*
Y270832D02*
X530235Y271032D01*
X530435D01*
X530235Y271232D01*
X530435Y271432D01*
X530235D01*
X530035Y271632D01*
X529835Y271432D01*
X529635D01*
X529835Y271232D01*
X529635Y271032D01*
X529835D01*
X530035Y270832D01*
X559000Y188200D02*
X559400Y188600D01*
X559800D01*
X559400Y189000D01*
X559800Y189400D01*
X559400D01*
X559000Y189800D01*
X558600Y189400D01*
X558200D01*
X558600Y189000D01*
X558200Y188600D01*
X558600D01*
X559000Y188200D01*
Y188600D02*
X559200Y188800D01*
X559400D01*
X559200Y189000D01*
X559400Y189200D01*
X559200D01*
X559000Y189400D01*
X558800Y189200D01*
X558600D01*
X558800Y189000D01*
X558600Y188800D01*
X558800D01*
X559000Y188600D01*
X624000Y187200D02*
X624400Y187600D01*
X624800D01*
X624400Y188000D01*
X624800Y188400D01*
X624400D01*
X624000Y188800D01*
X623600Y188400D01*
X623200D01*
X623600Y188000D01*
X623200Y187600D01*
X623600D01*
X624000Y187200D01*
Y187600D02*
X624200Y187800D01*
X624400D01*
X624200Y188000D01*
X624400Y188200D01*
X624200D01*
X624000Y188400D01*
X623800Y188200D01*
X623600D01*
X623800Y188000D01*
X623600Y187800D01*
X623800D01*
X624000Y187600D01*
Y263200D02*
X624400Y263600D01*
X624800D01*
X624400Y264000D01*
X624800Y264400D01*
X624400D01*
X624000Y264800D01*
X623600Y264400D01*
X623200D01*
X623600Y264000D01*
X623200Y263600D01*
X623600D01*
X624000Y263200D01*
Y263600D02*
X624200Y263800D01*
X624400D01*
X624200Y264000D01*
X624400Y264200D01*
X624200D01*
X624000Y264400D01*
X623800Y264200D01*
X623600D01*
X623800Y264000D01*
X623600Y263800D01*
X623800D01*
X624000Y263600D01*
X560000Y262200D02*
X560400Y262600D01*
X560800D01*
X560400Y263000D01*
X560800Y263400D01*
X560400D01*
X560000Y263800D01*
X559600Y263400D01*
X559200D01*
X559600Y263000D01*
X559200Y262600D01*
X559600D01*
X560000Y262200D01*
Y262600D02*
X560200Y262800D01*
X560400D01*
X560200Y263000D01*
X560400Y263200D01*
X560200D01*
X560000Y263400D01*
X559800Y263200D01*
X559600D01*
X559800Y263000D01*
X559600Y262800D01*
X559800D01*
X560000Y262600D01*
X624000Y336200D02*
X624400Y336600D01*
X624800D01*
X624400Y337000D01*
X624800Y337400D01*
X624400D01*
X624000Y337800D01*
X623600Y337400D01*
X623200D01*
X623600Y337000D01*
X623200Y336600D01*
X623600D01*
X624000Y336200D01*
Y336600D02*
X624200Y336800D01*
X624400D01*
X624200Y337000D01*
X624400Y337200D01*
X624200D01*
X624000Y337400D01*
X623800Y337200D01*
X623600D01*
X623800Y337000D01*
X623600Y336800D01*
X623800D01*
X624000Y336600D01*
X624504Y411200D02*
X624903Y411600D01*
X625304D01*
X624903Y412000D01*
X625304Y412400D01*
X624903D01*
X624504Y412800D01*
X624103Y412400D01*
X623703D01*
X624103Y412000D01*
X623703Y411600D01*
X624103D01*
X624504Y411200D01*
Y411600D02*
X624704Y411800D01*
X624903D01*
X624704Y412000D01*
X624903Y412200D01*
X624704D01*
X624504Y412400D01*
X624303Y412200D01*
X624103D01*
X624303Y412000D01*
X624103Y411800D01*
X624303D01*
X624504Y411600D01*
X560000Y411200D02*
X560400Y411600D01*
X560800D01*
X560400Y412000D01*
X560800Y412400D01*
X560400D01*
X560000Y412800D01*
X559600Y412400D01*
X559200D01*
X559600Y412000D01*
X559200Y411600D01*
X559600D01*
X560000Y411200D01*
Y411600D02*
X560200Y411800D01*
X560400D01*
X560200Y412000D01*
X560400Y412200D01*
X560200D01*
X560000Y412400D01*
X559800Y412200D01*
X559600D01*
X559800Y412000D01*
X559600Y411800D01*
X559800D01*
X560000Y411600D01*
D49*
X121800Y221047D02*
G03*
X121800Y221047I-800J0D01*
G01*
Y176953D02*
G03*
X121800Y176953I-800J0D01*
G01*
X74800Y181559D02*
G03*
X74800Y181559I-800J0D01*
G01*
Y169748D02*
G03*
X74800Y169748I-800J0D01*
G01*
Y154000D02*
G03*
X74800Y154000I-800J0D01*
G01*
X67910Y148094D02*
G03*
X67910Y148094I-800J0D01*
G01*
X58265D02*
G03*
X58265Y148094I-800J0D01*
G01*
X51375Y154000D02*
G03*
X51375Y154000I-800J0D01*
G01*
Y169748D02*
G03*
X51375Y169748I-800J0D01*
G01*
Y181559D02*
G03*
X51375Y181559I-800J0D01*
G01*
D50*
X74400D02*
G03*
X74400Y181559I-400J0D01*
G01*
Y169748D02*
G03*
X74400Y169748I-400J0D01*
G01*
Y154000D02*
G03*
X74400Y154000I-400J0D01*
G01*
X67510Y148094D02*
G03*
X67510Y148094I-400J0D01*
G01*
X57865D02*
G03*
X57865Y148094I-400J0D01*
G01*
X50975Y154000D02*
G03*
X50975Y154000I-400J0D01*
G01*
Y169748D02*
G03*
X50975Y169748I-400J0D01*
G01*
Y181559D02*
G03*
X50975Y181559I-400J0D01*
G01*
M02*
