G04*
G04 #@! TF.GenerationSoftware,Altium Limited,Altium Designer,21.0.8 (223)*
G04*
G04 Layer_Color=32896*
%FSLAX25Y25*%
%MOIN*%
G70*
G04*
G04 #@! TF.SameCoordinates,55F9FECB-9F86-4C86-85E8-F8C18B1AF351*
G04*
G04*
G04 #@! TF.FilePolarity,Positive*
G04*
G01*
G75*
%ADD10C,0.01000*%
%ADD11C,0.00591*%
%ADD12C,0.00394*%
D10*
X132811Y199000D02*
G03*
X132811Y199000I-11811J0D01*
G01*
X119032D02*
X122968D01*
X121000Y197031D02*
Y200969D01*
X97378Y175378D02*
X113126D01*
X97378D02*
Y222622D01*
X113126D01*
X128874D02*
X144622D01*
Y212779D02*
Y222622D01*
Y193095D02*
Y204906D01*
Y175378D02*
Y185221D01*
X128874Y175378D02*
X144622D01*
X347397Y157897D02*
X348550Y160615D01*
Y160615D02*
X349704Y163333D01*
X348550Y160615D02*
X350115Y156744D01*
X352422Y162180D01*
X348550Y160615D02*
X352422Y162180D01*
X250425Y170047D02*
Y173000D01*
Y173000D02*
Y175953D01*
Y173000D02*
X253378Y170047D01*
Y175953D01*
X250425Y173000D02*
X253378Y175953D01*
X200550Y159385D02*
X201704Y156667D01*
X199397Y162103D02*
X200550Y159385D01*
Y159385D02*
X204422Y157820D01*
X202115Y163256D02*
X204422Y157820D01*
X200550Y159385D02*
X202115Y163256D01*
X128726Y113308D02*
X130988Y115206D01*
X130988Y115206D02*
X133250Y117104D01*
X130624Y111046D02*
X130988Y115206D01*
X130624Y111046D02*
X135148Y114842D01*
X130988Y115206D02*
X135148Y114842D01*
X149425Y234047D02*
Y237000D01*
Y237000D02*
Y239953D01*
Y237000D02*
X152378Y234047D01*
Y239953D01*
X149425Y237000D02*
X152378Y239953D01*
X149732Y246047D02*
Y249000D01*
Y249000D02*
Y251953D01*
Y249000D02*
X152685Y246047D01*
Y251953D01*
X149732Y249000D02*
X152685Y251953D01*
X614425Y199047D02*
Y202000D01*
Y202000D02*
Y204953D01*
Y202000D02*
X617378Y199047D01*
Y204953D01*
X614425Y202000D02*
X617378Y204953D01*
X472732Y208047D02*
Y211000D01*
Y211000D02*
Y213953D01*
Y211000D02*
X475685Y208047D01*
Y213953D01*
X472732Y211000D02*
X475685Y213953D01*
X398732Y244047D02*
Y247000D01*
Y247000D02*
Y249953D01*
Y247000D02*
X401685Y244047D01*
Y249953D01*
X398732Y247000D02*
X401685Y249953D01*
X324732Y254047D02*
Y257000D01*
Y257000D02*
Y259953D01*
Y257000D02*
X327685Y254047D01*
Y259953D01*
X324732Y257000D02*
X327685Y259953D01*
X250425Y244047D02*
Y247000D01*
Y247000D02*
Y249953D01*
Y247000D02*
X253378Y244047D01*
Y249953D01*
X250425Y247000D02*
X253378Y249953D01*
X176732Y234047D02*
Y237000D01*
Y237000D02*
Y239953D01*
Y237000D02*
X179685Y234047D01*
Y239953D01*
X176732Y237000D02*
X179685Y239953D01*
X614425Y212047D02*
Y215000D01*
Y215000D02*
Y217953D01*
Y215000D02*
X617378Y212047D01*
Y217953D01*
X614425Y215000D02*
X617378Y217953D01*
X472732Y220047D02*
Y223000D01*
Y223000D02*
Y225953D01*
Y223000D02*
X475685Y220047D01*
Y225953D01*
X472732Y223000D02*
X475685Y225953D01*
X398732Y256047D02*
Y259000D01*
Y259000D02*
Y261953D01*
Y259000D02*
X401685Y256047D01*
Y261953D01*
X398732Y259000D02*
X401685Y261953D01*
X324732Y266047D02*
Y269000D01*
Y269000D02*
Y271953D01*
Y269000D02*
X327685Y266047D01*
Y271953D01*
X324732Y269000D02*
X327685Y271953D01*
X250425Y256047D02*
Y259000D01*
Y259000D02*
Y261953D01*
Y259000D02*
X253378Y256047D01*
Y261953D01*
X250425Y259000D02*
X253378Y261953D01*
X176732Y246047D02*
Y249000D01*
Y249000D02*
Y251953D01*
Y249000D02*
X179685Y246047D01*
Y251953D01*
X176732Y249000D02*
X179685Y251953D01*
X615425Y348047D02*
Y351000D01*
Y351000D02*
Y353953D01*
Y351000D02*
X618378Y348047D01*
Y353953D01*
X615425Y351000D02*
X618378Y353953D01*
X472425Y356047D02*
Y359000D01*
Y359000D02*
Y361953D01*
Y359000D02*
X475378Y356047D01*
Y361953D01*
X472425Y359000D02*
X475378Y361953D01*
X398425Y392047D02*
Y395000D01*
Y395000D02*
Y397953D01*
Y395000D02*
X401378Y392047D01*
Y397953D01*
X398425Y395000D02*
X401378Y397953D01*
X324425Y402047D02*
Y405000D01*
Y405000D02*
Y407953D01*
Y405000D02*
X327378Y402047D01*
Y407953D01*
X324425Y405000D02*
X327378Y407953D01*
X298425Y392047D02*
Y395000D01*
Y395000D02*
Y397953D01*
Y395000D02*
X301378Y392047D01*
Y397953D01*
X298425Y395000D02*
X301378Y397953D01*
X181425Y382047D02*
Y385000D01*
Y385000D02*
Y387953D01*
Y385000D02*
X184378Y382047D01*
Y387953D01*
X181425Y385000D02*
X184378Y387953D01*
X615425Y360047D02*
Y363000D01*
Y363000D02*
Y365953D01*
Y363000D02*
X618378Y360047D01*
Y365953D01*
X615425Y363000D02*
X618378Y365953D01*
X472425Y368047D02*
Y371000D01*
Y371000D02*
Y373953D01*
Y371000D02*
X475378Y368047D01*
Y373953D01*
X472425Y371000D02*
X475378Y373953D01*
X398425Y404047D02*
Y407000D01*
Y407000D02*
Y409953D01*
Y407000D02*
X401378Y404047D01*
Y409953D01*
X398425Y407000D02*
X401378Y409953D01*
X324425Y414047D02*
Y417000D01*
Y417000D02*
Y419953D01*
Y417000D02*
X327378Y414047D01*
Y419953D01*
X324425Y417000D02*
X327378Y419953D01*
X298425Y404047D02*
Y407000D01*
Y407000D02*
Y409953D01*
Y407000D02*
X301378Y404047D01*
Y409953D01*
X298425Y407000D02*
X301378Y409953D01*
X176425Y394047D02*
Y397000D01*
Y397000D02*
Y399953D01*
Y397000D02*
X179378Y394047D01*
Y399953D01*
X176425Y397000D02*
X179378Y399953D01*
X163004Y465513D02*
X163126Y465635D01*
X157890Y470513D02*
X158012Y470635D01*
X47032Y147307D02*
X48409D01*
X47032Y147307D02*
X47032Y147307D01*
X47032Y147307D02*
Y148685D01*
X70653Y186677D02*
Y194551D01*
X47032D02*
X70653D01*
X47032Y194551D02*
X47032Y194551D01*
X47032Y186677D02*
Y194551D01*
X145000Y322000D02*
Y332000D01*
X105000Y322000D02*
X145000D01*
X105000Y332000D02*
X145000D01*
X105000Y322000D02*
Y332000D01*
D11*
X135359Y159908D02*
X136205Y157915D01*
X135359Y159908D02*
X146231Y164523D01*
X151769Y151477D02*
X162641Y156092D01*
X146231Y164523D02*
X157103Y169138D01*
X161795Y158085D02*
X162641Y156092D01*
X140051Y148855D02*
X140897Y146862D01*
Y146862D02*
X151769Y151477D01*
X157103Y169138D02*
X157949Y167145D01*
D12*
X154533Y159066D02*
X153611Y161240D01*
X152524Y160778D01*
X152315Y160262D01*
X152623Y159538D01*
X153139Y159329D01*
X154226Y159791D01*
X153501Y159483D02*
X153084Y158451D01*
X149988Y159702D02*
X151437Y160317D01*
X152360Y158143D01*
X150910Y157528D01*
X151898Y159230D02*
X151174Y158923D01*
X147968Y158417D02*
X148176Y158933D01*
X148901Y159241D01*
X149417Y159032D01*
X149571Y158670D01*
X149362Y158154D01*
X148638Y157846D01*
X148429Y157330D01*
X148583Y156968D01*
X149099Y156759D01*
X149824Y157067D01*
X150032Y157583D01*
X145640Y157857D02*
X147090Y158472D01*
X148012Y156298D01*
X146563Y155683D01*
X147551Y157385D02*
X146826Y157077D01*
X144916Y157549D02*
X143467Y156934D01*
X144191Y157241D01*
X145114Y155068D01*
X201338Y321331D02*
X198976D01*
Y322905D01*
X201338Y325266D02*
Y323692D01*
X198976D01*
Y325266D01*
X200157Y323692D02*
Y324479D01*
X201338Y326054D02*
X198976D01*
Y327234D01*
X199370Y327628D01*
X200944D01*
X201338Y327234D01*
Y326054D01*
X211180Y321331D02*
X209606D01*
X208819Y322118D01*
X209606Y322905D01*
X211180D01*
X210787Y325266D02*
X211180Y324873D01*
Y324086D01*
X210787Y323692D01*
X209212D01*
X208819Y324086D01*
Y324873D01*
X209212Y325266D01*
X210787Y327628D02*
X211180Y327234D01*
Y326447D01*
X210787Y326054D01*
X209212D01*
X208819Y326447D01*
Y327234D01*
X209212Y327628D01*
X191102Y322905D02*
X191495Y322511D01*
Y321724D01*
X191102Y321331D01*
X189527D01*
X189134Y321724D01*
Y322511D01*
X189527Y322905D01*
X190315D01*
Y322118D01*
X189134Y323692D02*
X191495D01*
X189134Y325266D01*
X191495D01*
Y326054D02*
X189134D01*
Y327234D01*
X189527Y327628D01*
X191102D01*
X191495Y327234D01*
Y326054D01*
M02*
