G04*
G04 #@! TF.GenerationSoftware,Altium Limited,Altium Designer,21.0.8 (223)*
G04*
G04 Layer_Color=32896*
%FSLAX25Y25*%
%MOIN*%
G70*
G04*
G04 #@! TF.SameCoordinates,A62FD62D-004D-4F48-A45E-1F1F6AB71705*
G04*
G04*
G04 #@! TF.FilePolarity,Positive*
G04*
G01*
G75*
%ADD10C,0.01000*%
%ADD12C,0.00394*%
D10*
X163004Y465513D02*
X163126Y465635D01*
X157890Y470513D02*
X158012Y470635D01*
X47032Y147307D02*
X48409D01*
X47032Y147307D02*
X47032Y147307D01*
X47032Y147307D02*
Y148685D01*
X70653Y186677D02*
Y194551D01*
X47032D02*
X70653D01*
X47032Y194551D02*
X47032Y194551D01*
X47032Y186677D02*
Y194551D01*
X145000Y322000D02*
Y332000D01*
X105000Y322000D02*
X145000D01*
X105000Y332000D02*
X145000D01*
X105000Y322000D02*
Y332000D01*
D12*
X154533Y159066D02*
X153611Y161240D01*
X152524Y160778D01*
X152315Y160262D01*
X152623Y159538D01*
X153139Y159329D01*
X154226Y159791D01*
X153501Y159483D02*
X153084Y158451D01*
X149988Y159702D02*
X151437Y160317D01*
X152360Y158143D01*
X150910Y157528D01*
X151898Y159230D02*
X151174Y158923D01*
X147968Y158417D02*
X148176Y158933D01*
X148901Y159241D01*
X149417Y159032D01*
X149571Y158670D01*
X149362Y158154D01*
X148638Y157846D01*
X148429Y157330D01*
X148583Y156968D01*
X149099Y156759D01*
X149824Y157067D01*
X150032Y157583D01*
X145640Y157857D02*
X147090Y158472D01*
X148012Y156298D01*
X146563Y155683D01*
X147551Y157385D02*
X146826Y157077D01*
X144916Y157549D02*
X143467Y156934D01*
X144191Y157241D01*
X145114Y155068D01*
X201338Y321331D02*
X198976D01*
Y322905D01*
X201338Y325266D02*
Y323692D01*
X198976D01*
Y325266D01*
X200157Y323692D02*
Y324479D01*
X201338Y326054D02*
X198976D01*
Y327234D01*
X199370Y327628D01*
X200944D01*
X201338Y327234D01*
Y326054D01*
X211180Y321331D02*
X209606D01*
X208819Y322118D01*
X209606Y322905D01*
X211180D01*
X210787Y325266D02*
X211180Y324873D01*
Y324086D01*
X210787Y323692D01*
X209212D01*
X208819Y324086D01*
Y324873D01*
X209212Y325266D01*
X210787Y327628D02*
X211180Y327234D01*
Y326447D01*
X210787Y326054D01*
X209212D01*
X208819Y326447D01*
Y327234D01*
X209212Y327628D01*
X191102Y322905D02*
X191495Y322511D01*
Y321724D01*
X191102Y321331D01*
X189527D01*
X189134Y321724D01*
Y322511D01*
X189527Y322905D01*
X190315D01*
Y322118D01*
X189134Y323692D02*
X191495D01*
X189134Y325266D01*
X191495D01*
Y326054D02*
X189134D01*
Y327234D01*
X189527Y327628D01*
X191102D01*
X191495Y327234D01*
Y326054D01*
M02*
