G04*
G04 #@! TF.GenerationSoftware,Altium Limited,Altium Designer,21.0.8 (223)*
G04*
G04 Layer_Physical_Order=1*
G04 Layer_Color=255*
%FSLAX25Y25*%
%MOIN*%
G70*
G04*
G04 #@! TF.SameCoordinates,0D733CAD-42ED-4919-839D-F36A8881D4CE*
G04*
G04*
G04 #@! TF.FilePolarity,Positive*
G04*
G01*
G75*
%ADD11C,0.15748*%
G36*
X383586Y483980D02*
D01*
X383586D01*
X384297Y483980D01*
X385693Y483703D01*
X387007Y483158D01*
X388190Y482368D01*
X388693Y481865D01*
D01*
X393865Y476693D01*
X393886Y476679D01*
X393901Y476659D01*
X394500Y476116D01*
X394565Y476077D01*
X394619Y476023D01*
X395962Y475126D01*
X396055Y475087D01*
X396139Y475031D01*
X397631Y474413D01*
X397730Y474393D01*
X397822Y474355D01*
X399407Y474040D01*
X399483D01*
X399556Y474021D01*
X400364Y473982D01*
X400389Y473985D01*
X400414Y473981D01*
X459000Y473980D01*
D01*
X459195Y473980D01*
X459555Y473831D01*
X459831Y473555D01*
X459980Y473195D01*
X459980Y472999D01*
D01*
X459980Y441000D01*
X459990Y440950D01*
X459985Y440900D01*
X460024Y440510D01*
X460067Y440367D01*
X460096Y440220D01*
X460395Y439499D01*
X460395Y439499D01*
Y439499D01*
X460469Y439388D01*
X460616Y439168D01*
X460616Y439168D01*
X460616Y439168D01*
X461168Y438616D01*
X461168Y438616D01*
X461168Y438616D01*
X461299Y438528D01*
X461498Y438395D01*
X461498Y438395D01*
X461498Y438395D01*
X462219Y438097D01*
X462366Y438067D01*
X462510Y438024D01*
X462900Y437985D01*
X462951Y437990D01*
X463000Y437981D01*
X531586Y437981D01*
X531586D01*
X531586D01*
X532297Y437981D01*
X533693Y437703D01*
X535007Y437158D01*
X536190Y436368D01*
X536693Y435865D01*
X536693Y435865D01*
X539572Y432986D01*
X539593Y432972D01*
X539608Y432952D01*
X540032Y432568D01*
X540097Y432529D01*
X540150Y432475D01*
X541100Y431841D01*
X541193Y431802D01*
X541277Y431746D01*
X542332Y431309D01*
X542431Y431289D01*
X542523Y431251D01*
X543644Y431028D01*
X543720D01*
X543793Y431010D01*
X544364Y430982D01*
X544389Y430985D01*
X544414Y430980D01*
X642000Y430980D01*
X642195D01*
X642578Y430904D01*
X642938Y430755D01*
X643262Y430538D01*
X643538Y430263D01*
X643755Y429938D01*
X643904Y429578D01*
X643980Y429194D01*
X643981Y428999D01*
X643980Y139000D01*
X643980Y139000D01*
X643980Y139000D01*
X643981Y138706D01*
X643866Y138130D01*
X643641Y137588D01*
X643315Y137100D01*
X642900Y136685D01*
X642412Y136358D01*
X641869Y136134D01*
X641293Y136020D01*
X641000Y136020D01*
X641000Y136020D01*
X641000Y136020D01*
X533414Y136020D01*
X533414Y136020D01*
X533414Y136020D01*
X532940Y136020D01*
X532011Y136204D01*
X531136Y136567D01*
X530349Y137093D01*
X530014Y137428D01*
X530014Y137428D01*
X530014Y137428D01*
X525428Y142014D01*
X525407Y142028D01*
X525392Y142048D01*
X524968Y142432D01*
X524903Y142471D01*
X524850Y142525D01*
X523900Y143160D01*
X523807Y143198D01*
X523723Y143254D01*
X522668Y143691D01*
X522569Y143711D01*
X522476Y143749D01*
X521356Y143972D01*
X521280Y143972D01*
X521207Y143990D01*
X520636Y144018D01*
X520611Y144015D01*
X520586Y144019D01*
X462000Y144019D01*
X411517Y144019D01*
X411480Y144012D01*
X411442Y144017D01*
X410888Y143976D01*
X410780Y143947D01*
X410669Y143936D01*
X409608Y143618D01*
X409477Y143548D01*
X409339Y143492D01*
X408414Y142882D01*
X408308Y142778D01*
X408193Y142685D01*
X407482Y141834D01*
X407429Y141736D01*
X407359Y141649D01*
X407103Y141156D01*
X407093Y141120D01*
X407072Y141088D01*
X380138Y78236D01*
X380138Y78236D01*
X380138Y78236D01*
X380009Y77934D01*
X379638Y77393D01*
X379169Y76934D01*
X378619Y76575D01*
X378011Y76331D01*
X377366Y76209D01*
X376710Y76216D01*
X376068Y76350D01*
X375766Y76478D01*
X375766Y76478D01*
X375766Y76478D01*
X310920Y104018D01*
X310908Y104021D01*
X310897Y104028D01*
X309770Y104473D01*
X309732Y104480D01*
X309698Y104499D01*
X307384Y105217D01*
X307333Y105223D01*
X307285Y105243D01*
X304912Y105726D01*
X304860Y105726D01*
X304811Y105741D01*
X302400Y105984D01*
X302362Y105980D01*
X302324Y105989D01*
X301113Y106019D01*
X301100Y106017D01*
X301087Y106019D01*
X251851D01*
X251838Y106017D01*
X251825Y106019D01*
X250630Y105989D01*
X250591Y105980D01*
X250552Y105984D01*
X248173Y105741D01*
X248124Y105726D01*
X248071Y105726D01*
X245729Y105243D01*
X245681Y105222D01*
X245629Y105217D01*
X243348Y104499D01*
X243314Y104480D01*
X243275Y104473D01*
X242165Y104028D01*
X242154Y104021D01*
X242141Y104018D01*
X182042Y78142D01*
X182036Y78138D01*
X182029Y78136D01*
X180186Y77313D01*
X180169Y77301D01*
X180149Y77296D01*
X176532Y75502D01*
X176510Y75485D01*
X176484Y75476D01*
X172969Y73491D01*
X172948Y73473D01*
X172922Y73463D01*
X169520Y71292D01*
X169504Y71277D01*
X169485Y71269D01*
X167829Y70115D01*
X167824Y70110D01*
X167818Y70107D01*
X116778Y33528D01*
X116778Y33528D01*
D01*
X116616Y33412D01*
X116254Y33244D01*
X115868Y33146D01*
X115470Y33122D01*
X115074Y33172D01*
X114695Y33295D01*
X114345Y33486D01*
X114037Y33739D01*
X113909Y33892D01*
X113909Y33892D01*
X113909Y33892D01*
X46190Y114777D01*
X45669Y115401D01*
X44857Y116810D01*
X44301Y118338D01*
X44019Y119939D01*
X44019Y120752D01*
X44019Y189338D01*
Y190954D01*
X44260Y194177D01*
X44740Y197373D01*
X45456Y200524D01*
X45930Y202069D01*
Y202069D01*
X85019Y329332D01*
X85020Y329342D01*
X85024Y329351D01*
X85480Y330940D01*
X85482Y330968D01*
X85494Y330995D01*
X86227Y334218D01*
X86228Y334256D01*
X86241Y334293D01*
X86731Y337561D01*
X86730Y337600D01*
X86740Y337637D01*
X86986Y340933D01*
X86982Y340962D01*
X86989Y340990D01*
X87019Y342643D01*
X87018Y342652D01*
X87019Y342662D01*
X87019Y470000D01*
Y470000D01*
Y470000D01*
X87019Y470195D01*
X87096Y470578D01*
X87245Y470938D01*
X87462Y471262D01*
X87738Y471538D01*
X88062Y471755D01*
X88422Y471904D01*
X88805Y471980D01*
X89000Y471980D01*
X156796Y471980D01*
X157442D01*
X158704Y471707D01*
X159880Y471174D01*
X160917Y470403D01*
X161342Y469918D01*
X161342Y469918D01*
X164123Y466740D01*
X164145Y466723D01*
X164160Y466700D01*
X164684Y466161D01*
X164752Y466115D01*
X164806Y466054D01*
X166011Y465159D01*
X166110Y465112D01*
X166198Y465049D01*
X167565Y464429D01*
X167671Y464404D01*
X167771Y464361D01*
X169238Y464044D01*
X169320Y464042D01*
X169399Y464022D01*
X170150Y463982D01*
X170177Y463986D01*
X170204Y463980D01*
X225586Y463980D01*
X225611Y463985D01*
X225636Y463982D01*
X226444Y464021D01*
X226517Y464040D01*
X226593D01*
X228177Y464355D01*
X228270Y464393D01*
X228369Y464413D01*
X229861Y465031D01*
X229945Y465087D01*
X230038Y465126D01*
X231381Y466023D01*
X231434Y466077D01*
X231499Y466115D01*
X232099Y466659D01*
X232114Y466679D01*
X232135Y466693D01*
X238014Y472572D01*
X238349Y472907D01*
X239136Y473433D01*
X240011Y473796D01*
X240941Y473980D01*
X241415Y473981D01*
X300586D01*
X300611Y473985D01*
X300636Y473982D01*
X301207Y474010D01*
X301280Y474028D01*
X301356D01*
X302477Y474251D01*
X302569Y474289D01*
X302668Y474309D01*
X303723Y474746D01*
X303807Y474802D01*
X303900Y474840D01*
X304850Y475475D01*
X304903Y475529D01*
X304968Y475567D01*
X305392Y475952D01*
X305407Y475972D01*
X305428Y475986D01*
X312014Y482572D01*
X312349Y482907D01*
X313136Y483433D01*
X314011Y483795D01*
X314941Y483980D01*
X315415Y483981D01*
X383586Y483980D01*
D02*
G37*
%LPC*%
G36*
X237874Y399874D02*
X236126D01*
X234412Y399533D01*
X232797Y398864D01*
X231343Y397893D01*
X230107Y396657D01*
X229136Y395203D01*
X228467Y393588D01*
X228126Y391874D01*
Y390126D01*
X228467Y388411D01*
X229136Y386797D01*
X230107Y385343D01*
X231343Y384107D01*
X232797Y383136D01*
X234412Y382467D01*
X236126Y382126D01*
X237874D01*
X239588Y382467D01*
X241203Y383136D01*
X242657Y384107D01*
X243893Y385343D01*
X244864Y386797D01*
X245533Y388411D01*
X245874Y390126D01*
Y391874D01*
X245533Y393588D01*
X244864Y395203D01*
X243893Y396657D01*
X242657Y397893D01*
X241203Y398864D01*
X239588Y399533D01*
X237874Y399874D01*
D02*
G37*
G36*
X535874Y373874D02*
X534126D01*
X532411Y373533D01*
X530797Y372864D01*
X529343Y371893D01*
X528107Y370657D01*
X527136Y369203D01*
X526467Y367588D01*
X526126Y365874D01*
Y364126D01*
X526467Y362411D01*
X527136Y360797D01*
X528107Y359343D01*
X529343Y358107D01*
X530797Y357136D01*
X532411Y356467D01*
X534126Y356126D01*
X535874D01*
X537589Y356467D01*
X539203Y357136D01*
X540657Y358107D01*
X541893Y359343D01*
X542864Y360797D01*
X543533Y362411D01*
X543874Y364126D01*
Y365874D01*
X543533Y367588D01*
X542864Y369203D01*
X541893Y370657D01*
X540657Y371893D01*
X539203Y372864D01*
X537589Y373533D01*
X535874Y373874D01*
D02*
G37*
G36*
Y225874D02*
X534126D01*
X532411Y225533D01*
X530797Y224864D01*
X529343Y223893D01*
X528107Y222657D01*
X527136Y221203D01*
X526467Y219588D01*
X526126Y217874D01*
Y216126D01*
X526467Y214411D01*
X527136Y212797D01*
X528107Y211343D01*
X529343Y210107D01*
X530797Y209136D01*
X532411Y208467D01*
X534126Y208126D01*
X535874D01*
X537589Y208467D01*
X539203Y209136D01*
X540657Y210107D01*
X541893Y211343D01*
X542864Y212797D01*
X543533Y214411D01*
X543874Y216126D01*
Y217874D01*
X543533Y219588D01*
X542864Y221203D01*
X541893Y222657D01*
X540657Y223893D01*
X539203Y224864D01*
X537589Y225533D01*
X535874Y225874D01*
D02*
G37*
G36*
X313874Y187874D02*
X312126D01*
X310412Y187533D01*
X308797Y186864D01*
X307343Y185893D01*
X306107Y184657D01*
X305136Y183203D01*
X304467Y181588D01*
X304126Y179874D01*
Y178126D01*
X304467Y176412D01*
X305136Y174797D01*
X306107Y173343D01*
X307343Y172107D01*
X308797Y171136D01*
X310412Y170467D01*
X312126Y170126D01*
X313874D01*
X315588Y170467D01*
X317203Y171136D01*
X318657Y172107D01*
X319893Y173343D01*
X320864Y174797D01*
X321533Y176412D01*
X321874Y178126D01*
Y179874D01*
X321533Y181588D01*
X320864Y183203D01*
X319893Y184657D01*
X318657Y185893D01*
X317203Y186864D01*
X315588Y187533D01*
X313874Y187874D01*
D02*
G37*
G36*
X117874Y163874D02*
X116126D01*
X114412Y163533D01*
X112797Y162864D01*
X111343Y161893D01*
X110107Y160657D01*
X109136Y159203D01*
X108467Y157588D01*
X108126Y155874D01*
Y154126D01*
X108467Y152412D01*
X109136Y150797D01*
X110107Y149343D01*
X111343Y148107D01*
X112797Y147136D01*
X114412Y146467D01*
X116126Y146126D01*
X117874D01*
X119588Y146467D01*
X121203Y147136D01*
X122657Y148107D01*
X123893Y149343D01*
X124864Y150797D01*
X125533Y152412D01*
X125874Y154126D01*
Y155874D01*
X125533Y157588D01*
X124864Y159203D01*
X123893Y160657D01*
X122657Y161893D01*
X121203Y162864D01*
X119588Y163533D01*
X117874Y163874D01*
D02*
G37*
%LPD*%
D11*
X237000Y391000D02*
D03*
X535000Y365000D02*
D03*
Y217000D02*
D03*
X117000Y155000D02*
D03*
X313000Y179000D02*
D03*
M02*
