G04*
G04 #@! TF.GenerationSoftware,Altium Limited,Altium Designer,21.0.8 (223)*
G04*
G04 Layer_Physical_Order=2*
G04 Layer_Color=16711680*
%FSLAX25Y25*%
%MOIN*%
G70*
G04*
G04 #@! TF.SameCoordinates,0AE17F89-A7AC-4FFF-9434-7842486BD586*
G04*
G04*
G04 #@! TF.FilePolarity,Positive*
G04*
G01*
G75*
%ADD11C,0.15748*%
G36*
X383586Y483980D02*
D01*
X383586D01*
X384297Y483980D01*
X385693Y483703D01*
X387007Y483158D01*
X388190Y482368D01*
X388693Y481865D01*
D01*
X393865Y476693D01*
X393886Y476679D01*
X393901Y476659D01*
X394500Y476116D01*
X394565Y476077D01*
X394619Y476023D01*
X395962Y475126D01*
X396055Y475087D01*
X396139Y475031D01*
X397631Y474413D01*
X397730Y474393D01*
X397822Y474355D01*
X399407Y474040D01*
X399483D01*
X399556Y474021D01*
X400364Y473982D01*
X400389Y473985D01*
X400414Y473981D01*
X459000Y473980D01*
D01*
X459195Y473980D01*
X459555Y473831D01*
X459831Y473555D01*
X459980Y473195D01*
X459980Y472999D01*
D01*
X459980Y441000D01*
X459990Y440950D01*
X459985Y440900D01*
X460024Y440510D01*
X460067Y440367D01*
X460096Y440220D01*
X460395Y439499D01*
X460395Y439499D01*
Y439499D01*
X460469Y439388D01*
X460616Y439168D01*
X460616Y439168D01*
X460616Y439168D01*
X461168Y438616D01*
X461168Y438616D01*
X461168Y438616D01*
X461299Y438528D01*
X461498Y438395D01*
X461498Y438395D01*
X461498Y438395D01*
X462219Y438097D01*
X462366Y438067D01*
X462510Y438024D01*
X462900Y437985D01*
X462951Y437990D01*
X463000Y437981D01*
X531586Y437981D01*
X531586D01*
X531586D01*
X532297Y437981D01*
X533693Y437703D01*
X535007Y437158D01*
X536190Y436368D01*
X536693Y435865D01*
D01*
X539572Y432986D01*
X539593Y432972D01*
X539608Y432952D01*
X540032Y432568D01*
X540097Y432529D01*
X540150Y432475D01*
X541100Y431841D01*
X541193Y431802D01*
X541277Y431746D01*
X542332Y431309D01*
X542431Y431289D01*
X542523Y431251D01*
X543644Y431028D01*
X543720D01*
X543793Y431010D01*
X544364Y430982D01*
X544389Y430985D01*
X544414Y430980D01*
X642000Y430980D01*
X642195D01*
X642578Y430904D01*
X642938Y430755D01*
X643262Y430538D01*
X643538Y430263D01*
X643755Y429938D01*
X643904Y429578D01*
X643980Y429194D01*
X643981Y428999D01*
X643980Y139000D01*
X643980Y139000D01*
X643980Y139000D01*
X643981Y138706D01*
X643866Y138130D01*
X643641Y137588D01*
X643315Y137100D01*
X642900Y136685D01*
X642412Y136358D01*
X641869Y136134D01*
X641293Y136020D01*
X641000Y136020D01*
X641000Y136020D01*
X641000Y136020D01*
X533414Y136020D01*
X533414Y136020D01*
X533414Y136020D01*
X532940Y136020D01*
X532011Y136204D01*
X531136Y136567D01*
X530349Y137093D01*
X530014Y137428D01*
X530014Y137428D01*
X530014Y137428D01*
X525428Y142014D01*
X525407Y142028D01*
X525392Y142048D01*
X524968Y142432D01*
X524903Y142471D01*
X524850Y142525D01*
X523900Y143160D01*
X523807Y143198D01*
X523723Y143254D01*
X522668Y143691D01*
X522569Y143711D01*
X522476Y143749D01*
X521356Y143972D01*
X521280Y143972D01*
X521207Y143990D01*
X520636Y144018D01*
X520611Y144015D01*
X520586Y144019D01*
X462000Y144019D01*
X411517Y144019D01*
X411480Y144012D01*
X411442Y144017D01*
X410888Y143976D01*
X410780Y143947D01*
X410669Y143936D01*
X409608Y143618D01*
X409477Y143548D01*
X409339Y143492D01*
X408414Y142882D01*
X408308Y142778D01*
X408193Y142685D01*
X407482Y141834D01*
X407429Y141736D01*
X407359Y141649D01*
X407103Y141156D01*
X407093Y141120D01*
X407072Y141088D01*
X380138Y78236D01*
X380138Y78236D01*
X380138Y78236D01*
X380009Y77934D01*
X379638Y77393D01*
X379169Y76934D01*
X378619Y76575D01*
X378011Y76331D01*
X377366Y76209D01*
X376710Y76216D01*
X376068Y76350D01*
X375766Y76478D01*
X375766Y76478D01*
X375766Y76478D01*
X310920Y104018D01*
X310908Y104021D01*
X310897Y104028D01*
X309770Y104473D01*
X309732Y104480D01*
X309698Y104499D01*
X307384Y105217D01*
X307333Y105223D01*
X307285Y105243D01*
X304912Y105726D01*
X304860Y105726D01*
X304811Y105741D01*
X302400Y105984D01*
X302362Y105980D01*
X302324Y105989D01*
X301113Y106019D01*
X301100Y106017D01*
X301087Y106019D01*
X251851D01*
X251838Y106017D01*
X251825Y106019D01*
X250630Y105989D01*
X250591Y105980D01*
X250552Y105984D01*
X248173Y105741D01*
X248124Y105726D01*
X248071Y105726D01*
X245729Y105243D01*
X245681Y105222D01*
X245629Y105217D01*
X243348Y104499D01*
X243314Y104480D01*
X243275Y104473D01*
X242165Y104028D01*
X242154Y104021D01*
X242141Y104018D01*
X182042Y78142D01*
X182036Y78138D01*
X182029Y78136D01*
X180186Y77313D01*
X180169Y77301D01*
X180149Y77296D01*
X176532Y75502D01*
X176510Y75485D01*
X176484Y75476D01*
X172969Y73491D01*
X172948Y73473D01*
X172922Y73463D01*
X169520Y71292D01*
X169504Y71277D01*
X169485Y71269D01*
X167829Y70115D01*
X167824Y70110D01*
X167818Y70107D01*
X116778Y33528D01*
X116778Y33528D01*
D01*
X116616Y33412D01*
X116254Y33244D01*
X115868Y33146D01*
X115470Y33122D01*
X115074Y33172D01*
X114695Y33295D01*
X114345Y33486D01*
X114037Y33739D01*
X113909Y33892D01*
X113909Y33892D01*
X113909Y33892D01*
X46190Y114777D01*
X45669Y115401D01*
X44857Y116810D01*
X44301Y118338D01*
X44019Y119939D01*
X44019Y120752D01*
X44019Y189338D01*
D01*
X44020Y199497D01*
X44026Y199520D01*
X72896Y291082D01*
Y291082D01*
X80087Y313849D01*
Y313849D01*
X80159Y314078D01*
X80376Y314510D01*
X80659Y314902D01*
X81000Y315246D01*
X81390Y315531D01*
X81820Y315752D01*
X82280Y315902D01*
X82758Y315978D01*
X83000D01*
X100860Y315977D01*
X100929Y315991D01*
X161960D01*
X162028Y315981D01*
X162299Y315992D01*
X162308Y315994D01*
X162344Y315996D01*
X162417Y316015D01*
X162493D01*
X163070Y316129D01*
X163163Y316168D01*
X163261Y316187D01*
X163804Y316412D01*
X163888Y316468D01*
X163981Y316507D01*
X164470Y316833D01*
X164541Y316904D01*
X164624Y316960D01*
X165040Y317376D01*
X165096Y317459D01*
X165167Y317530D01*
X165494Y318019D01*
X165532Y318112D01*
X165588Y318196D01*
X165813Y318739D01*
X165832Y318837D01*
X165871Y318930D01*
X165986Y319507D01*
Y319582D01*
X166004Y319655D01*
X166018Y319941D01*
X166015Y319967D01*
X166019Y319992D01*
X166019Y459000D01*
Y462000D01*
Y462195D01*
X166096Y462578D01*
X166245Y462938D01*
X166462Y463262D01*
X166737Y463538D01*
X167062Y463755D01*
X167422Y463904D01*
X167805Y463980D01*
X225586D01*
X225611Y463985D01*
X225636Y463982D01*
X226444Y464021D01*
X226517Y464040D01*
X226593D01*
X228177Y464355D01*
X228270Y464393D01*
X228369Y464413D01*
X229861Y465031D01*
X229945Y465087D01*
X230038Y465126D01*
X231381Y466023D01*
X231434Y466077D01*
X231499Y466115D01*
X232099Y466659D01*
X232114Y466679D01*
X232135Y466693D01*
X238014Y472572D01*
X238349Y472907D01*
X239136Y473433D01*
X240011Y473796D01*
X240941Y473980D01*
X241415Y473981D01*
X300586D01*
X300611Y473985D01*
X300636Y473982D01*
X301207Y474010D01*
X301280Y474028D01*
X301356D01*
X302477Y474251D01*
X302569Y474289D01*
X302668Y474309D01*
X303723Y474746D01*
X303807Y474802D01*
X303900Y474840D01*
X304850Y475475D01*
X304903Y475529D01*
X304968Y475567D01*
X305392Y475952D01*
X305407Y475972D01*
X305428Y475986D01*
X312014Y482572D01*
X312349Y482907D01*
X313136Y483433D01*
X314011Y483795D01*
X314941Y483980D01*
X315415Y483981D01*
X383586Y483980D01*
D02*
G37*
%LPC*%
G36*
X377500Y476677D02*
X377500D01*
X377500D01*
X322500D01*
X322500D01*
X322500D01*
X322345Y476646D01*
X322110Y476600D01*
X322110Y476599D01*
X322110D01*
X322038Y476570D01*
X322038D01*
X322038D01*
X322038Y476570D01*
X321871Y476458D01*
X321707Y476348D01*
X321652Y476293D01*
X321652Y476293D01*
X321652Y476293D01*
X321533Y476116D01*
X321430Y475962D01*
X321430Y475962D01*
X321430Y475962D01*
X321400Y475890D01*
X321360Y475684D01*
X321323Y475500D01*
Y475461D01*
Y420539D01*
Y420500D01*
X321360Y420316D01*
X321400Y420110D01*
X321430Y420038D01*
X321430Y420038D01*
X321430Y420038D01*
X321533Y419884D01*
X321652Y419707D01*
X321652Y419707D01*
X321652Y419707D01*
X321707Y419652D01*
X321707Y419652D01*
X321707Y419652D01*
X321884Y419533D01*
X322038Y419430D01*
X322038Y419430D01*
X322038Y419430D01*
X322110Y419401D01*
X322316Y419360D01*
X322500Y419323D01*
X377500D01*
X377684Y419360D01*
X377890Y419401D01*
X377962Y419430D01*
X377962Y419430D01*
X377962Y419430D01*
X378116Y419533D01*
X378293Y419652D01*
X378293Y419652D01*
X378293Y419652D01*
X378348Y419707D01*
X378458Y419871D01*
X378570Y420038D01*
X378570Y420038D01*
Y420038D01*
Y420038D01*
X378599Y420110D01*
Y420110D01*
X378600Y420110D01*
X378646Y420345D01*
X378677Y420500D01*
Y420500D01*
Y420500D01*
Y420539D01*
Y475461D01*
Y475500D01*
Y475500D01*
Y475500D01*
X378646Y475655D01*
X378600Y475890D01*
X378599Y475890D01*
Y475890D01*
X378570Y475962D01*
Y475962D01*
Y475962D01*
X378570Y475962D01*
X378458Y476129D01*
X378348Y476293D01*
X378293Y476348D01*
X378129Y476458D01*
X377962Y476570D01*
X377962Y476570D01*
X377962D01*
X377962D01*
X377890Y476599D01*
X377890D01*
X377890Y476600D01*
X377655Y476646D01*
X377500Y476677D01*
D02*
G37*
G36*
X451500Y466677D02*
X451500D01*
X451500D01*
X396500D01*
X396500D01*
X396500D01*
X396345Y466646D01*
X396110Y466600D01*
X396110Y466599D01*
X396110D01*
X396038Y466570D01*
X396038D01*
X396038D01*
X396038Y466570D01*
X395871Y466458D01*
X395707Y466349D01*
X395652Y466293D01*
X395652Y466293D01*
X395652Y466293D01*
X395533Y466116D01*
X395430Y465962D01*
X395430Y465962D01*
X395430Y465962D01*
X395401Y465890D01*
X395360Y465685D01*
X395323Y465500D01*
Y465461D01*
Y410539D01*
Y410500D01*
X395360Y410316D01*
X395401Y410110D01*
X395430Y410038D01*
X395430Y410038D01*
X395430Y410038D01*
X395533Y409884D01*
X395652Y409707D01*
X395652Y409707D01*
X395652Y409707D01*
X395707Y409652D01*
X395707Y409652D01*
X395707Y409652D01*
X395884Y409533D01*
X396038Y409431D01*
X396038Y409431D01*
X396038Y409431D01*
X396110Y409401D01*
X396316Y409360D01*
X396500Y409323D01*
X451500D01*
X451685Y409360D01*
X451890Y409401D01*
X451962Y409431D01*
X451962Y409431D01*
X451962Y409431D01*
X452116Y409533D01*
X452293Y409652D01*
X452293Y409652D01*
X452293Y409652D01*
X452349Y409707D01*
X452458Y409871D01*
X452569Y410038D01*
X452569Y410038D01*
Y410038D01*
Y410038D01*
X452599Y410110D01*
Y410110D01*
X452599Y410110D01*
X452646Y410345D01*
X452677Y410500D01*
Y410500D01*
Y410500D01*
Y410539D01*
Y465461D01*
Y465500D01*
Y465500D01*
Y465500D01*
X452646Y465655D01*
X452599Y465890D01*
X452599Y465890D01*
Y465890D01*
X452569Y465962D01*
Y465962D01*
Y465962D01*
X452569Y465962D01*
X452458Y466129D01*
X452349Y466293D01*
X452293Y466349D01*
X452129Y466458D01*
X451962Y466570D01*
X451962Y466570D01*
X451962D01*
X451962D01*
X451890Y466599D01*
X451890D01*
X451890Y466600D01*
X451655Y466646D01*
X451500Y466677D01*
D02*
G37*
G36*
X303500D02*
X303500D01*
X303500D01*
X248500D01*
X248500D01*
X248500D01*
X248345Y466646D01*
X248110Y466600D01*
X248110Y466599D01*
X248110D01*
X248038Y466570D01*
X248038D01*
X248038D01*
X248038Y466570D01*
X247871Y466458D01*
X247707Y466349D01*
X247652Y466293D01*
X247652Y466293D01*
X247652Y466293D01*
X247533Y466116D01*
X247430Y465962D01*
X247430Y465962D01*
X247430Y465962D01*
X247400Y465890D01*
X247360Y465685D01*
X247323Y465500D01*
Y465461D01*
Y410539D01*
Y410500D01*
X247360Y410316D01*
X247400Y410110D01*
X247430Y410038D01*
X247430Y410038D01*
X247430Y410038D01*
X247533Y409884D01*
X247652Y409707D01*
X247652Y409707D01*
X247652Y409707D01*
X247707Y409652D01*
X247707Y409652D01*
X247707Y409652D01*
X247884Y409533D01*
X248038Y409431D01*
X248038Y409431D01*
X248038Y409431D01*
X248110Y409401D01*
X248316Y409360D01*
X248500Y409323D01*
X303500D01*
X303684Y409360D01*
X303890Y409401D01*
X303962Y409431D01*
X303962Y409431D01*
X303962Y409431D01*
X304116Y409533D01*
X304293Y409652D01*
X304293Y409652D01*
X304293Y409652D01*
X304348Y409707D01*
X304458Y409871D01*
X304570Y410038D01*
X304570Y410038D01*
Y410038D01*
Y410038D01*
X304599Y410110D01*
Y410110D01*
X304599Y410110D01*
X304646Y410345D01*
X304677Y410500D01*
Y410500D01*
Y410500D01*
Y410539D01*
Y465461D01*
Y465500D01*
Y465500D01*
Y465500D01*
X304646Y465655D01*
X304599Y465890D01*
X304599Y465890D01*
Y465890D01*
X304570Y465962D01*
Y465962D01*
Y465962D01*
X304570Y465962D01*
X304458Y466129D01*
X304348Y466293D01*
X304293Y466349D01*
X304129Y466458D01*
X303962Y466570D01*
X303962Y466570D01*
X303962D01*
X303962D01*
X303890Y466599D01*
X303890D01*
X303890Y466600D01*
X303655Y466646D01*
X303500Y466677D01*
D02*
G37*
G36*
X229500Y456677D02*
X229500D01*
X229500D01*
X174500D01*
X174500D01*
X174500D01*
X174345Y456646D01*
X174110Y456600D01*
X174110Y456599D01*
X174110D01*
X174038Y456569D01*
X174038D01*
X174038D01*
X174038Y456569D01*
X173871Y456458D01*
X173707Y456349D01*
X173652Y456293D01*
X173652Y456293D01*
X173651Y456293D01*
X173533Y456116D01*
X173431Y455962D01*
X173431Y455962D01*
X173431Y455962D01*
X173400Y455890D01*
X173360Y455685D01*
X173323Y455500D01*
Y455461D01*
Y400539D01*
Y400500D01*
X173360Y400316D01*
X173400Y400110D01*
X173431Y400038D01*
X173431Y400038D01*
X173431Y400038D01*
X173533Y399884D01*
X173651Y399707D01*
X173652Y399707D01*
X173652Y399707D01*
X173707Y399652D01*
X173707Y399652D01*
X173707Y399652D01*
X173884Y399533D01*
X174038Y399430D01*
X174038Y399430D01*
X174038Y399430D01*
X174110Y399400D01*
X174316Y399360D01*
X174500Y399323D01*
X229500D01*
X229684Y399360D01*
X229890Y399400D01*
X229962Y399430D01*
X229962Y399430D01*
X229962Y399430D01*
X230116Y399533D01*
X230293Y399652D01*
X230293Y399652D01*
X230293Y399652D01*
X230348Y399707D01*
X230458Y399871D01*
X230570Y400038D01*
X230570Y400038D01*
Y400038D01*
Y400038D01*
X230599Y400110D01*
Y400110D01*
X230599Y400110D01*
X230646Y400345D01*
X230677Y400500D01*
Y400500D01*
Y400500D01*
Y400539D01*
Y455461D01*
Y455500D01*
Y455500D01*
Y455500D01*
X230646Y455655D01*
X230599Y455890D01*
X230599Y455890D01*
Y455890D01*
X230570Y455962D01*
Y455962D01*
Y455962D01*
X230570Y455962D01*
X230458Y456129D01*
X230348Y456293D01*
X230293Y456349D01*
X230129Y456458D01*
X229962Y456569D01*
X229962Y456569D01*
X229962D01*
X229962D01*
X229890Y456599D01*
X229890D01*
X229890Y456600D01*
X229655Y456646D01*
X229500Y456677D01*
D02*
G37*
G36*
X525500Y430677D02*
X525500D01*
X525500D01*
X470500D01*
X470500D01*
X470500D01*
X470345Y430646D01*
X470110Y430599D01*
X470110Y430599D01*
X470110D01*
X470038Y430570D01*
X470038D01*
X470038D01*
X470038Y430570D01*
X469871Y430458D01*
X469707Y430348D01*
X469652Y430293D01*
X469652Y430293D01*
X469652Y430293D01*
X469533Y430116D01*
X469430Y429962D01*
X469430Y429962D01*
X469430Y429962D01*
X469401Y429890D01*
X469360Y429684D01*
X469323Y429500D01*
Y429461D01*
Y374539D01*
Y374500D01*
X469360Y374316D01*
X469401Y374110D01*
X469430Y374038D01*
X469430Y374038D01*
X469430Y374038D01*
X469533Y373884D01*
X469652Y373707D01*
X469652Y373707D01*
X469652Y373707D01*
X469707Y373652D01*
X469707Y373652D01*
X469707Y373652D01*
X469884Y373533D01*
X470038Y373430D01*
X470038Y373430D01*
X470038Y373430D01*
X470110Y373400D01*
X470316Y373360D01*
X470500Y373323D01*
X525500D01*
X525684Y373360D01*
X525890Y373400D01*
X525962Y373430D01*
X525962Y373430D01*
X525962Y373430D01*
X526116Y373533D01*
X526293Y373652D01*
X526293Y373652D01*
X526293Y373652D01*
X526348Y373707D01*
X526458Y373871D01*
X526570Y374038D01*
X526570Y374038D01*
Y374038D01*
Y374038D01*
X526599Y374110D01*
Y374110D01*
X526600Y374110D01*
X526646Y374345D01*
X526677Y374500D01*
Y374500D01*
Y374500D01*
Y374539D01*
Y429461D01*
Y429500D01*
Y429500D01*
Y429500D01*
X526646Y429655D01*
X526600Y429890D01*
X526599Y429890D01*
Y429890D01*
X526570Y429962D01*
Y429962D01*
Y429962D01*
X526570Y429962D01*
X526458Y430129D01*
X526348Y430293D01*
X526293Y430348D01*
X526129Y430458D01*
X525962Y430570D01*
X525962Y430570D01*
X525962D01*
X525962D01*
X525890Y430599D01*
X525890D01*
X525890Y430599D01*
X525655Y430646D01*
X525500Y430677D01*
D02*
G37*
G36*
X619500Y422677D02*
X619500D01*
X619500D01*
X564500D01*
X564500D01*
X564500D01*
X564345Y422646D01*
X564110Y422600D01*
X564110Y422599D01*
X564110D01*
X564038Y422570D01*
X564038D01*
X564038D01*
X564038Y422570D01*
X563871Y422458D01*
X563707Y422348D01*
X563652Y422293D01*
X563652Y422293D01*
X563652Y422293D01*
X563533Y422116D01*
X563431Y421962D01*
X563431Y421962D01*
X563431Y421962D01*
X563401Y421890D01*
X563360Y421685D01*
X563323Y421500D01*
Y421461D01*
Y366539D01*
Y366500D01*
X563360Y366316D01*
X563401Y366110D01*
X563431Y366038D01*
X563431Y366038D01*
X563431Y366038D01*
X563533Y365884D01*
X563652Y365707D01*
X563652Y365707D01*
X563652Y365707D01*
X563707Y365651D01*
X563707Y365651D01*
X563707Y365651D01*
X563884Y365533D01*
X564038Y365430D01*
X564038Y365430D01*
X564038Y365430D01*
X564110Y365401D01*
X564316Y365360D01*
X564500Y365323D01*
X619500D01*
X619685Y365360D01*
X619890Y365401D01*
X619962Y365430D01*
X619962Y365430D01*
X619962Y365430D01*
X620116Y365533D01*
X620293Y365651D01*
X620293Y365651D01*
X620293Y365651D01*
X620349Y365707D01*
X620458Y365871D01*
X620570Y366038D01*
X620570Y366038D01*
Y366038D01*
Y366038D01*
X620599Y366110D01*
Y366110D01*
X620600Y366110D01*
X620646Y366345D01*
X620677Y366500D01*
Y366500D01*
Y366500D01*
Y366539D01*
Y421461D01*
Y421500D01*
Y421500D01*
Y421500D01*
X620646Y421655D01*
X620600Y421890D01*
X620599Y421890D01*
Y421890D01*
X620570Y421962D01*
Y421962D01*
Y421962D01*
X620570Y421962D01*
X620458Y422129D01*
X620349Y422293D01*
X620293Y422348D01*
X620129Y422458D01*
X619962Y422570D01*
X619962Y422570D01*
X619962D01*
X619962D01*
X619890Y422599D01*
X619890D01*
X619890Y422600D01*
X619655Y422646D01*
X619500Y422677D01*
D02*
G37*
G36*
X377500Y402677D02*
X377500D01*
X377500D01*
X322500D01*
X322500D01*
X322500D01*
X322345Y402646D01*
X322110Y402599D01*
X322110Y402599D01*
X322110D01*
X322038Y402569D01*
X322038D01*
X322038D01*
X322038Y402569D01*
X321871Y402458D01*
X321707Y402349D01*
X321652Y402293D01*
X321652Y402293D01*
X321652Y402293D01*
X321533Y402116D01*
X321430Y401962D01*
X321430Y401962D01*
X321430Y401962D01*
X321400Y401890D01*
X321360Y401685D01*
X321323Y401500D01*
Y401461D01*
Y346539D01*
Y346500D01*
X321360Y346316D01*
X321400Y346110D01*
X321430Y346038D01*
X321430Y346038D01*
X321430Y346038D01*
X321533Y345884D01*
X321652Y345707D01*
X321652Y345707D01*
X321652Y345707D01*
X321707Y345652D01*
X321707Y345652D01*
X321707Y345652D01*
X321884Y345533D01*
X322038Y345430D01*
X322038Y345430D01*
X322038Y345430D01*
X322110Y345401D01*
X322316Y345360D01*
X322500Y345323D01*
X377500D01*
X377684Y345360D01*
X377890Y345401D01*
X377962Y345430D01*
X377962Y345430D01*
X377962Y345430D01*
X378116Y345533D01*
X378293Y345652D01*
X378293Y345652D01*
X378293Y345652D01*
X378348Y345707D01*
X378458Y345871D01*
X378570Y346038D01*
X378570Y346038D01*
Y346038D01*
Y346038D01*
X378599Y346110D01*
Y346110D01*
X378600Y346110D01*
X378646Y346345D01*
X378677Y346500D01*
Y346500D01*
Y346500D01*
Y346539D01*
Y401461D01*
Y401500D01*
Y401500D01*
Y401500D01*
X378646Y401655D01*
X378600Y401890D01*
X378599Y401890D01*
Y401890D01*
X378570Y401962D01*
Y401962D01*
Y401962D01*
X378570Y401962D01*
X378458Y402129D01*
X378348Y402293D01*
X378293Y402349D01*
X378129Y402458D01*
X377962Y402569D01*
X377962Y402569D01*
X377962D01*
X377962D01*
X377890Y402599D01*
X377890D01*
X377890Y402599D01*
X377655Y402646D01*
X377500Y402677D01*
D02*
G37*
G36*
X451500Y392677D02*
X451500D01*
X451500D01*
X396500D01*
X396500D01*
X396500D01*
X396345Y392646D01*
X396110Y392600D01*
X396110Y392599D01*
X396110D01*
X396038Y392569D01*
X396038D01*
X396038D01*
X396038Y392569D01*
X395871Y392458D01*
X395707Y392349D01*
X395652Y392293D01*
X395652Y392293D01*
X395652Y392293D01*
X395533Y392116D01*
X395430Y391962D01*
X395430Y391962D01*
X395430Y391962D01*
X395401Y391890D01*
X395360Y391685D01*
X395323Y391500D01*
Y391461D01*
Y336539D01*
Y336500D01*
X395360Y336315D01*
X395401Y336110D01*
X395430Y336038D01*
X395430Y336038D01*
X395430Y336038D01*
X395533Y335884D01*
X395652Y335707D01*
X395652Y335707D01*
X395652Y335707D01*
X395707Y335651D01*
X395707Y335651D01*
X395707Y335651D01*
X395884Y335533D01*
X396038Y335431D01*
X396038Y335431D01*
X396038Y335431D01*
X396110Y335401D01*
X396316Y335360D01*
X396500Y335323D01*
X451500D01*
X451685Y335360D01*
X451890Y335401D01*
X451962Y335431D01*
X451962Y335431D01*
X451962Y335431D01*
X452116Y335533D01*
X452293Y335651D01*
X452293Y335651D01*
X452293Y335651D01*
X452349Y335707D01*
X452458Y335871D01*
X452569Y336038D01*
X452569Y336038D01*
Y336038D01*
Y336038D01*
X452599Y336110D01*
Y336110D01*
X452599Y336110D01*
X452646Y336345D01*
X452677Y336500D01*
Y336500D01*
Y336500D01*
Y336539D01*
Y391461D01*
Y391500D01*
Y391500D01*
Y391500D01*
X452646Y391655D01*
X452599Y391890D01*
X452599Y391890D01*
Y391890D01*
X452569Y391962D01*
Y391962D01*
Y391962D01*
X452569Y391962D01*
X452458Y392129D01*
X452349Y392293D01*
X452293Y392349D01*
X452129Y392458D01*
X451962Y392569D01*
X451962Y392569D01*
X451962D01*
X451962D01*
X451890Y392599D01*
X451890D01*
X451890Y392600D01*
X451655Y392646D01*
X451500Y392677D01*
D02*
G37*
G36*
X303500D02*
X303500D01*
X303500D01*
X248500D01*
X248500D01*
X248500D01*
X248345Y392646D01*
X248110Y392600D01*
X248110Y392599D01*
X248110D01*
X248038Y392569D01*
X248038D01*
X248038D01*
X248038Y392569D01*
X247871Y392458D01*
X247707Y392349D01*
X247652Y392293D01*
X247652Y392293D01*
X247652Y392293D01*
X247533Y392116D01*
X247430Y391962D01*
X247430Y391962D01*
X247430Y391962D01*
X247400Y391890D01*
X247360Y391685D01*
X247323Y391500D01*
Y391461D01*
Y336539D01*
Y336500D01*
X247360Y336315D01*
X247400Y336110D01*
X247430Y336038D01*
X247430Y336038D01*
X247430Y336038D01*
X247533Y335884D01*
X247652Y335707D01*
X247652Y335707D01*
X247652Y335707D01*
X247707Y335651D01*
X247707Y335651D01*
X247707Y335651D01*
X247884Y335533D01*
X248038Y335431D01*
X248038Y335431D01*
X248038Y335431D01*
X248110Y335401D01*
X248316Y335360D01*
X248500Y335323D01*
X303500D01*
X303684Y335360D01*
X303890Y335401D01*
X303962Y335431D01*
X303962Y335431D01*
X303962Y335431D01*
X304116Y335533D01*
X304293Y335651D01*
X304293Y335651D01*
X304293Y335651D01*
X304348Y335707D01*
X304458Y335871D01*
X304570Y336038D01*
X304570Y336038D01*
Y336038D01*
Y336038D01*
X304599Y336110D01*
Y336110D01*
X304599Y336110D01*
X304646Y336345D01*
X304677Y336500D01*
Y336500D01*
Y336500D01*
Y336539D01*
Y391461D01*
Y391500D01*
Y391500D01*
Y391500D01*
X304646Y391655D01*
X304599Y391890D01*
X304599Y391890D01*
Y391890D01*
X304570Y391962D01*
Y391962D01*
Y391962D01*
X304570Y391962D01*
X304458Y392129D01*
X304348Y392293D01*
X304293Y392349D01*
X304129Y392458D01*
X303962Y392569D01*
X303962Y392569D01*
X303962D01*
X303962D01*
X303890Y392599D01*
X303890D01*
X303890Y392600D01*
X303655Y392646D01*
X303500Y392677D01*
D02*
G37*
G36*
X229500Y382677D02*
X229500D01*
X229500D01*
X174500D01*
X174500D01*
X174500D01*
X174345Y382646D01*
X174110Y382599D01*
X174110Y382599D01*
X174110D01*
X174038Y382570D01*
X174038D01*
X174038D01*
X174038Y382570D01*
X173871Y382458D01*
X173707Y382348D01*
X173652Y382293D01*
X173652Y382293D01*
X173651Y382293D01*
X173533Y382116D01*
X173431Y381962D01*
X173431Y381962D01*
X173431Y381962D01*
X173400Y381890D01*
X173360Y381684D01*
X173323Y381500D01*
Y381461D01*
Y326539D01*
Y326500D01*
X173360Y326315D01*
X173400Y326110D01*
X173431Y326038D01*
X173431Y326038D01*
X173431Y326038D01*
X173533Y325884D01*
X173651Y325707D01*
X173652Y325707D01*
X173652Y325707D01*
X173707Y325652D01*
X173707Y325652D01*
X173707Y325652D01*
X173884Y325533D01*
X174038Y325430D01*
X174038Y325430D01*
X174038Y325430D01*
X174110Y325400D01*
X174316Y325360D01*
X174500Y325323D01*
X229500D01*
X229684Y325360D01*
X229890Y325400D01*
X229962Y325430D01*
X229962Y325430D01*
X229962Y325430D01*
X230116Y325533D01*
X230293Y325652D01*
X230293Y325652D01*
X230293Y325652D01*
X230348Y325707D01*
X230458Y325871D01*
X230570Y326038D01*
X230570Y326038D01*
Y326038D01*
Y326038D01*
X230599Y326110D01*
Y326110D01*
X230599Y326110D01*
X230646Y326345D01*
X230677Y326500D01*
Y326500D01*
Y326500D01*
Y326539D01*
Y381461D01*
Y381500D01*
Y381500D01*
Y381500D01*
X230646Y381655D01*
X230599Y381890D01*
X230599Y381890D01*
Y381890D01*
X230570Y381962D01*
Y381962D01*
Y381962D01*
X230570Y381962D01*
X230458Y382129D01*
X230348Y382293D01*
X230293Y382348D01*
X230129Y382458D01*
X229962Y382570D01*
X229962Y382570D01*
X229962D01*
X229962D01*
X229890Y382599D01*
X229890D01*
X229890Y382599D01*
X229655Y382646D01*
X229500Y382677D01*
D02*
G37*
G36*
X237874Y399874D02*
X236126D01*
X234412Y399533D01*
X232797Y398864D01*
X231343Y397893D01*
X230107Y396657D01*
X229136Y395203D01*
X228467Y393588D01*
X228126Y391874D01*
Y390126D01*
X228467Y388411D01*
X229136Y386797D01*
X230107Y385343D01*
X231343Y384107D01*
X232797Y383136D01*
X234412Y382467D01*
X236126Y382126D01*
X237874D01*
X239588Y382467D01*
X241203Y383136D01*
X242657Y384107D01*
X243893Y385343D01*
X244864Y386797D01*
X245533Y388411D01*
X245874Y390126D01*
Y391874D01*
X245533Y393588D01*
X244864Y395203D01*
X243893Y396657D01*
X242657Y397893D01*
X241203Y398864D01*
X239588Y399533D01*
X237874Y399874D01*
D02*
G37*
G36*
X525500Y356677D02*
X525500D01*
X525500D01*
X470500D01*
X470500D01*
X470500D01*
X470345Y356646D01*
X470110Y356599D01*
X470110Y356599D01*
X470110D01*
X470038Y356570D01*
X470038D01*
X470038D01*
X470038Y356570D01*
X469871Y356458D01*
X469707Y356348D01*
X469652Y356293D01*
X469652Y356293D01*
X469652Y356293D01*
X469533Y356116D01*
X469430Y355962D01*
X469430Y355962D01*
X469430Y355962D01*
X469401Y355890D01*
X469360Y355684D01*
X469323Y355500D01*
Y355461D01*
Y300539D01*
Y300500D01*
X469360Y300315D01*
X469401Y300110D01*
X469430Y300038D01*
X469430Y300038D01*
X469430Y300038D01*
X469533Y299884D01*
X469652Y299707D01*
X469652Y299707D01*
X469652Y299707D01*
X469707Y299652D01*
X469707Y299652D01*
X469707Y299652D01*
X469884Y299533D01*
X470038Y299430D01*
X470038Y299430D01*
X470038Y299430D01*
X470110Y299400D01*
X470316Y299360D01*
X470500Y299323D01*
X525500D01*
X525684Y299360D01*
X525890Y299400D01*
X525962Y299430D01*
X525962Y299430D01*
X525962Y299430D01*
X526116Y299533D01*
X526293Y299652D01*
X526293Y299652D01*
X526293Y299652D01*
X526348Y299707D01*
X526458Y299871D01*
X526570Y300038D01*
X526570Y300038D01*
Y300038D01*
Y300038D01*
X526599Y300110D01*
Y300110D01*
X526600Y300110D01*
X526646Y300345D01*
X526677Y300500D01*
Y300500D01*
Y300500D01*
Y300539D01*
Y355461D01*
Y355500D01*
Y355500D01*
Y355500D01*
X526646Y355655D01*
X526600Y355890D01*
X526599Y355890D01*
Y355890D01*
X526570Y355962D01*
Y355962D01*
Y355962D01*
X526570Y355962D01*
X526458Y356129D01*
X526348Y356293D01*
X526293Y356348D01*
X526129Y356458D01*
X525962Y356570D01*
X525962Y356570D01*
X525962D01*
X525962D01*
X525890Y356599D01*
X525890D01*
X525890Y356599D01*
X525655Y356646D01*
X525500Y356677D01*
D02*
G37*
G36*
X535874Y373874D02*
X534126D01*
X532411Y373533D01*
X530797Y372864D01*
X529343Y371893D01*
X528107Y370657D01*
X527136Y369203D01*
X526467Y367588D01*
X526126Y365874D01*
Y364126D01*
X526467Y362411D01*
X527136Y360797D01*
X528107Y359343D01*
X529343Y358107D01*
X530797Y357136D01*
X532411Y356467D01*
X534126Y356126D01*
X535874D01*
X537589Y356467D01*
X539203Y357136D01*
X540657Y358107D01*
X541893Y359343D01*
X542864Y360797D01*
X543533Y362411D01*
X543874Y364126D01*
Y365874D01*
X543533Y367588D01*
X542864Y369203D01*
X541893Y370657D01*
X540657Y371893D01*
X539203Y372864D01*
X537589Y373533D01*
X535874Y373874D01*
D02*
G37*
G36*
X619500Y348677D02*
X619500D01*
X619500D01*
X564500D01*
X564500D01*
X564500D01*
X564345Y348646D01*
X564110Y348600D01*
X564110Y348599D01*
X564110D01*
X564038Y348569D01*
X564038D01*
X564038D01*
X564038Y348569D01*
X563871Y348458D01*
X563707Y348348D01*
X563652Y348293D01*
X563652Y348293D01*
X563652Y348293D01*
X563533Y348116D01*
X563431Y347962D01*
X563431Y347962D01*
X563431Y347962D01*
X563401Y347890D01*
X563360Y347685D01*
X563323Y347500D01*
Y347461D01*
Y292539D01*
Y292500D01*
X563360Y292316D01*
X563401Y292110D01*
X563431Y292038D01*
X563431Y292038D01*
X563431Y292038D01*
X563533Y291884D01*
X563652Y291707D01*
X563652Y291707D01*
X563652Y291707D01*
X563707Y291652D01*
X563707Y291652D01*
X563707Y291652D01*
X563884Y291533D01*
X564038Y291430D01*
X564038Y291430D01*
X564038Y291430D01*
X564110Y291401D01*
X564316Y291360D01*
X564500Y291323D01*
X619500D01*
X619685Y291360D01*
X619890Y291401D01*
X619962Y291430D01*
X619962Y291430D01*
X619962Y291430D01*
X620116Y291533D01*
X620293Y291652D01*
X620293Y291652D01*
X620293Y291652D01*
X620349Y291707D01*
X620458Y291871D01*
X620570Y292038D01*
X620570Y292038D01*
Y292038D01*
Y292038D01*
X620599Y292110D01*
Y292110D01*
X620600Y292110D01*
X620646Y292345D01*
X620677Y292500D01*
Y292500D01*
Y292500D01*
Y292539D01*
Y347461D01*
Y347500D01*
Y347500D01*
Y347500D01*
X620646Y347655D01*
X620600Y347890D01*
X620599Y347890D01*
Y347890D01*
X620570Y347962D01*
Y347962D01*
Y347962D01*
X620570Y347962D01*
X620458Y348129D01*
X620349Y348293D01*
X620293Y348348D01*
X620129Y348458D01*
X619962Y348569D01*
X619962Y348569D01*
X619962D01*
X619962D01*
X619890Y348599D01*
X619890D01*
X619890Y348600D01*
X619655Y348646D01*
X619500Y348677D01*
D02*
G37*
G36*
X377500Y328677D02*
X377500D01*
X377500D01*
X322500D01*
X322500D01*
X322500D01*
X322345Y328646D01*
X322110Y328600D01*
X322110Y328599D01*
X322110D01*
X322038Y328570D01*
X322038D01*
X322038D01*
X322038Y328570D01*
X321871Y328458D01*
X321707Y328348D01*
X321652Y328293D01*
X321652Y328293D01*
X321652Y328293D01*
X321533Y328116D01*
X321430Y327962D01*
X321430Y327962D01*
X321430Y327962D01*
X321400Y327890D01*
X321360Y327684D01*
X321323Y327500D01*
Y327461D01*
Y272539D01*
Y272500D01*
X321360Y272316D01*
X321400Y272110D01*
X321430Y272038D01*
X321430Y272038D01*
X321430Y272038D01*
X321533Y271884D01*
X321652Y271707D01*
X321652Y271707D01*
X321652Y271707D01*
X321707Y271652D01*
X321707Y271652D01*
X321707Y271652D01*
X321884Y271533D01*
X322038Y271430D01*
X322038Y271430D01*
X322038Y271430D01*
X322110Y271400D01*
X322316Y271360D01*
X322500Y271323D01*
X377500D01*
X377684Y271360D01*
X377890Y271400D01*
X377962Y271430D01*
X377962Y271430D01*
X377962Y271430D01*
X378116Y271533D01*
X378293Y271652D01*
X378293Y271652D01*
X378293Y271652D01*
X378348Y271707D01*
X378458Y271871D01*
X378570Y272038D01*
X378570Y272038D01*
Y272038D01*
Y272038D01*
X378599Y272110D01*
Y272110D01*
X378600Y272110D01*
X378646Y272345D01*
X378677Y272500D01*
Y272500D01*
Y272500D01*
Y272539D01*
Y327461D01*
Y327500D01*
Y327500D01*
Y327500D01*
X378646Y327655D01*
X378600Y327890D01*
X378599Y327890D01*
Y327890D01*
X378570Y327962D01*
Y327962D01*
Y327962D01*
X378570Y327962D01*
X378458Y328129D01*
X378348Y328293D01*
X378293Y328348D01*
X378129Y328458D01*
X377962Y328570D01*
X377962Y328570D01*
X377962D01*
X377962D01*
X377890Y328599D01*
X377890D01*
X377890Y328600D01*
X377655Y328646D01*
X377500Y328677D01*
D02*
G37*
G36*
X451500Y318677D02*
X451500D01*
X451500D01*
X396500D01*
X396500D01*
X396500D01*
X396345Y318646D01*
X396110Y318600D01*
X396110Y318599D01*
X396110D01*
X396038Y318569D01*
X396038D01*
X396038D01*
X396038Y318569D01*
X395871Y318458D01*
X395707Y318349D01*
X395652Y318293D01*
X395652Y318293D01*
X395652Y318293D01*
X395533Y318116D01*
X395430Y317962D01*
X395430Y317962D01*
X395430Y317962D01*
X395401Y317890D01*
X395360Y317685D01*
X395323Y317500D01*
Y317461D01*
Y262539D01*
Y262500D01*
X395360Y262316D01*
X395401Y262110D01*
X395430Y262038D01*
X395430Y262038D01*
X395430Y262038D01*
X395533Y261884D01*
X395652Y261707D01*
X395652Y261707D01*
X395652Y261707D01*
X395707Y261651D01*
X395707Y261651D01*
X395707Y261651D01*
X395884Y261533D01*
X396038Y261431D01*
X396038Y261431D01*
X396038Y261431D01*
X396110Y261401D01*
X396316Y261360D01*
X396500Y261323D01*
X451500D01*
X451685Y261360D01*
X451890Y261401D01*
X451962Y261431D01*
X451962Y261431D01*
X451962Y261431D01*
X452116Y261533D01*
X452293Y261651D01*
X452293Y261651D01*
X452293Y261651D01*
X452349Y261707D01*
X452458Y261871D01*
X452569Y262038D01*
X452569Y262038D01*
Y262038D01*
Y262038D01*
X452599Y262110D01*
Y262110D01*
X452599Y262110D01*
X452646Y262345D01*
X452677Y262500D01*
Y262500D01*
Y262500D01*
Y262539D01*
Y317461D01*
Y317500D01*
Y317500D01*
Y317500D01*
X452646Y317655D01*
X452599Y317890D01*
X452599Y317890D01*
Y317890D01*
X452569Y317962D01*
Y317962D01*
Y317962D01*
X452569Y317962D01*
X452458Y318129D01*
X452349Y318293D01*
X452293Y318349D01*
X452129Y318458D01*
X451962Y318569D01*
X451962Y318569D01*
X451962D01*
X451962D01*
X451890Y318599D01*
X451890D01*
X451890Y318600D01*
X451655Y318646D01*
X451500Y318677D01*
D02*
G37*
G36*
X303500D02*
X303500D01*
X303500D01*
X248500D01*
X248500D01*
X248500D01*
X248345Y318646D01*
X248110Y318600D01*
X248110Y318599D01*
X248110D01*
X248038Y318569D01*
X248038D01*
X248038D01*
X248038Y318569D01*
X247871Y318458D01*
X247707Y318349D01*
X247652Y318293D01*
X247652Y318293D01*
X247652Y318293D01*
X247533Y318116D01*
X247430Y317962D01*
X247430Y317962D01*
X247430Y317962D01*
X247400Y317890D01*
X247360Y317685D01*
X247323Y317500D01*
Y317461D01*
Y262539D01*
Y262500D01*
X247360Y262316D01*
X247400Y262110D01*
X247430Y262038D01*
X247430Y262038D01*
X247430Y262038D01*
X247533Y261884D01*
X247652Y261707D01*
X247652Y261707D01*
X247652Y261707D01*
X247707Y261651D01*
X247707Y261651D01*
X247707Y261651D01*
X247884Y261533D01*
X248038Y261431D01*
X248038Y261431D01*
X248038Y261431D01*
X248110Y261401D01*
X248316Y261360D01*
X248500Y261323D01*
X303500D01*
X303684Y261360D01*
X303890Y261401D01*
X303962Y261431D01*
X303962Y261431D01*
X303962Y261431D01*
X304116Y261533D01*
X304293Y261651D01*
X304293Y261651D01*
X304293Y261651D01*
X304348Y261707D01*
X304458Y261871D01*
X304570Y262038D01*
X304570Y262038D01*
Y262038D01*
Y262038D01*
X304599Y262110D01*
Y262110D01*
X304599Y262110D01*
X304646Y262345D01*
X304677Y262500D01*
Y262500D01*
Y262500D01*
Y262539D01*
Y317461D01*
Y317500D01*
Y317500D01*
Y317500D01*
X304646Y317655D01*
X304599Y317890D01*
X304599Y317890D01*
Y317890D01*
X304570Y317962D01*
Y317962D01*
Y317962D01*
X304570Y317962D01*
X304458Y318129D01*
X304348Y318293D01*
X304293Y318349D01*
X304129Y318458D01*
X303962Y318569D01*
X303962Y318569D01*
X303962D01*
X303962D01*
X303890Y318599D01*
X303890D01*
X303890Y318600D01*
X303655Y318646D01*
X303500Y318677D01*
D02*
G37*
G36*
X229500Y308677D02*
X229500D01*
X229500D01*
X174500D01*
X174500D01*
X174500D01*
X174345Y308646D01*
X174110Y308599D01*
X174110Y308599D01*
X174110D01*
X174038Y308570D01*
X174038D01*
X174038D01*
X174038Y308570D01*
X173871Y308458D01*
X173707Y308348D01*
X173652Y308293D01*
X173652Y308293D01*
X173651Y308293D01*
X173533Y308116D01*
X173431Y307962D01*
X173431Y307962D01*
X173431Y307962D01*
X173400Y307890D01*
X173360Y307684D01*
X173323Y307500D01*
Y307461D01*
Y252539D01*
Y252500D01*
X173360Y252315D01*
X173400Y252110D01*
X173431Y252038D01*
X173431Y252038D01*
X173431Y252038D01*
X173533Y251884D01*
X173651Y251707D01*
X173652Y251707D01*
X173652Y251707D01*
X173707Y251652D01*
X173707Y251652D01*
X173707Y251652D01*
X173884Y251533D01*
X174038Y251431D01*
X174038Y251431D01*
X174038Y251431D01*
X174110Y251400D01*
X174316Y251360D01*
X174500Y251323D01*
X229500D01*
X229684Y251360D01*
X229890Y251400D01*
X229962Y251431D01*
X229962Y251431D01*
X229962Y251431D01*
X230116Y251533D01*
X230293Y251652D01*
X230293Y251652D01*
X230293Y251652D01*
X230348Y251707D01*
X230458Y251871D01*
X230570Y252038D01*
X230570Y252038D01*
Y252038D01*
Y252038D01*
X230599Y252110D01*
Y252110D01*
X230599Y252110D01*
X230646Y252345D01*
X230677Y252500D01*
Y252500D01*
Y252500D01*
Y252539D01*
Y307461D01*
Y307500D01*
Y307500D01*
Y307500D01*
X230646Y307655D01*
X230599Y307890D01*
X230599Y307890D01*
Y307890D01*
X230570Y307962D01*
Y307962D01*
Y307962D01*
X230570Y307962D01*
X230458Y308129D01*
X230348Y308293D01*
X230293Y308348D01*
X230129Y308458D01*
X229962Y308570D01*
X229962Y308570D01*
X229962D01*
X229962D01*
X229890Y308599D01*
X229890D01*
X229890Y308599D01*
X229655Y308646D01*
X229500Y308677D01*
D02*
G37*
G36*
X155500D02*
X155500D01*
X155500D01*
X100500D01*
X100500D01*
X100500D01*
X100345Y308646D01*
X100110Y308599D01*
X100110Y308599D01*
X100110D01*
X100038Y308570D01*
X100038D01*
X100038D01*
X100038Y308570D01*
X99871Y308458D01*
X99707Y308348D01*
X99651Y308293D01*
X99651Y308293D01*
X99651Y308293D01*
X99533Y308116D01*
X99431Y307962D01*
X99431Y307962D01*
X99431Y307962D01*
X99401Y307890D01*
X99360Y307684D01*
X99323Y307500D01*
Y307461D01*
Y252539D01*
Y252500D01*
X99360Y252315D01*
X99401Y252110D01*
X99431Y252038D01*
X99431Y252038D01*
X99431Y252038D01*
X99533Y251884D01*
X99651Y251707D01*
X99651Y251707D01*
X99651Y251707D01*
X99707Y251652D01*
X99707Y251652D01*
X99707Y251652D01*
X99884Y251533D01*
X100038Y251431D01*
X100038Y251431D01*
X100038Y251431D01*
X100110Y251400D01*
X100315Y251360D01*
X100500Y251323D01*
X155500D01*
X155684Y251360D01*
X155890Y251400D01*
X155962Y251431D01*
X155962Y251431D01*
X155962Y251431D01*
X156116Y251533D01*
X156293Y251652D01*
X156293Y251652D01*
X156293Y251652D01*
X156349Y251707D01*
X156458Y251871D01*
X156570Y252038D01*
X156570Y252038D01*
Y252038D01*
Y252038D01*
X156599Y252110D01*
Y252110D01*
X156599Y252110D01*
X156646Y252345D01*
X156677Y252500D01*
Y252500D01*
Y252500D01*
Y252539D01*
Y307461D01*
Y307500D01*
Y307500D01*
Y307500D01*
X156646Y307655D01*
X156599Y307890D01*
X156599Y307890D01*
Y307890D01*
X156570Y307962D01*
Y307962D01*
Y307962D01*
X156570Y307962D01*
X156458Y308129D01*
X156349Y308293D01*
X156293Y308348D01*
X156129Y308458D01*
X155962Y308570D01*
X155962Y308570D01*
X155962D01*
X155962D01*
X155890Y308599D01*
X155890D01*
X155890Y308599D01*
X155655Y308646D01*
X155500Y308677D01*
D02*
G37*
G36*
X525500Y282677D02*
X525500D01*
X525500D01*
X470500D01*
X470500D01*
X470500D01*
X470345Y282646D01*
X470110Y282599D01*
X470110Y282599D01*
X470110D01*
X470038Y282570D01*
X470038D01*
X470038D01*
X470038Y282570D01*
X469871Y282458D01*
X469707Y282348D01*
X469652Y282293D01*
X469652Y282293D01*
X469652Y282293D01*
X469533Y282116D01*
X469430Y281962D01*
X469430Y281962D01*
X469430Y281962D01*
X469401Y281890D01*
X469360Y281684D01*
X469323Y281500D01*
Y281461D01*
Y226539D01*
Y226500D01*
X469360Y226315D01*
X469401Y226110D01*
X469430Y226038D01*
X469430Y226038D01*
X469430Y226038D01*
X469533Y225884D01*
X469652Y225707D01*
X469652Y225707D01*
X469652Y225707D01*
X469707Y225652D01*
X469707Y225652D01*
X469707Y225652D01*
X469884Y225533D01*
X470038Y225430D01*
X470038Y225430D01*
X470038Y225430D01*
X470110Y225400D01*
X470316Y225360D01*
X470500Y225323D01*
X525500D01*
X525684Y225360D01*
X525890Y225400D01*
X525962Y225430D01*
X525962Y225430D01*
X525962Y225430D01*
X526116Y225533D01*
X526293Y225652D01*
X526293Y225652D01*
X526293Y225652D01*
X526348Y225707D01*
X526458Y225871D01*
X526570Y226038D01*
X526570Y226038D01*
Y226038D01*
Y226038D01*
X526599Y226110D01*
Y226110D01*
X526600Y226110D01*
X526646Y226345D01*
X526677Y226500D01*
Y226500D01*
Y226500D01*
Y226539D01*
Y281461D01*
Y281500D01*
Y281500D01*
Y281500D01*
X526646Y281655D01*
X526600Y281890D01*
X526599Y281890D01*
Y281890D01*
X526570Y281962D01*
Y281962D01*
Y281962D01*
X526570Y281962D01*
X526458Y282129D01*
X526348Y282293D01*
X526293Y282348D01*
X526129Y282458D01*
X525962Y282570D01*
X525962Y282570D01*
X525962D01*
X525962D01*
X525890Y282599D01*
X525890D01*
X525890Y282599D01*
X525655Y282646D01*
X525500Y282677D01*
D02*
G37*
G36*
X619500Y274677D02*
X619500D01*
X619500D01*
X564500D01*
X564500D01*
X564500D01*
X564345Y274646D01*
X564110Y274600D01*
X564110Y274599D01*
X564110D01*
X564038Y274570D01*
X564038D01*
X564038D01*
X564038Y274570D01*
X563871Y274458D01*
X563707Y274348D01*
X563652Y274293D01*
X563652Y274293D01*
X563652Y274293D01*
X563533Y274116D01*
X563431Y273962D01*
X563431Y273962D01*
X563431Y273962D01*
X563401Y273890D01*
X563360Y273685D01*
X563323Y273500D01*
Y273461D01*
Y218539D01*
Y218500D01*
X563360Y218316D01*
X563401Y218110D01*
X563431Y218038D01*
X563431Y218038D01*
X563431Y218038D01*
X563533Y217884D01*
X563652Y217707D01*
X563652Y217707D01*
X563652Y217707D01*
X563707Y217652D01*
X563707Y217652D01*
X563707Y217652D01*
X563884Y217533D01*
X564038Y217430D01*
X564038Y217430D01*
X564038Y217430D01*
X564110Y217401D01*
X564316Y217360D01*
X564500Y217323D01*
X619500D01*
X619685Y217360D01*
X619890Y217401D01*
X619962Y217430D01*
X619962Y217430D01*
X619962Y217430D01*
X620116Y217533D01*
X620293Y217652D01*
X620293Y217652D01*
X620293Y217652D01*
X620349Y217707D01*
X620458Y217871D01*
X620570Y218038D01*
X620570Y218038D01*
Y218038D01*
Y218038D01*
X620599Y218110D01*
Y218110D01*
X620600Y218110D01*
X620646Y218345D01*
X620677Y218500D01*
Y218500D01*
Y218500D01*
Y218539D01*
Y273461D01*
Y273500D01*
Y273500D01*
Y273500D01*
X620646Y273655D01*
X620600Y273890D01*
X620599Y273890D01*
Y273890D01*
X620570Y273962D01*
Y273962D01*
Y273962D01*
X620570Y273962D01*
X620458Y274129D01*
X620349Y274293D01*
X620293Y274348D01*
X620129Y274458D01*
X619962Y274570D01*
X619962Y274570D01*
X619962D01*
X619962D01*
X619890Y274599D01*
X619890D01*
X619890Y274600D01*
X619655Y274646D01*
X619500Y274677D01*
D02*
G37*
G36*
X377500Y254677D02*
X377500D01*
X377500D01*
X322500D01*
X322500D01*
X322500D01*
X322345Y254646D01*
X322110Y254599D01*
X322110Y254599D01*
X322110D01*
X322038Y254570D01*
X322038D01*
X322038D01*
X322038Y254570D01*
X321871Y254458D01*
X321707Y254348D01*
X321652Y254293D01*
X321652Y254293D01*
X321652Y254293D01*
X321533Y254116D01*
X321430Y253962D01*
X321430Y253962D01*
X321430Y253962D01*
X321400Y253890D01*
X321360Y253684D01*
X321323Y253500D01*
Y253461D01*
Y198539D01*
Y198500D01*
X321360Y198316D01*
X321400Y198110D01*
X321430Y198038D01*
X321430Y198038D01*
X321430Y198038D01*
X321533Y197884D01*
X321652Y197707D01*
X321652Y197707D01*
X321652Y197707D01*
X321707Y197652D01*
X321707Y197652D01*
X321707Y197651D01*
X321884Y197533D01*
X322038Y197431D01*
X322038Y197431D01*
X322038Y197431D01*
X322110Y197400D01*
X322316Y197360D01*
X322500Y197323D01*
X377500D01*
X377684Y197360D01*
X377890Y197400D01*
X377962Y197431D01*
X377962Y197431D01*
X377962Y197431D01*
X378116Y197533D01*
X378293Y197651D01*
X378293Y197652D01*
X378293Y197652D01*
X378348Y197707D01*
X378458Y197871D01*
X378570Y198038D01*
X378570Y198038D01*
Y198038D01*
Y198038D01*
X378599Y198110D01*
Y198110D01*
X378600Y198110D01*
X378646Y198345D01*
X378677Y198500D01*
Y198500D01*
Y198500D01*
Y198539D01*
Y253461D01*
Y253500D01*
Y253500D01*
Y253500D01*
X378646Y253655D01*
X378600Y253890D01*
X378599Y253890D01*
Y253890D01*
X378570Y253962D01*
Y253962D01*
Y253962D01*
X378570Y253962D01*
X378458Y254129D01*
X378348Y254293D01*
X378293Y254348D01*
X378129Y254458D01*
X377962Y254570D01*
X377962Y254570D01*
X377962D01*
X377962D01*
X377890Y254599D01*
X377890D01*
X377890Y254599D01*
X377655Y254646D01*
X377500Y254677D01*
D02*
G37*
G36*
X451500Y244677D02*
X451500D01*
X451500D01*
X396500D01*
X396500D01*
X396500D01*
X396345Y244646D01*
X396110Y244600D01*
X396110Y244599D01*
X396110D01*
X396038Y244569D01*
X396038D01*
X396038D01*
X396038Y244569D01*
X395871Y244458D01*
X395707Y244349D01*
X395652Y244293D01*
X395652Y244293D01*
X395652Y244293D01*
X395533Y244116D01*
X395430Y243962D01*
X395430Y243962D01*
X395430Y243962D01*
X395401Y243890D01*
X395360Y243685D01*
X395323Y243500D01*
Y243461D01*
Y188539D01*
Y188500D01*
X395360Y188315D01*
X395401Y188110D01*
X395430Y188038D01*
X395430Y188038D01*
X395430Y188038D01*
X395533Y187884D01*
X395652Y187707D01*
X395652Y187707D01*
X395652Y187707D01*
X395707Y187652D01*
X395707Y187652D01*
X395707Y187651D01*
X395884Y187533D01*
X396038Y187431D01*
X396038Y187431D01*
X396038Y187431D01*
X396110Y187400D01*
X396316Y187360D01*
X396500Y187323D01*
X451500D01*
X451685Y187360D01*
X451890Y187400D01*
X451962Y187431D01*
X451962Y187431D01*
X451962Y187431D01*
X452116Y187533D01*
X452293Y187651D01*
X452293Y187652D01*
X452293Y187652D01*
X452349Y187707D01*
X452458Y187871D01*
X452569Y188038D01*
X452569Y188038D01*
Y188038D01*
Y188038D01*
X452599Y188110D01*
Y188110D01*
X452599Y188110D01*
X452646Y188345D01*
X452677Y188500D01*
Y188500D01*
Y188500D01*
Y188539D01*
Y243461D01*
Y243500D01*
Y243500D01*
Y243500D01*
X452646Y243655D01*
X452599Y243890D01*
X452599Y243890D01*
Y243890D01*
X452569Y243962D01*
Y243962D01*
Y243962D01*
X452569Y243962D01*
X452458Y244129D01*
X452349Y244293D01*
X452293Y244349D01*
X452129Y244458D01*
X451962Y244569D01*
X451962Y244569D01*
X451962D01*
X451962D01*
X451890Y244599D01*
X451890D01*
X451890Y244600D01*
X451655Y244646D01*
X451500Y244677D01*
D02*
G37*
G36*
X303500D02*
X303500D01*
X303500D01*
X248500D01*
X248500D01*
X248500D01*
X248345Y244646D01*
X248110Y244600D01*
X248110Y244599D01*
X248110D01*
X248038Y244569D01*
X248038D01*
X248038D01*
X248038Y244569D01*
X247871Y244458D01*
X247707Y244349D01*
X247652Y244293D01*
X247652Y244293D01*
X247652Y244293D01*
X247533Y244116D01*
X247430Y243962D01*
X247430Y243962D01*
X247430Y243962D01*
X247400Y243890D01*
X247360Y243685D01*
X247323Y243500D01*
Y243461D01*
Y188539D01*
Y188500D01*
X247360Y188315D01*
X247400Y188110D01*
X247430Y188038D01*
X247430Y188038D01*
X247430Y188038D01*
X247533Y187884D01*
X247652Y187707D01*
X247652Y187707D01*
X247652Y187707D01*
X247707Y187652D01*
X247707Y187652D01*
X247707Y187651D01*
X247884Y187533D01*
X248038Y187431D01*
X248038Y187431D01*
X248038Y187431D01*
X248110Y187400D01*
X248316Y187360D01*
X248500Y187323D01*
X303500D01*
X303684Y187360D01*
X303890Y187400D01*
X303962Y187431D01*
X303962Y187431D01*
X303962Y187431D01*
X304116Y187533D01*
X304293Y187651D01*
X304293Y187652D01*
X304293Y187652D01*
X304348Y187707D01*
X304458Y187871D01*
X304570Y188038D01*
X304570Y188038D01*
Y188038D01*
Y188038D01*
X304599Y188110D01*
Y188110D01*
X304599Y188110D01*
X304646Y188345D01*
X304677Y188500D01*
Y188500D01*
Y188500D01*
Y188539D01*
Y243461D01*
Y243500D01*
Y243500D01*
Y243500D01*
X304646Y243655D01*
X304599Y243890D01*
X304599Y243890D01*
Y243890D01*
X304570Y243962D01*
Y243962D01*
Y243962D01*
X304570Y243962D01*
X304458Y244129D01*
X304348Y244293D01*
X304293Y244349D01*
X304129Y244458D01*
X303962Y244569D01*
X303962Y244569D01*
X303962D01*
X303962D01*
X303890Y244599D01*
X303890D01*
X303890Y244600D01*
X303655Y244646D01*
X303500Y244677D01*
D02*
G37*
G36*
X229500Y234677D02*
X229500D01*
X229500D01*
X174500D01*
X174500D01*
X174500D01*
X174345Y234646D01*
X174110Y234599D01*
X174110Y234599D01*
X174110D01*
X174038Y234570D01*
X174038D01*
X174038D01*
X174038Y234570D01*
X173871Y234458D01*
X173707Y234349D01*
X173652Y234293D01*
X173652Y234293D01*
X173651Y234293D01*
X173533Y234116D01*
X173431Y233962D01*
X173431Y233962D01*
X173431Y233962D01*
X173400Y233890D01*
X173360Y233684D01*
X173323Y233500D01*
Y233461D01*
Y178539D01*
Y178500D01*
X173360Y178315D01*
X173400Y178110D01*
X173431Y178038D01*
X173431Y178038D01*
X173431Y178038D01*
X173533Y177884D01*
X173651Y177707D01*
X173652Y177707D01*
X173652Y177707D01*
X173707Y177652D01*
X173707Y177652D01*
X173707Y177651D01*
X173884Y177533D01*
X174038Y177430D01*
X174038Y177430D01*
X174038Y177430D01*
X174110Y177401D01*
X174316Y177360D01*
X174500Y177323D01*
X229500D01*
X229684Y177360D01*
X229890Y177401D01*
X229962Y177430D01*
X229962Y177430D01*
X229962Y177430D01*
X230116Y177533D01*
X230293Y177651D01*
X230293Y177652D01*
X230293Y177652D01*
X230348Y177707D01*
X230458Y177871D01*
X230570Y178038D01*
X230570Y178038D01*
Y178038D01*
Y178038D01*
X230599Y178110D01*
Y178110D01*
X230599Y178110D01*
X230646Y178345D01*
X230677Y178500D01*
Y178500D01*
Y178500D01*
Y178539D01*
Y233461D01*
Y233500D01*
Y233500D01*
Y233500D01*
X230646Y233655D01*
X230599Y233890D01*
X230599Y233890D01*
Y233890D01*
X230570Y233962D01*
Y233962D01*
Y233962D01*
X230570Y233962D01*
X230458Y234129D01*
X230348Y234293D01*
X230293Y234349D01*
X230129Y234458D01*
X229962Y234570D01*
X229962Y234570D01*
X229962D01*
X229962D01*
X229890Y234599D01*
X229890D01*
X229890Y234599D01*
X229655Y234646D01*
X229500Y234677D01*
D02*
G37*
G36*
X90732Y223642D02*
X90732Y223642D01*
X90682Y223642D01*
X90681Y223642D01*
X90681Y223642D01*
X90502Y223606D01*
X90433Y223592D01*
X90410Y223589D01*
X90405Y223587D01*
X90291Y223564D01*
X90291Y223564D01*
X90291Y223564D01*
X90197Y223525D01*
X90197D01*
X89976Y223377D01*
X89866Y223304D01*
Y223304D01*
X89866D01*
X89794Y223232D01*
Y223232D01*
X89794D01*
X89721Y223122D01*
X89573Y222901D01*
Y222901D01*
X89534Y222807D01*
X89534Y222807D01*
X89534Y222807D01*
X89492Y222597D01*
X89457Y222417D01*
X89457Y222417D01*
X89457Y222417D01*
X89457Y222366D01*
Y175665D01*
X89457Y175608D01*
X89457Y175608D01*
X89457Y175608D01*
X89494Y175421D01*
X89534Y175218D01*
X89534Y175218D01*
X89534Y175218D01*
X89578Y175112D01*
X89578Y175112D01*
Y175112D01*
X89711Y174913D01*
X89799Y174782D01*
X89799Y174782D01*
X89799Y174782D01*
X89880Y174701D01*
X89880Y174701D01*
X89880Y174701D01*
X90037Y174596D01*
X90211Y174480D01*
X90211Y174480D01*
X90211Y174480D01*
X90316Y174436D01*
D01*
X90317Y174436D01*
X90566Y174386D01*
X90707Y174358D01*
X90707D01*
X90707D01*
X90764Y174358D01*
X151165Y174358D01*
X151165Y174358D01*
X151231Y174358D01*
X151232Y174358D01*
X151232Y174358D01*
X151416Y174395D01*
X151622Y174436D01*
X151622Y174436D01*
X151622Y174436D01*
X151745Y174487D01*
X151745Y174487D01*
X151745Y174487D01*
X151911Y174598D01*
X152076Y174708D01*
X152076Y174708D01*
X152076Y174708D01*
X152170Y174802D01*
X152170Y174802D01*
X152170Y174802D01*
X152275Y174959D01*
X152391Y175133D01*
X152391Y175133D01*
X152391Y175133D01*
X152442Y175256D01*
X152442Y175256D01*
X152442Y175256D01*
X152483Y175462D01*
X152520Y175646D01*
X152520Y175646D01*
X152520Y175646D01*
X152520Y175713D01*
X152520Y222319D01*
X152520Y222319D01*
X152520Y222379D01*
X152520Y222379D01*
X152520Y222379D01*
X152490Y222527D01*
X152488Y222572D01*
X152477Y222595D01*
X152442Y222769D01*
X152442Y222769D01*
X152442Y222769D01*
X152396Y222881D01*
X152396Y222881D01*
X152396Y222881D01*
X152299Y223026D01*
X152175Y223211D01*
X152175Y223211D01*
X152175Y223212D01*
X152090Y223297D01*
X152090Y223297D01*
X152090Y223297D01*
X151862Y223449D01*
X151759Y223518D01*
X151759Y223518D01*
X151759Y223518D01*
X151647Y223564D01*
X151647Y223564D01*
X151647Y223564D01*
X151473Y223599D01*
X151257Y223642D01*
X151257Y223642D01*
X151257Y223642D01*
X151197Y223642D01*
X90732Y223642D01*
D02*
G37*
G36*
X525500Y208677D02*
X525500D01*
X525500D01*
X470500D01*
X470500D01*
X470500D01*
X470345Y208646D01*
X470110Y208599D01*
X470110Y208599D01*
X470110D01*
X470038Y208570D01*
X470038D01*
X470038D01*
X470038Y208570D01*
X469871Y208458D01*
X469707Y208348D01*
X469652Y208293D01*
X469652Y208293D01*
X469652Y208293D01*
X469533Y208116D01*
X469430Y207962D01*
X469430Y207962D01*
X469430Y207962D01*
X469401Y207890D01*
X469360Y207684D01*
X469323Y207500D01*
Y207461D01*
Y152539D01*
Y152500D01*
X469360Y152315D01*
X469401Y152110D01*
X469430Y152038D01*
X469430Y152038D01*
X469430Y152038D01*
X469533Y151884D01*
X469652Y151707D01*
X469652Y151707D01*
X469652Y151707D01*
X469707Y151652D01*
X469707Y151652D01*
X469707Y151651D01*
X469884Y151533D01*
X470038Y151430D01*
X470038Y151430D01*
X470038Y151430D01*
X470110Y151400D01*
X470316Y151360D01*
X470500Y151323D01*
X525500D01*
X525684Y151360D01*
X525890Y151400D01*
X525962Y151430D01*
X525962Y151430D01*
X525962Y151430D01*
X526116Y151533D01*
X526293Y151651D01*
X526293Y151652D01*
X526293Y151652D01*
X526348Y151707D01*
X526458Y151871D01*
X526570Y152038D01*
X526570Y152038D01*
Y152038D01*
Y152038D01*
X526599Y152110D01*
Y152110D01*
X526600Y152110D01*
X526646Y152345D01*
X526677Y152500D01*
Y152500D01*
Y152500D01*
Y152539D01*
Y207461D01*
Y207500D01*
Y207500D01*
Y207500D01*
X526646Y207655D01*
X526600Y207890D01*
X526599Y207890D01*
Y207890D01*
X526570Y207962D01*
Y207962D01*
Y207962D01*
X526570Y207962D01*
X526458Y208129D01*
X526348Y208293D01*
X526293Y208348D01*
X526129Y208458D01*
X525962Y208570D01*
X525962Y208570D01*
X525962D01*
X525962D01*
X525890Y208599D01*
X525890D01*
X525890Y208599D01*
X525655Y208646D01*
X525500Y208677D01*
D02*
G37*
G36*
X535874Y225874D02*
X534126D01*
X532411Y225533D01*
X530797Y224864D01*
X529343Y223893D01*
X528107Y222657D01*
X527136Y221203D01*
X526467Y219588D01*
X526126Y217874D01*
Y216126D01*
X526467Y214411D01*
X527136Y212797D01*
X528107Y211343D01*
X529343Y210107D01*
X530797Y209136D01*
X532411Y208467D01*
X534126Y208126D01*
X535874D01*
X537589Y208467D01*
X539203Y209136D01*
X540657Y210107D01*
X541893Y211343D01*
X542864Y212797D01*
X543533Y214411D01*
X543874Y216126D01*
Y217874D01*
X543533Y219588D01*
X542864Y221203D01*
X541893Y222657D01*
X540657Y223893D01*
X539203Y224864D01*
X537589Y225533D01*
X535874Y225874D01*
D02*
G37*
G36*
X619500Y199677D02*
X619500D01*
X619500D01*
X564500D01*
X564500D01*
X564500D01*
X564345Y199646D01*
X564110Y199600D01*
X564110Y199600D01*
X564110D01*
X564038Y199569D01*
X564038D01*
X564038D01*
X564038Y199569D01*
X563871Y199458D01*
X563707Y199348D01*
X563652Y199293D01*
X563652Y199293D01*
X563652Y199293D01*
X563533Y199116D01*
X563431Y198962D01*
X563431Y198962D01*
X563431Y198962D01*
X563401Y198890D01*
X563360Y198685D01*
X563323Y198500D01*
Y198461D01*
Y143539D01*
Y143500D01*
X563360Y143315D01*
X563401Y143110D01*
X563431Y143038D01*
X563431Y143038D01*
X563431Y143038D01*
X563533Y142884D01*
X563652Y142707D01*
X563652Y142707D01*
X563652Y142707D01*
X563707Y142651D01*
X563707Y142651D01*
X563707Y142651D01*
X563884Y142533D01*
X564038Y142430D01*
X564038Y142430D01*
X564038Y142430D01*
X564110Y142401D01*
X564316Y142360D01*
X564500Y142323D01*
X619500D01*
X619685Y142360D01*
X619890Y142401D01*
X619962Y142430D01*
X619962Y142430D01*
X619962Y142430D01*
X620116Y142533D01*
X620293Y142651D01*
X620293Y142651D01*
X620293Y142651D01*
X620349Y142707D01*
X620458Y142871D01*
X620570Y143038D01*
X620570Y143038D01*
Y143038D01*
Y143038D01*
X620599Y143110D01*
Y143110D01*
X620600Y143110D01*
X620646Y143345D01*
X620677Y143500D01*
Y143500D01*
Y143500D01*
Y143539D01*
Y198461D01*
Y198500D01*
Y198500D01*
Y198500D01*
X620646Y198655D01*
X620600Y198890D01*
X620599Y198890D01*
Y198890D01*
X620570Y198962D01*
Y198962D01*
Y198962D01*
X620570Y198962D01*
X620458Y199129D01*
X620349Y199293D01*
X620293Y199348D01*
X620129Y199458D01*
X619962Y199569D01*
X619962Y199569D01*
X619962D01*
X619962D01*
X619890Y199600D01*
X619890D01*
X619890Y199600D01*
X619655Y199646D01*
X619500Y199677D01*
D02*
G37*
G36*
X303500Y170677D02*
X303500D01*
X303500D01*
X248500D01*
X248500D01*
X248500D01*
X248345Y170646D01*
X248110Y170599D01*
X248110Y170599D01*
X248110D01*
X248038Y170570D01*
X248038D01*
X248038D01*
X248038Y170570D01*
X247871Y170458D01*
X247707Y170349D01*
X247652Y170293D01*
X247652Y170293D01*
X247652Y170293D01*
X247533Y170116D01*
X247430Y169962D01*
X247430Y169962D01*
X247430Y169962D01*
X247400Y169890D01*
X247360Y169685D01*
X247323Y169500D01*
Y169461D01*
Y114539D01*
Y114500D01*
X247360Y114315D01*
X247400Y114110D01*
X247430Y114038D01*
X247430Y114038D01*
X247430Y114038D01*
X247533Y113884D01*
X247652Y113707D01*
X247652Y113707D01*
X247652Y113707D01*
X247707Y113652D01*
X247707Y113652D01*
X247707Y113651D01*
X247884Y113533D01*
X248038Y113431D01*
X248038Y113431D01*
X248038Y113431D01*
X248110Y113400D01*
X248316Y113360D01*
X248500Y113323D01*
X303500D01*
X303684Y113360D01*
X303890Y113400D01*
X303962Y113431D01*
X303962Y113431D01*
X303962Y113431D01*
X304116Y113533D01*
X304293Y113651D01*
X304293Y113652D01*
X304293Y113652D01*
X304348Y113707D01*
X304458Y113871D01*
X304570Y114038D01*
X304570Y114038D01*
Y114038D01*
Y114038D01*
X304599Y114110D01*
Y114110D01*
X304599Y114110D01*
X304646Y114345D01*
X304677Y114500D01*
Y114500D01*
Y114500D01*
Y114539D01*
Y169461D01*
Y169500D01*
Y169500D01*
Y169500D01*
X304646Y169655D01*
X304599Y169890D01*
X304599Y169890D01*
Y169890D01*
X304570Y169962D01*
Y169962D01*
Y169962D01*
X304570Y169962D01*
X304458Y170129D01*
X304348Y170293D01*
X304293Y170349D01*
X304129Y170458D01*
X303962Y170570D01*
X303962Y170570D01*
X303962D01*
X303962D01*
X303890Y170599D01*
X303890D01*
X303890Y170599D01*
X303655Y170646D01*
X303500Y170677D01*
D02*
G37*
G36*
X313874Y187874D02*
X312126D01*
X310412Y187533D01*
X308797Y186864D01*
X307343Y185893D01*
X306107Y184657D01*
X305136Y183203D01*
X304467Y181588D01*
X304126Y179874D01*
Y178126D01*
X304467Y176412D01*
X305136Y174797D01*
X306107Y173343D01*
X307343Y172107D01*
X308797Y171136D01*
X310412Y170467D01*
X312126Y170126D01*
X313874D01*
X315588Y170467D01*
X317203Y171136D01*
X318657Y172107D01*
X319893Y173343D01*
X320864Y174797D01*
X321533Y176412D01*
X321874Y178126D01*
Y179874D01*
X321533Y181588D01*
X320864Y183203D01*
X319893Y184657D01*
X318657Y185893D01*
X317203Y186864D01*
X315588Y187533D01*
X313874Y187874D01*
D02*
G37*
G36*
X206576Y159224D02*
D01*
X206576D01*
X206498Y159223D01*
X206498Y159223D01*
X206498Y159223D01*
X206306Y159183D01*
X206109Y159142D01*
X206109Y159142D01*
X206109Y159142D01*
X206073Y159127D01*
D01*
X155517Y137668D01*
X155517Y137668D01*
X155517Y137668D01*
X155481Y137652D01*
X155481D01*
X155481D01*
X155481Y137652D01*
X155152Y137428D01*
X155152Y137428D01*
X155097Y137373D01*
X154956Y137157D01*
X154879Y137040D01*
X154879Y137040D01*
X154879Y137040D01*
X154879Y137040D01*
X154850Y136967D01*
X154776Y136576D01*
D01*
Y136576D01*
X154777Y136498D01*
X154777Y136498D01*
X154777Y136498D01*
X154817Y136306D01*
X154858Y136109D01*
X154858Y136109D01*
X154858Y136109D01*
X154873Y136073D01*
Y136073D01*
X176332Y85517D01*
X176332Y85517D01*
X176348Y85481D01*
Y85481D01*
Y85481D01*
X176348Y85481D01*
X176572Y85152D01*
X176572Y85152D01*
X176627Y85097D01*
X176843Y84956D01*
X176960Y84879D01*
X176960Y84879D01*
X176960Y84879D01*
X176960Y84879D01*
X177033Y84850D01*
X177424Y84776D01*
D01*
X177424D01*
X177502Y84777D01*
X177502Y84777D01*
X177502Y84777D01*
X177694Y84817D01*
X177891Y84858D01*
X177891Y84858D01*
X177891Y84858D01*
X177927Y84873D01*
D01*
X228483Y106332D01*
D01*
X228483Y106332D01*
X228519Y106348D01*
X228519D01*
X228519D01*
X228519Y106348D01*
X228848Y106572D01*
X228848Y106572D01*
X228903Y106627D01*
X229044Y106843D01*
X229120Y106960D01*
X229121Y106960D01*
X229121Y106960D01*
X229121Y106960D01*
X229150Y107033D01*
X229224Y107423D01*
D01*
Y107423D01*
X229223Y107502D01*
X229223Y107502D01*
X229223Y107502D01*
X229183Y107694D01*
X229142Y107891D01*
X229142Y107891D01*
X229142Y107891D01*
X229127Y107927D01*
Y107927D01*
X207668Y158483D01*
X207668Y158483D01*
Y158483D01*
X207652Y158519D01*
Y158519D01*
Y158519D01*
X207652Y158519D01*
X207428Y158848D01*
X207428Y158848D01*
X207373Y158903D01*
X207157Y159044D01*
X207040Y159121D01*
X207040Y159121D01*
X207040Y159121D01*
X207040Y159121D01*
X206967Y159150D01*
X206576Y159224D01*
D02*
G37*
G36*
X117874Y163874D02*
X116126D01*
X114412Y163533D01*
X112797Y162864D01*
X111343Y161893D01*
X110107Y160657D01*
X109136Y159203D01*
X108467Y157588D01*
X108126Y155874D01*
Y154126D01*
X108467Y152412D01*
X109136Y150797D01*
X110107Y149343D01*
X111343Y148107D01*
X112797Y147136D01*
X114412Y146467D01*
X116126Y146126D01*
X117874D01*
X119588Y146467D01*
X121203Y147136D01*
X122657Y148107D01*
X123893Y149343D01*
X124864Y150797D01*
X125533Y152412D01*
X125874Y154126D01*
Y155874D01*
X125533Y157588D01*
X124864Y159203D01*
X123893Y160657D01*
X122657Y161893D01*
X121203Y162864D01*
X119588Y163533D01*
X117874Y163874D01*
D02*
G37*
G36*
X345424Y159224D02*
X345033Y159150D01*
X344960Y159121D01*
X344787Y159007D01*
X344627Y158903D01*
X344571Y158848D01*
X344348Y158519D01*
X344348Y158519D01*
X344332Y158483D01*
X344332Y158483D01*
X344332Y158483D01*
X322873Y107927D01*
X322873Y107927D01*
X322858Y107891D01*
X322858Y107891D01*
X322858Y107891D01*
X322814Y107684D01*
X322777Y107502D01*
X322777Y107502D01*
X322777Y107502D01*
X322776Y107423D01*
X322850Y107033D01*
X322879Y106960D01*
X322993Y106787D01*
X323097Y106627D01*
X323152Y106572D01*
X323481Y106348D01*
X323481Y106348D01*
X323517Y106332D01*
X323517Y106332D01*
X323517Y106332D01*
X374073Y84873D01*
X374073Y84873D01*
X374109Y84858D01*
X374109Y84858D01*
X374109Y84858D01*
X374316Y84815D01*
X374498Y84777D01*
X374498Y84777D01*
X374498Y84777D01*
X374576Y84776D01*
X374967Y84850D01*
X375040Y84879D01*
X375213Y84993D01*
X375373Y85097D01*
X375428Y85152D01*
X375652Y85481D01*
X375652Y85481D01*
X375668Y85517D01*
X375668Y85517D01*
X375668Y85517D01*
X397127Y136073D01*
Y136073D01*
X397142Y136109D01*
X397142Y136109D01*
X397142Y136109D01*
X397185Y136316D01*
X397223Y136498D01*
X397223Y136498D01*
X397223Y136498D01*
X397224Y136576D01*
X397150Y136967D01*
X397120Y137040D01*
X397007Y137213D01*
X396902Y137373D01*
X396848Y137428D01*
X396519Y137652D01*
X396519Y137652D01*
X396483Y137668D01*
X396483D01*
X396483Y137668D01*
X345927Y159127D01*
X345927Y159127D01*
X345891Y159142D01*
X345891Y159142D01*
X345891Y159142D01*
X345684Y159186D01*
X345502Y159223D01*
X345502Y159223D01*
X345502Y159223D01*
X345424Y159224D01*
D02*
G37*
G36*
X111703Y133707D02*
X111507Y133686D01*
X111308Y133664D01*
X111308Y133664D01*
X111307D01*
X111233Y133641D01*
X111021Y133524D01*
X110884Y133449D01*
X110884Y133449D01*
X110884Y133449D01*
X110884Y133449D01*
X110854Y133424D01*
X110854Y133424D01*
X110854Y133424D01*
X68782Y98121D01*
X68782Y98121D01*
X68782Y98121D01*
X68752Y98096D01*
X68752Y98096D01*
X68752Y98096D01*
X68752Y98096D01*
X68733Y98072D01*
X68716Y98061D01*
X68716Y98061D01*
X68679Y98005D01*
X68633Y97948D01*
X68503Y97786D01*
X68503Y97786D01*
X68503Y97786D01*
Y97786D01*
X68467Y97716D01*
X68412Y97529D01*
X68355Y97334D01*
X68349Y97256D01*
X68349Y97256D01*
X68349Y97256D01*
X68370Y97060D01*
X68392Y96861D01*
X68392Y96861D01*
Y96861D01*
X68415Y96786D01*
X68532Y96575D01*
X68607Y96438D01*
X68607Y96438D01*
X68607Y96438D01*
X68607Y96437D01*
X68632Y96408D01*
X68632Y96408D01*
X68632Y96408D01*
X103935Y54335D01*
X103935Y54335D01*
X103935Y54335D01*
X103960Y54305D01*
X103960Y54305D01*
X103960Y54305D01*
X103960Y54305D01*
X103984Y54286D01*
X103995Y54270D01*
X104051Y54232D01*
X104108Y54186D01*
X104270Y54056D01*
X104270Y54056D01*
X104270Y54056D01*
X104270D01*
X104340Y54020D01*
X104527Y53966D01*
X104721Y53909D01*
X104799Y53902D01*
X104799Y53902D01*
X104799Y53902D01*
X104996Y53923D01*
X105195Y53945D01*
X105195Y53945D01*
X105195D01*
X105270Y53969D01*
X105481Y54085D01*
X105618Y54160D01*
X105618Y54160D01*
X105619Y54160D01*
X105619Y54160D01*
X105648Y54185D01*
X105648Y54185D01*
X105648Y54185D01*
X147721Y89488D01*
X147721Y89488D01*
X147721Y89488D01*
X147750Y89513D01*
X147750Y89513D01*
X147750Y89513D01*
X147751Y89513D01*
X147869Y89661D01*
X148000Y89824D01*
X148000Y89824D01*
X148000Y89824D01*
Y89824D01*
X148036Y89893D01*
X148090Y90081D01*
X148147Y90275D01*
X148154Y90353D01*
X148154Y90353D01*
X148154Y90353D01*
X148132Y90549D01*
X148111Y90748D01*
X148110Y90748D01*
Y90749D01*
X148087Y90823D01*
X147971Y91035D01*
X147896Y91172D01*
X147896Y91172D01*
X147896Y91172D01*
X147896Y91172D01*
X147871Y91202D01*
X147871Y91202D01*
X147871Y91202D01*
X112568Y133274D01*
X112568Y133274D01*
X112568Y133274D01*
X112543Y133304D01*
X112543Y133304D01*
X112543Y133304D01*
X112542Y133304D01*
X112519Y133323D01*
X112508Y133340D01*
X112451Y133377D01*
X112395Y133423D01*
X112232Y133553D01*
X112232Y133553D01*
X112232Y133553D01*
X112232D01*
X112163Y133589D01*
X111975Y133644D01*
X111781Y133701D01*
X111703Y133707D01*
X111703Y133707D01*
X111703Y133707D01*
D02*
G37*
%LPD*%
D11*
X313000Y179000D02*
D03*
X535000Y217000D02*
D03*
Y365000D02*
D03*
X237000Y391000D02*
D03*
X117000Y155000D02*
D03*
M02*
