M48
;Layer_Color=9474304
;FILE_FORMAT=2:5
INCH,LZ
;TYPE=PLATED
T1F00S00C0.01181
T2F00S00C0.01575
T3F00S00C0.03200
T4F00S00C0.03937
T6F00S00C0.04724
T7F00S00C0.05118
T9F00S00C0.07480
T10F00S00C0.11811
T11F00S00C0.15748
T12F00S00C0.16142
%
T01
X053Y0198
X0559Y0189
X0624Y0188
X0466Y0198
X0397Y0126
X0338Y0152
X0336Y0165
X0308Y0159
X0319Y0202287
X0239203Y0175797
X0243Y016
X0214Y0151
X0169Y0159672
X0155Y0125
X0143Y008
X0102Y0131
X0083Y0154
X0082287Y0182
X0096061Y0297771
X0096Y0319
X0094Y03285
X0100355Y0332473
X01073Y03378
X0116287Y0335
X012Y034803
X0125Y0351713
X013Y034803
X0135Y03482
Y0352
X014Y0355007
Y034803
X0146828Y0343237
X01486Y03358
X0147Y0324
X0125Y0319
X011Y034803
Y0355007
X0103Y0368237
X013
X0146287Y0363237
X0148369Y0353651
X0170898Y034
Y0314
X0170613Y0299
X0161Y0298
X0163287Y0261914
X0168325Y0264634
X0164Y0237
X0169Y0225
X00893Y03368
X0237713Y0339164
X0244898Y0344
X0243Y0309
X0234Y0299
X0243546Y0234223
X0234713Y0224
X0308304Y0232989
X0318Y0245
X0307Y0307
X0317465Y0318283
X0318898Y0347
X0392898Y035
X0392Y0309
X0383043Y0317668
X0382838Y0243894
X0392Y0235
X0456
X0466Y0273
X0456Y0308
X0466799Y0326902
X0466Y0347
X0529642Y034586
X056Y0338
X0560898Y0304
X056Y0263
X0530035Y0271232
X0624Y0264
Y0337
X0624504Y0412
X056
X053Y042
X0466Y0421
X0456Y0456
X0392
X0383Y0466
Y0392
X0392Y0383
X0454536Y0380536
X0309Y0383
X0318Y0393
X0308Y0455
X0317Y0466
X0244Y0457
X0235Y0445
X0225149Y041885
X0226Y0416
X0234883Y0370883
X024472Y038028
X0167Y0379
X0166284Y0388284
X0148024Y0388721
X0147296Y0373704
X013Y0377
X0131Y0386
X0116
X0113Y0377
X0107713Y0378237
X011Y040052
X0112816Y0411162
X0104
X0125Y0418079
X0131Y0402807
X0146287Y0403237
X0144Y0451
X0169Y0446
X017Y0372
T02
X0609307Y0202
X0622693
X0481Y0211
X0467614
X0356161Y0157385
X0343839Y0162615
X0258693Y0173
X0245307
X0208161Y0162615
X0195839Y0157385
X0127698Y0119127
X0136302Y0108873
X0144307Y0237
X0144614Y0249
X0158
X0157693Y0237
X0171614
Y0249
X0185
Y0237
X0245307Y0247
Y0259
X0258693
Y0247
X0319614Y0257
Y0269
X0333
Y0257
X0393614Y0259
Y0247
X0407
Y0259
X0467614Y0223
X0481
X0480693Y0359
X0467307
X0610307Y0363
Y0351
X0623693
Y0363
X0622693Y0215
X0609307
X0480693Y0371
X0467307
X0406693Y0395
Y0407
X0393307
Y0395
X0332693Y0405
Y0417
X0319307
Y0405
X0306693Y0407
Y0395
X0293307
Y0407
X0184693Y0397
X0171307
X0176307Y0385
X0189693
X0132Y0407055
Y0418079
X0118
Y0407055
T03
X011Y0327
X012
X013
X014
X0152776Y034595
Y035595
Y036595
X015789Y036095
Y035095
Y034095
X009789
Y035095
Y036095
X0092776Y035595
Y034595
Y036595
Y037595
Y038595
Y039595
Y040595
Y041595
Y042595
Y043595
Y044595
Y045595
X009789Y045095
Y044095
Y043095
Y042095
Y041095
Y040095
Y039095
Y038095
Y037095
X0152776Y037595
Y038595
Y039595
Y040595
Y041595
Y042595
Y043595
Y044595
Y045595
X015789Y045095
Y044095
Y043095
Y042095
Y041095
Y040095
Y039095
Y038095
Y037095
T04
X0091472Y0189157
Y0199
Y0208842
X0148559
Y0189157
X0190315Y0317
X0200157
X021
T06
X0058842Y0161087
X0065732
Y0188646
X0058842
T07
X0137222Y0153
X0160778Y0162999
T09
X0570346Y0171
X0613654
X0519654Y018
X0476346
X0379932Y0113539
X0340068Y0130461
X0297654Y0142
X0254346
X0223654Y0206
X0180347
X0172068Y0113539
X0211932Y0130461
X0094333Y0110392
X012217Y0077217
X0106346Y028
X0149653
X0180347
Y0354
X0223654
X0254346Y0364
X0297654
Y029
X0328346Y03
Y0226
X0297654Y0216
X0254346
Y029
X0223654Y028
X0371654Y03
X0402347Y029
X0445653
X0476346Y0254
X0519654
Y0328
X0476346
X0445653Y0364
X0402347
Y0216
X0371654Y0226
X0445653Y0216
X0570346Y0246
X0613654
Y032
X0570346
Y0394
X0613654
X0519654Y0402
X0476346
X0445653Y0438
X0402347
X0371654Y0448
Y0374
X0328346
Y0448
X0297654Y0438
X0254346
X0223654Y0428
X0180347
T10
X0577Y0181
X0582Y0191
X0602
X0607Y0181
X0513Y019
X0508Y02
X0488
X0483Y019
X037702Y0136503
X0377715Y0125344
X035861Y0144317
X03501Y0137066
X0291Y0152
X0286Y0162
X0266
X0261Y0152
X02019Y0137066
X019339Y0144317
X017498Y0136503
X0174285Y0125344
X0117144Y0114321
X010627Y0111723
X013Y0099
X0125554Y0088742
X0187Y0216
X0192Y0226
X0212
Y03
X0192
X0187Y029
X0143
X0138Y03
X0118
X0113Y029
X0187Y0364
X0217
Y029
X0261Y03
X0266Y031
X0286
X0291Y03
X0335Y031
X034Y032
X036
X0365Y031
X036Y0246
X0365Y0236
X0335
X034Y0246
X0286Y0236
X0291Y0226
X0261
X0266Y0236
X0217Y0216
X0409Y0226
X0414Y0236
X0434
X0439Y0226
Y03
X0434Y031
X0414
X0409Y03
X0488Y0274
X0483Y0264
X0513
X0508Y0274
X0513Y0338
X0508Y0348
X0488
X0483Y0338
X0582Y034
X0577Y033
X0607
X0602Y034
Y0266
X0607Y0256
X0577
X0582Y0266
X0577Y0404
X0582Y0414
X0602
X0607Y0404
X0513Y0412
X0508Y0422
X0488
X0483Y0412
X0434Y0384
X0439Y0374
X0409
X0414Y0384
X0409Y0448
X0414Y0458
X0434
X0439Y0448
X0365Y0458
X036Y0468
X034
X0335Y0458
X0286
X0291Y0448
X0261
X0266Y0458
X0217Y0438
X0266Y0384
X0261Y0374
X0291
X0286Y0384
X0335
X034Y0394
X036
X0365Y0384
X0212Y0374
X0192
X0187Y0438
X0192Y0448
X0212
T11
X0592Y0171
X0498Y018
X036Y0122
X0276Y0142
X0192Y0122
X0202Y0206
X0108251Y0093805
X0128Y028
X0202
Y0354
X0276Y0364
Y029
Y0216
X035Y0226
Y03
X0424Y029
Y0364
X0498Y0328
Y0254
X0424Y0216
X0592Y0246
Y032
Y0394
X0498Y0402
X0424Y0438
X035Y0448
Y0374
X0276Y0438
X0202Y0428
T12
X0313Y0179
X0117Y0155
X0535Y0217
Y0365
X0237Y0391
M30
