M48
;Layer_Color=9474304
;FILE_FORMAT=2:5
INCH,LZ
;TYPE=PLATED
T5F00S00C0.03937
T8F00S00C0.05906
%
G90
G05
T05
G00X0057465Y014711
M15
G01Y0149079
M16
G00X006711Y014711
M15
G01Y0149079
M16
G00X0074Y0153016
M15
G01Y0154984
M16
G00X0074Y0168764
M15
G01Y0170732
M16
G00X0074Y0180575
M15
G01Y0182543
M16
G00X0050575Y0180575
M15
G01Y0182543
M16
G00X0050575Y0168764
M15
G01Y0170732
M16
G00X0050575Y0153016
M15
G01Y0154984
M16
T08
G00X0118441Y0176953
M15
G01X0123559
M16
G00X0118441Y0221047
M15
G01X0123559
M16
M17
M30
